<svg id="visual" viewBox="0 0 900 600" width="900" height="600" xmlns="http://www.w3.org/2000/svg" xmlns:xlink="http://www.w3.org/1999/xlink" version="1.1"><g stroke-width="1" stroke-linejoin="bevel"><path d="M444 305L411 300L412 342.9Z" fill="#543274" stroke="#543274"></path><path d="M412 342.9L453 344.9L444 305Z" fill="#ed1b76" stroke="#ed1b76"></path><path d="M444 305L411 261.1L411 300Z" fill="#543274" stroke="#543274"></path><path d="M352 350.9L409 381.7L412 342.9Z" fill="#ed1b76" stroke="#ed1b76"></path><path d="M412 342.9L409 381.7L453 344.9Z" fill="#ed1b76" stroke="#ed1b76"></path><path d="M363 293L412 342.9L411 300Z" fill="#543274" stroke="#543274"></path><path d="M453 344.9L490 304L444 305Z" fill="#00101c" stroke="#00101c"></path><path d="M444 305L457 254.1L411 261.1Z" fill="#72327e" stroke="#72327e"></path><path d="M411 261.1L363 293L411 300Z" fill="#ed1b76" stroke="#ed1b76"></path><path d="M490 304L457 254.1L444 305Z" fill="#00101c" stroke="#00101c"></path><path d="M409 381.7L454 391.7L453 344.9Z" fill="#00101c" stroke="#00101c"></path><path d="M453 344.9L500 340.9L490 304Z" fill="#00101c" stroke="#00101c"></path><path d="M503 385.7L500 340.9L453 344.9Z" fill="#b22a84" stroke="#b22a84"></path><path d="M363 293L352 350.9L412 342.9Z" fill="#543274" stroke="#543274"></path><path d="M532 297L493 261.1L490 304Z" fill="#051a2f" stroke="#051a2f"></path><path d="M490 304L493 261.1L457 254.1Z" fill="#543274" stroke="#543274"></path><path d="M352 350.9L359 389.7L409 381.7Z" fill="#0d2343" stroke="#0d2343"></path><path d="M409 381.7L410 424.6L454 391.7Z" fill="#382f66" stroke="#382f66"></path><path d="M361 222.3L359 250.1L411 261.1Z" fill="#ed1b76" stroke="#ed1b76"></path><path d="M411 261.1L359 250.1L363 293Z" fill="#72327e" stroke="#72327e"></path><path d="M363 293L321 335.9L352 350.9Z" fill="#923083" stroke="#923083"></path><path d="M454 391.7L503 385.7L453 344.9Z" fill="#00101c" stroke="#00101c"></path><path d="M359 389.7L410 424.6L409 381.7Z" fill="#923083" stroke="#923083"></path><path d="M454 391.7L494 431.6L503 385.7Z" fill="#543274" stroke="#543274"></path><path d="M318 304L321 335.9L363 293Z" fill="#72327e" stroke="#72327e"></path><path d="M352 350.9L323 379.7L359 389.7Z" fill="#b22a84" stroke="#b22a84"></path><path d="M410 424.6L450 423.6L454 391.7Z" fill="#0d2343" stroke="#0d2343"></path><path d="M318 265.1L318 304L363 293Z" fill="#ed1b76" stroke="#ed1b76"></path><path d="M503 385.7L532 335.9L500 340.9Z" fill="#72327e" stroke="#72327e"></path><path d="M500 340.9L532 335.9L490 304Z" fill="#382f66" stroke="#382f66"></path><path d="M532 335.9L532 297L490 304Z" fill="#0d2343" stroke="#0d2343"></path><path d="M498 222.3L455 210.3L457 254.1Z" fill="#0d2343" stroke="#0d2343"></path><path d="M457 254.1L455 210.3L411 261.1Z" fill="#0d2343" stroke="#0d2343"></path><path d="M498 222.3L457 254.1L493 261.1Z" fill="#543274" stroke="#543274"></path><path d="M322 429.6L323 379.7L269 424.6Z" fill="#382f66" stroke="#382f66"></path><path d="M321 335.9L323 379.7L352 350.9Z" fill="#0d2343" stroke="#0d2343"></path><path d="M359 389.7L356 423.6L410 424.6Z" fill="#72327e" stroke="#72327e"></path><path d="M402 205.3L361 222.3L411 261.1Z" fill="#923083" stroke="#923083"></path><path d="M359 250.1L318 265.1L363 293Z" fill="#72327e" stroke="#72327e"></path><path d="M455 210.3L402 205.3L411 261.1Z" fill="#72327e" stroke="#72327e"></path><path d="M323 213.3L318 265.1L359 250.1Z" fill="#202a55" stroke="#202a55"></path><path d="M548 255.1L498 222.3L493 261.1Z" fill="#202a55" stroke="#202a55"></path><path d="M323 379.7L356 423.6L359 389.7Z" fill="#72327e" stroke="#72327e"></path><path d="M450 423.6L494 431.6L454 391.7Z" fill="#b22a84" stroke="#b22a84"></path><path d="M503 385.7L535 392.7L532 335.9Z" fill="#543274" stroke="#543274"></path><path d="M456 469.4L494 431.6L450 423.6Z" fill="#72327e" stroke="#72327e"></path><path d="M456 469.4L450 423.6L410 424.6Z" fill="#72327e" stroke="#72327e"></path><path d="M534 429.6L535 392.7L503 385.7Z" fill="#d1217f" stroke="#d1217f"></path><path d="M579 293L548 255.1L532 297Z" fill="#0d2343" stroke="#0d2343"></path><path d="M576 335.9L532 297L532 335.9Z" fill="#b22a84" stroke="#b22a84"></path><path d="M532 297L548 255.1L493 261.1Z" fill="#051a2f" stroke="#051a2f"></path><path d="M502 164.4L448 179.4L455 210.3Z" fill="#d1217f" stroke="#d1217f"></path><path d="M455 210.3L448 179.4L402 205.3Z" fill="#0d2343" stroke="#0d2343"></path><path d="M402 205.3L352 176.4L361 222.3Z" fill="#ed1b76" stroke="#ed1b76"></path><path d="M502 164.4L455 210.3L498 222.3Z" fill="#382f66" stroke="#382f66"></path><path d="M448 179.4L405 176.4L402 205.3Z" fill="#923083" stroke="#923083"></path><path d="M361 222.3L323 213.3L359 250.1Z" fill="#ed1b76" stroke="#ed1b76"></path><path d="M352 176.4L323 213.3L361 222.3Z" fill="#0d2343" stroke="#0d2343"></path><path d="M323 379.7L322 429.6L356 423.6Z" fill="#051a2f" stroke="#051a2f"></path><path d="M397 472.4L456 469.4L410 424.6Z" fill="#00101c" stroke="#00101c"></path><path d="M273 347.9L323 379.7L321 335.9Z" fill="#b22a84" stroke="#b22a84"></path><path d="M397 472.4L410 424.6L356 423.6Z" fill="#00101c" stroke="#00101c"></path><path d="M494 431.6L534 429.6L503 385.7Z" fill="#202a55" stroke="#202a55"></path><path d="M582 383.7L576 335.9L532 335.9Z" fill="#382f66" stroke="#382f66"></path><path d="M318 265.1L274 294L318 304Z" fill="#202a55" stroke="#202a55"></path><path d="M318 304L273 347.9L321 335.9Z" fill="#202a55" stroke="#202a55"></path><path d="M264 258.1L274 294L318 265.1Z" fill="#543274" stroke="#543274"></path><path d="M363 473.4L397 472.4L356 423.6Z" fill="#923083" stroke="#923083"></path><path d="M503 464.4L534 429.6L494 431.6Z" fill="#ed1b76" stroke="#ed1b76"></path><path d="M535 392.7L582 383.7L532 335.9Z" fill="#d1217f" stroke="#d1217f"></path><path d="M274 294L273 347.9L318 304Z" fill="#d1217f" stroke="#d1217f"></path><path d="M576 335.9L579 293L532 297Z" fill="#d1217f" stroke="#d1217f"></path><path d="M584 251.1L547 222.3L548 255.1Z" fill="#202a55" stroke="#202a55"></path><path d="M548 255.1L547 222.3L498 222.3Z" fill="#72327e" stroke="#72327e"></path><path d="M405 176.4L352 176.4L402 205.3Z" fill="#202a55" stroke="#202a55"></path><path d="M456 469.4L503 464.4L494 431.6Z" fill="#051a2f" stroke="#051a2f"></path><path d="M322 429.6L363 473.4L356 423.6Z" fill="#b22a84" stroke="#b22a84"></path><path d="M223 378.7L269 382.7L273 347.9Z" fill="#382f66" stroke="#382f66"></path><path d="M273 347.9L269 382.7L323 379.7Z" fill="#d1217f" stroke="#d1217f"></path><path d="M322 429.6L312 472.4L363 473.4Z" fill="#ed1b76" stroke="#ed1b76"></path><path d="M587 433.6L535 392.7L534 429.6Z" fill="#00101c" stroke="#00101c"></path><path d="M587 433.6L582 383.7L535 392.7Z" fill="#72327e" stroke="#72327e"></path><path d="M576 335.9L632 291L579 293Z" fill="#382f66" stroke="#382f66"></path><path d="M262 221.3L318 265.1L323 213.3Z" fill="#382f66" stroke="#382f66"></path><path d="M262 221.3L264 258.1L318 265.1Z" fill="#ed1b76" stroke="#ed1b76"></path><path d="M274 294L233 305L273 347.9Z" fill="#543274" stroke="#543274"></path><path d="M634 265.1L584 251.1L579 293Z" fill="#d1217f" stroke="#d1217f"></path><path d="M579 293L584 251.1L548 255.1Z" fill="#923083" stroke="#923083"></path><path d="M535 169.4L502 164.4L498 222.3Z" fill="#00101c" stroke="#00101c"></path><path d="M413 120.6L358 136.6L405 176.4Z" fill="#00101c" stroke="#00101c"></path><path d="M405 176.4L358 136.6L352 176.4Z" fill="#d1217f" stroke="#d1217f"></path><path d="M535 169.4L498 222.3L547 222.3Z" fill="#543274" stroke="#543274"></path><path d="M358 136.6L311 173.4L352 176.4Z" fill="#0d2343" stroke="#0d2343"></path><path d="M352 176.4L311 173.4L323 213.3Z" fill="#0d2343" stroke="#0d2343"></path><path d="M223 378.7L269 424.6L269 382.7Z" fill="#d1217f" stroke="#d1217f"></path><path d="M269 382.7L269 424.6L323 379.7Z" fill="#b22a84" stroke="#b22a84"></path><path d="M583 178.4L535 169.4L547 222.3Z" fill="#ed1b76" stroke="#ed1b76"></path><path d="M269 424.6L312 472.4L322 429.6Z" fill="#923083" stroke="#923083"></path><path d="M536 506.3L543 470.4L503 464.4Z" fill="#ed1b76" stroke="#ed1b76"></path><path d="M503 464.4L543 470.4L534 429.6Z" fill="#b22a84" stroke="#b22a84"></path><path d="M495 509.3L503 464.4L456 469.4Z" fill="#0d2343" stroke="#0d2343"></path><path d="M458 511.3L456 469.4L413 515.3Z" fill="#ed1b76" stroke="#ed1b76"></path><path d="M311 173.4L262 221.3L323 213.3Z" fill="#543274" stroke="#543274"></path><path d="M228 264.1L233 305L274 294Z" fill="#00101c" stroke="#00101c"></path><path d="M228 264.1L274 294L264 258.1Z" fill="#543274" stroke="#543274"></path><path d="M413 515.3L397 472.4L351 509.3Z" fill="#923083" stroke="#923083"></path><path d="M413 515.3L456 469.4L397 472.4Z" fill="#b22a84" stroke="#b22a84"></path><path d="M351 509.3L397 472.4L363 473.4Z" fill="#923083" stroke="#923083"></path><path d="M445 124.6L448 179.4L502 164.4Z" fill="#d1217f" stroke="#d1217f"></path><path d="M445 124.6L405 176.4L448 179.4Z" fill="#0d2343" stroke="#0d2343"></path><path d="M543 470.4L587 433.6L534 429.6Z" fill="#72327e" stroke="#72327e"></path><path d="M623 214.3L592 213.3L584 251.1Z" fill="#202a55" stroke="#202a55"></path><path d="M498 126.6L445 124.6L502 164.4Z" fill="#0d2343" stroke="#0d2343"></path><path d="M632 291L576 335.9L637 342.9Z" fill="#202a55" stroke="#202a55"></path><path d="M584 251.1L592 213.3L547 222.3Z" fill="#b22a84" stroke="#b22a84"></path><path d="M497 553.1L495 509.3L458 511.3Z" fill="#202a55" stroke="#202a55"></path><path d="M458 511.3L495 509.3L456 469.4Z" fill="#051a2f" stroke="#051a2f"></path><path d="M445 124.6L413 120.6L405 176.4Z" fill="#ed1b76" stroke="#ed1b76"></path><path d="M312 472.4L351 509.3L363 473.4Z" fill="#d1217f" stroke="#d1217f"></path><path d="M262 221.3L228 264.1L264 258.1Z" fill="#923083" stroke="#923083"></path><path d="M186 304L220 346.9L233 305Z" fill="#00101c" stroke="#00101c"></path><path d="M233 305L220 346.9L273 347.9Z" fill="#543274" stroke="#543274"></path><path d="M546 128.6L502 164.4L535 169.4Z" fill="#d1217f" stroke="#d1217f"></path><path d="M546 128.6L498 126.6L502 164.4Z" fill="#202a55" stroke="#202a55"></path><path d="M445 124.6L406 88.7L413 120.6Z" fill="#543274" stroke="#543274"></path><path d="M637 342.9L576 335.9L582 383.7Z" fill="#d1217f" stroke="#d1217f"></path><path d="M220 346.9L223 378.7L273 347.9Z" fill="#00101c" stroke="#00101c"></path><path d="M269 424.6L270 478.4L312 472.4Z" fill="#d1217f" stroke="#d1217f"></path><path d="M316 120.6L277 168.4L311 173.4Z" fill="#72327e" stroke="#72327e"></path><path d="M311 173.4L277 168.4L262 221.3Z" fill="#72327e" stroke="#72327e"></path><path d="M262 221.3L223 212.3L228 264.1Z" fill="#b22a84" stroke="#b22a84"></path><path d="M629 174.4L583 178.4L592 213.3Z" fill="#ed1b76" stroke="#ed1b76"></path><path d="M592 213.3L583 178.4L547 222.3Z" fill="#0d2343" stroke="#0d2343"></path><path d="M637 387.7L637 342.9L582 383.7Z" fill="#051a2f" stroke="#051a2f"></path><path d="M495 509.3L536 506.3L503 464.4Z" fill="#382f66" stroke="#382f66"></path><path d="M543 470.4L586 478.4L587 433.6Z" fill="#00101c" stroke="#00101c"></path><path d="M666 252.1L634 265.1L632 291Z" fill="#00101c" stroke="#00101c"></path><path d="M632 291L634 265.1L579 293Z" fill="#543274" stroke="#543274"></path><path d="M222 466.4L270 478.4L269 424.6Z" fill="#72327e" stroke="#72327e"></path><path d="M312 472.4L313 520.3L351 509.3Z" fill="#543274" stroke="#543274"></path><path d="M621 466.4L622 422.6L587 433.6Z" fill="#543274" stroke="#543274"></path><path d="M587 433.6L622 422.6L582 383.7Z" fill="#382f66" stroke="#382f66"></path><path d="M622 422.6L637 387.7L582 383.7Z" fill="#382f66" stroke="#382f66"></path><path d="M634 265.1L623 214.3L584 251.1Z" fill="#b22a84" stroke="#b22a84"></path><path d="M536 506.3L586 478.4L543 470.4Z" fill="#051a2f" stroke="#051a2f"></path><path d="M576 121.6L546 128.6L583 178.4Z" fill="#923083" stroke="#923083"></path><path d="M583 178.4L546 128.6L535 169.4Z" fill="#00101c" stroke="#00101c"></path><path d="M457 86.7L406 88.7L445 124.6Z" fill="#543274" stroke="#543274"></path><path d="M358 136.6L316 120.6L311 173.4Z" fill="#72327e" stroke="#72327e"></path><path d="M358 76.7L316 120.6L358 136.6Z" fill="#543274" stroke="#543274"></path><path d="M270 478.4L313 520.3L312 472.4Z" fill="#d1217f" stroke="#d1217f"></path><path d="M351 509.3L363 549.1L413 515.3Z" fill="#ed1b76" stroke="#ed1b76"></path><path d="M228 170.4L223 212.3L262 221.3Z" fill="#00101c" stroke="#00101c"></path><path d="M228 264.1L186 304L233 305Z" fill="#0d2343" stroke="#0d2343"></path><path d="M228 170.4L262 221.3L277 168.4Z" fill="#b22a84" stroke="#b22a84"></path><path d="M457 86.7L445 124.6L498 126.6Z" fill="#72327e" stroke="#72327e"></path><path d="M413 120.6L406 88.7L358 136.6Z" fill="#051a2f" stroke="#051a2f"></path><path d="M177 384.7L216 427.6L223 378.7Z" fill="#543274" stroke="#543274"></path><path d="M223 378.7L216 427.6L269 424.6Z" fill="#ed1b76" stroke="#ed1b76"></path><path d="M270 478.4L264 521.3L313 520.3Z" fill="#00101c" stroke="#00101c"></path><path d="M177 384.7L223 378.7L220 346.9Z" fill="#382f66" stroke="#382f66"></path><path d="M313 520.3L363 549.1L351 509.3Z" fill="#923083" stroke="#923083"></path><path d="M413 515.3L442 560.1L458 511.3Z" fill="#72327e" stroke="#72327e"></path><path d="M495 509.3L497 553.1L536 506.3Z" fill="#0d2343" stroke="#0d2343"></path><path d="M498 76.7L457 86.7L498 126.6Z" fill="#202a55" stroke="#202a55"></path><path d="M185 253.1L186 304L228 264.1Z" fill="#543274" stroke="#543274"></path><path d="M396 559.1L442 560.1L413 515.3Z" fill="#0d2343" stroke="#0d2343"></path><path d="M536 506.3L591 517.3L586 478.4Z" fill="#ed1b76" stroke="#ed1b76"></path><path d="M363 549.1L396 559.1L413 515.3Z" fill="#543274" stroke="#543274"></path><path d="M442 560.1L497 553.1L458 511.3Z" fill="#b22a84" stroke="#b22a84"></path><path d="M586 478.4L621 466.4L587 433.6Z" fill="#382f66" stroke="#382f66"></path><path d="M681 421.6L671 383.7L637 387.7Z" fill="#923083" stroke="#923083"></path><path d="M629 505.3L621 466.4L586 478.4Z" fill="#00101c" stroke="#00101c"></path><path d="M186 304L179 342.9L220 346.9Z" fill="#d1217f" stroke="#d1217f"></path><path d="M272 123.6L228 170.4L277 168.4Z" fill="#d1217f" stroke="#d1217f"></path><path d="M223 212.3L185 253.1L228 264.1Z" fill="#0d2343" stroke="#0d2343"></path><path d="M176 221.3L185 253.1L223 212.3Z" fill="#051a2f" stroke="#051a2f"></path><path d="M186 304L134 343.9L179 342.9Z" fill="#00101c" stroke="#00101c"></path><path d="M178 464.4L222 466.4L216 427.6Z" fill="#d1217f" stroke="#d1217f"></path><path d="M216 427.6L222 466.4L269 424.6Z" fill="#0d2343" stroke="#0d2343"></path><path d="M637 342.9L674 308L632 291Z" fill="#543274" stroke="#543274"></path><path d="M634 265.1L666 252.1L623 214.3Z" fill="#051a2f" stroke="#051a2f"></path><path d="M682 348.9L674 308L637 342.9Z" fill="#d1217f" stroke="#d1217f"></path><path d="M671 383.7L637 342.9L637 387.7Z" fill="#923083" stroke="#923083"></path><path d="M278 85.7L272 123.6L316 120.6Z" fill="#382f66" stroke="#382f66"></path><path d="M316 120.6L272 123.6L277 168.4Z" fill="#00101c" stroke="#00101c"></path><path d="M636 130.6L576 121.6L583 178.4Z" fill="#543274" stroke="#543274"></path><path d="M534 76.7L498 76.7L498 126.6Z" fill="#051a2f" stroke="#051a2f"></path><path d="M629 174.4L592 213.3L623 214.3Z" fill="#00101c" stroke="#00101c"></path><path d="M674 308L666 252.1L632 291Z" fill="#d1217f" stroke="#d1217f"></path><path d="M670 217.3L629 174.4L623 214.3Z" fill="#d1217f" stroke="#d1217f"></path><path d="M407 43.9L358 76.7L406 88.7Z" fill="#543274" stroke="#543274"></path><path d="M406 88.7L358 76.7L358 136.6Z" fill="#72327e" stroke="#72327e"></path><path d="M681 421.6L637 387.7L622 422.6Z" fill="#72327e" stroke="#72327e"></path><path d="M534 76.7L498 126.6L546 128.6Z" fill="#051a2f" stroke="#051a2f"></path><path d="M457 86.7L407 43.9L406 88.7Z" fill="#923083" stroke="#923083"></path><path d="M179 342.9L177 384.7L220 346.9Z" fill="#202a55" stroke="#202a55"></path><path d="M217 520.3L264 521.3L270 478.4Z" fill="#ed1b76" stroke="#ed1b76"></path><path d="M313 520.3L319 559.1L363 549.1Z" fill="#923083" stroke="#923083"></path><path d="M366 600L403 600L396 559.1Z" fill="#923083" stroke="#923083"></path><path d="M588 554.1L591 517.3L536 506.3Z" fill="#051a2f" stroke="#051a2f"></path><path d="M676 471.4L681 421.6L622 422.6Z" fill="#00101c" stroke="#00101c"></path><path d="M358 76.7L320 84.7L316 120.6Z" fill="#0d2343" stroke="#0d2343"></path><path d="M671 383.7L682 348.9L637 342.9Z" fill="#72327e" stroke="#72327e"></path><path d="M713 257.1L670 217.3L666 252.1Z" fill="#051a2f" stroke="#051a2f"></path><path d="M277 564.1L319 559.1L313 520.3Z" fill="#d1217f" stroke="#d1217f"></path><path d="M488 600L497 553.1L442 560.1Z" fill="#b22a84" stroke="#b22a84"></path><path d="M677 173.4L670 217.3L725 209.3Z" fill="#923083" stroke="#923083"></path><path d="M666 252.1L670 217.3L623 214.3Z" fill="#00101c" stroke="#00101c"></path><path d="M576 121.6L534 76.7L546 128.6Z" fill="#72327e" stroke="#72327e"></path><path d="M593 89.7L534 76.7L576 121.6Z" fill="#923083" stroke="#923083"></path><path d="M180 174.4L223 212.3L228 170.4Z" fill="#72327e" stroke="#72327e"></path><path d="M180 174.4L176 221.3L223 212.3Z" fill="#543274" stroke="#543274"></path><path d="M130 291L134 343.9L186 304Z" fill="#0d2343" stroke="#0d2343"></path><path d="M134 422.6L171 429.6L177 384.7Z" fill="#72327e" stroke="#72327e"></path><path d="M488 600L543 565.1L497 553.1Z" fill="#72327e" stroke="#72327e"></path><path d="M497 553.1L543 565.1L536 506.3Z" fill="#051a2f" stroke="#051a2f"></path><path d="M403 600L442 560.1L396 559.1Z" fill="#202a55" stroke="#202a55"></path><path d="M633 552.1L629 505.3L591 517.3Z" fill="#051a2f" stroke="#051a2f"></path><path d="M591 517.3L629 505.3L586 478.4Z" fill="#00101c" stroke="#00101c"></path><path d="M676 471.4L622 422.6L621 466.4Z" fill="#b22a84" stroke="#b22a84"></path><path d="M671 383.7L721 378.7L682 348.9Z" fill="#543274" stroke="#543274"></path><path d="M177 384.7L171 429.6L216 427.6Z" fill="#0d2343" stroke="#0d2343"></path><path d="M216 564.1L277 564.1L264 521.3Z" fill="#ed1b76" stroke="#ed1b76"></path><path d="M134 343.9L177 384.7L179 342.9Z" fill="#382f66" stroke="#382f66"></path><path d="M320 84.7L278 85.7L316 120.6Z" fill="#543274" stroke="#543274"></path><path d="M272 123.6L217 134.6L228 170.4Z" fill="#d1217f" stroke="#d1217f"></path><path d="M314 41.9L278 85.7L320 84.7Z" fill="#382f66" stroke="#382f66"></path><path d="M497 49.9L457 86.7L498 76.7Z" fill="#382f66" stroke="#382f66"></path><path d="M446 36.9L407 43.9L457 86.7Z" fill="#051a2f" stroke="#051a2f"></path><path d="M358 76.7L314 41.9L320 84.7Z" fill="#d1217f" stroke="#d1217f"></path><path d="M223 78.7L217 134.6L272 123.6Z" fill="#202a55" stroke="#202a55"></path><path d="M366 600L396 559.1L363 549.1Z" fill="#ed1b76" stroke="#ed1b76"></path><path d="M403 600L451 600L442 560.1Z" fill="#ed1b76" stroke="#ed1b76"></path><path d="M534 76.7L497 49.9L498 76.7Z" fill="#202a55" stroke="#202a55"></path><path d="M217 520.3L270 478.4L222 466.4Z" fill="#72327e" stroke="#72327e"></path><path d="M264 521.3L277 564.1L313 520.3Z" fill="#0d2343" stroke="#0d2343"></path><path d="M319 559.1L366 600L363 549.1Z" fill="#0d2343" stroke="#0d2343"></path><path d="M677 173.4L636 130.6L629 174.4Z" fill="#923083" stroke="#923083"></path><path d="M629 174.4L636 130.6L583 178.4Z" fill="#0d2343" stroke="#0d2343"></path><path d="M534 76.7L543 34.9L497 49.9Z" fill="#543274" stroke="#543274"></path><path d="M543 565.1L588 554.1L536 506.3Z" fill="#0d2343" stroke="#0d2343"></path><path d="M579 600L588 554.1L543 565.1Z" fill="#051a2f" stroke="#051a2f"></path><path d="M313 600L366 600L319 559.1Z" fill="#202a55" stroke="#202a55"></path><path d="M497 49.9L446 36.9L457 86.7Z" fill="#b22a84" stroke="#b22a84"></path><path d="M217 134.6L180 174.4L228 170.4Z" fill="#00101c" stroke="#00101c"></path><path d="M171 429.6L178 464.4L216 427.6Z" fill="#72327e" stroke="#72327e"></path><path d="M451 600L488 600L442 560.1Z" fill="#543274" stroke="#543274"></path><path d="M627 93.7L593 89.7L576 121.6Z" fill="#ed1b76" stroke="#ed1b76"></path><path d="M186 513.3L217 520.3L222 466.4Z" fill="#543274" stroke="#543274"></path><path d="M403 0L355 38.9L407 43.9Z" fill="#0d2343" stroke="#0d2343"></path><path d="M407 43.9L355 38.9L358 76.7Z" fill="#051a2f" stroke="#051a2f"></path><path d="M139 258.1L185 253.1L176 221.3Z" fill="#923083" stroke="#923083"></path><path d="M139 258.1L186 304L185 253.1Z" fill="#b22a84" stroke="#b22a84"></path><path d="M171 429.6L141 478.4L178 464.4Z" fill="#72327e" stroke="#72327e"></path><path d="M713 257.1L666 252.1L674 308Z" fill="#ed1b76" stroke="#ed1b76"></path><path d="M670 217.3L677 173.4L629 174.4Z" fill="#051a2f" stroke="#051a2f"></path><path d="M132 219.3L139 258.1L176 221.3Z" fill="#543274" stroke="#543274"></path><path d="M629 505.3L676 471.4L621 466.4Z" fill="#382f66" stroke="#382f66"></path><path d="M677 507.3L676 471.4L629 505.3Z" fill="#202a55" stroke="#202a55"></path><path d="M728 339.9L674 308L682 348.9Z" fill="#0d2343" stroke="#0d2343"></path><path d="M728 297L713 257.1L674 308Z" fill="#0d2343" stroke="#0d2343"></path><path d="M721 378.7L671 383.7L681 421.6Z" fill="#202a55" stroke="#202a55"></path><path d="M139 258.1L130 291L186 304Z" fill="#ed1b76" stroke="#ed1b76"></path><path d="M355 38.9L314 41.9L358 76.7Z" fill="#d1217f" stroke="#d1217f"></path><path d="M223 78.7L186 128.6L217 134.6Z" fill="#b22a84" stroke="#b22a84"></path><path d="M277 564.1L313 600L319 559.1Z" fill="#382f66" stroke="#382f66"></path><path d="M262 600L313 600L277 564.1Z" fill="#382f66" stroke="#382f66"></path><path d="M718 425.6L721 378.7L681 421.6Z" fill="#923083" stroke="#923083"></path><path d="M488 600L542 600L543 565.1Z" fill="#0d2343" stroke="#0d2343"></path><path d="M588 554.1L633 552.1L591 517.3Z" fill="#b22a84" stroke="#b22a84"></path><path d="M96 350.9L130 393.7L134 343.9Z" fill="#b22a84" stroke="#b22a84"></path><path d="M134 343.9L130 393.7L177 384.7Z" fill="#0d2343" stroke="#0d2343"></path><path d="M721 378.7L728 339.9L682 348.9Z" fill="#382f66" stroke="#382f66"></path><path d="M728 339.9L728 297L674 308Z" fill="#ed1b76" stroke="#ed1b76"></path><path d="M668 87.7L627 93.7L636 130.6Z" fill="#72327e" stroke="#72327e"></path><path d="M636 130.6L627 93.7L576 121.6Z" fill="#051a2f" stroke="#051a2f"></path><path d="M579 50.9L543 34.9L534 76.7Z" fill="#051a2f" stroke="#051a2f"></path><path d="M178 464.4L186 513.3L222 466.4Z" fill="#051a2f" stroke="#051a2f"></path><path d="M217 520.3L216 564.1L264 521.3Z" fill="#543274" stroke="#543274"></path><path d="M141 478.4L186 513.3L178 464.4Z" fill="#202a55" stroke="#202a55"></path><path d="M223 78.7L272 123.6L278 85.7Z" fill="#b22a84" stroke="#b22a84"></path><path d="M217 134.6L186 128.6L180 174.4Z" fill="#ed1b76" stroke="#ed1b76"></path><path d="M140 170.4L132 219.3L176 221.3Z" fill="#543274" stroke="#543274"></path><path d="M130 393.7L134 422.6L177 384.7Z" fill="#051a2f" stroke="#051a2f"></path><path d="M579 50.9L534 76.7L593 89.7Z" fill="#d1217f" stroke="#d1217f"></path><path d="M497 49.9L457 0L446 36.9Z" fill="#051a2f" stroke="#051a2f"></path><path d="M140 170.4L176 221.3L180 174.4Z" fill="#202a55" stroke="#202a55"></path><path d="M139 258.1L87 258.1L130 291Z" fill="#543274" stroke="#543274"></path><path d="M621 600L633 552.1L588 554.1Z" fill="#b22a84" stroke="#b22a84"></path><path d="M632 47.9L579 50.9L593 89.7Z" fill="#ed1b76" stroke="#ed1b76"></path><path d="M727 474.4L718 425.6L676 471.4Z" fill="#0d2343" stroke="#0d2343"></path><path d="M676 471.4L718 425.6L681 421.6Z" fill="#051a2f" stroke="#051a2f"></path><path d="M763 334.9L762 302L728 339.9Z" fill="#ed1b76" stroke="#ed1b76"></path><path d="M666 551.1L677 507.3L629 505.3Z" fill="#0d2343" stroke="#0d2343"></path><path d="M262 37.9L223 78.7L278 85.7Z" fill="#d1217f" stroke="#d1217f"></path><path d="M542 600L579 600L543 565.1Z" fill="#d1217f" stroke="#d1217f"></path><path d="M187 564.1L216 564.1L217 520.3Z" fill="#0d2343" stroke="#0d2343"></path><path d="M713 257.1L725 209.3L670 217.3Z" fill="#d1217f" stroke="#d1217f"></path><path d="M677 173.4L680 124.6L636 130.6Z" fill="#0d2343" stroke="#0d2343"></path><path d="M757 206.3L725 209.3L713 257.1Z" fill="#543274" stroke="#543274"></path><path d="M457 0L403 0L446 36.9Z" fill="#543274" stroke="#543274"></path><path d="M446 36.9L403 0L407 43.9Z" fill="#ed1b76" stroke="#ed1b76"></path><path d="M355 38.9L312 0L314 41.9Z" fill="#051a2f" stroke="#051a2f"></path><path d="M314 41.9L262 37.9L278 85.7Z" fill="#72327e" stroke="#72327e"></path><path d="M186 128.6L140 170.4L180 174.4Z" fill="#051a2f" stroke="#051a2f"></path><path d="M130 123.6L140 170.4L186 128.6Z" fill="#72327e" stroke="#72327e"></path><path d="M717 174.4L680 124.6L677 173.4Z" fill="#051a2f" stroke="#051a2f"></path><path d="M627 93.7L632 47.9L593 89.7Z" fill="#382f66" stroke="#382f66"></path><path d="M498 0L457 0L497 49.9Z" fill="#00101c" stroke="#00101c"></path><path d="M233 600L262 600L277 564.1Z" fill="#202a55" stroke="#202a55"></path><path d="M85 475.4L141 478.4L134 422.6Z" fill="#00101c" stroke="#00101c"></path><path d="M134 422.6L141 478.4L171 429.6Z" fill="#d1217f" stroke="#d1217f"></path><path d="M186 513.3L187 564.1L217 520.3Z" fill="#ed1b76" stroke="#ed1b76"></path><path d="M275 0L262 37.9L314 41.9Z" fill="#72327e" stroke="#72327e"></path><path d="M725 209.3L717 174.4L677 173.4Z" fill="#543274" stroke="#543274"></path><path d="M403 0L355 0L355 38.9Z" fill="#0d2343" stroke="#0d2343"></path><path d="M535 0L498 0L543 34.9Z" fill="#382f66" stroke="#382f66"></path><path d="M543 34.9L498 0L497 49.9Z" fill="#923083" stroke="#923083"></path><path d="M130 291L96 350.9L134 343.9Z" fill="#051a2f" stroke="#051a2f"></path><path d="M130 393.7L86 421.6L134 422.6Z" fill="#202a55" stroke="#202a55"></path><path d="M82 291L96 350.9L130 291Z" fill="#b22a84" stroke="#b22a84"></path><path d="M87 258.1L139 258.1L132 219.3Z" fill="#00101c" stroke="#00101c"></path><path d="M678 600L666 551.1L633 552.1Z" fill="#b22a84" stroke="#b22a84"></path><path d="M633 552.1L666 551.1L629 505.3Z" fill="#00101c" stroke="#00101c"></path><path d="M677 507.3L727 474.4L676 471.4Z" fill="#382f66" stroke="#382f66"></path><path d="M680 124.6L668 87.7L636 130.6Z" fill="#543274" stroke="#543274"></path><path d="M583 0L535 0L543 34.9Z" fill="#d1217f" stroke="#d1217f"></path><path d="M718 87.7L668 87.7L680 124.6Z" fill="#ed1b76" stroke="#ed1b76"></path><path d="M728 339.9L762 302L728 297Z" fill="#543274" stroke="#543274"></path><path d="M728 297L772 265.1L713 257.1Z" fill="#ed1b76" stroke="#ed1b76"></path><path d="M725 209.3L757 206.3L717 174.4Z" fill="#382f66" stroke="#382f66"></path><path d="M763 334.9L728 339.9L767 384.7Z" fill="#ed1b76" stroke="#ed1b76"></path><path d="M171 600L233 600L216 564.1Z" fill="#051a2f" stroke="#051a2f"></path><path d="M216 564.1L233 600L277 564.1Z" fill="#0d2343" stroke="#0d2343"></path><path d="M96 350.9L93 388.7L130 393.7Z" fill="#00101c" stroke="#00101c"></path><path d="M767 384.7L721 378.7L718 425.6Z" fill="#202a55" stroke="#202a55"></path><path d="M767 384.7L728 339.9L721 378.7Z" fill="#ed1b76" stroke="#ed1b76"></path><path d="M720 519.3L727 474.4L677 507.3Z" fill="#382f66" stroke="#382f66"></path><path d="M583 0L543 34.9L579 50.9Z" fill="#543274" stroke="#543274"></path><path d="M143 561.1L187 564.1L186 513.3Z" fill="#b22a84" stroke="#b22a84"></path><path d="M355 0L312 0L355 38.9Z" fill="#0d2343" stroke="#0d2343"></path><path d="M579 600L621 600L588 554.1Z" fill="#d1217f" stroke="#d1217f"></path><path d="M221 36.9L223 78.7L262 37.9Z" fill="#382f66" stroke="#382f66"></path><path d="M186 46.9L179 82.7L223 78.7Z" fill="#b22a84" stroke="#b22a84"></path><path d="M223 78.7L179 82.7L186 128.6Z" fill="#382f66" stroke="#382f66"></path><path d="M668 87.7L632 47.9L627 93.7Z" fill="#d1217f" stroke="#d1217f"></path><path d="M85 206.3L132 219.3L140 170.4Z" fill="#b22a84" stroke="#b22a84"></path><path d="M85 206.3L87 258.1L132 219.3Z" fill="#543274" stroke="#543274"></path><path d="M96 350.9L53 385.7L93 388.7Z" fill="#923083" stroke="#923083"></path><path d="M87 258.1L82 291L130 291Z" fill="#ed1b76" stroke="#ed1b76"></path><path d="M772 435.6L767 384.7L718 425.6Z" fill="#b22a84" stroke="#b22a84"></path><path d="M805 250.1L772 265.1L811 292Z" fill="#382f66" stroke="#382f66"></path><path d="M85 475.4L131 508.3L141 478.4Z" fill="#72327e" stroke="#72327e"></path><path d="M141 478.4L131 508.3L186 513.3Z" fill="#382f66" stroke="#382f66"></path><path d="M216 0L221 36.9L262 37.9Z" fill="#72327e" stroke="#72327e"></path><path d="M772 265.1L757 206.3L713 257.1Z" fill="#b22a84" stroke="#b22a84"></path><path d="M717 174.4L726 131.6L680 124.6Z" fill="#00101c" stroke="#00101c"></path><path d="M772 265.1L728 297L762 302Z" fill="#0d2343" stroke="#0d2343"></path><path d="M811 292L762 302L763 334.9Z" fill="#382f66" stroke="#382f66"></path><path d="M93 388.7L86 421.6L130 393.7Z" fill="#b22a84" stroke="#b22a84"></path><path d="M53 385.7L86 421.6L93 388.7Z" fill="#382f66" stroke="#382f66"></path><path d="M312 0L275 0L314 41.9Z" fill="#923083" stroke="#923083"></path><path d="M141 78.7L130 123.6L179 82.7Z" fill="#051a2f" stroke="#051a2f"></path><path d="M179 82.7L130 123.6L186 128.6Z" fill="#202a55" stroke="#202a55"></path><path d="M666 551.1L720 519.3L677 507.3Z" fill="#543274" stroke="#543274"></path><path d="M765 467.4L772 435.6L718 425.6Z" fill="#0d2343" stroke="#0d2343"></path><path d="M718 561.1L720 519.3L666 551.1Z" fill="#382f66" stroke="#382f66"></path><path d="M759 135.6L726 131.6L717 174.4Z" fill="#923083" stroke="#923083"></path><path d="M668 87.7L667 44.9L632 47.9Z" fill="#202a55" stroke="#202a55"></path><path d="M632 47.9L583 0L579 50.9Z" fill="#543274" stroke="#543274"></path><path d="M631 0L583 0L632 47.9Z" fill="#923083" stroke="#923083"></path><path d="M86 165.4L85 206.3L140 170.4Z" fill="#d1217f" stroke="#d1217f"></path><path d="M44 291L51 340.9L82 291Z" fill="#051a2f" stroke="#051a2f"></path><path d="M180 0L186 46.9L221 36.9Z" fill="#0d2343" stroke="#0d2343"></path><path d="M221 36.9L186 46.9L223 78.7Z" fill="#202a55" stroke="#202a55"></path><path d="M765 467.4L718 425.6L727 474.4Z" fill="#0d2343" stroke="#0d2343"></path><path d="M767 384.7L810 348.9L763 334.9Z" fill="#543274" stroke="#543274"></path><path d="M718 87.7L667 44.9L668 87.7Z" fill="#b22a84" stroke="#b22a84"></path><path d="M131 508.3L143 561.1L186 513.3Z" fill="#ed1b76" stroke="#ed1b76"></path><path d="M187 564.1L171 600L216 564.1Z" fill="#0d2343" stroke="#0d2343"></path><path d="M85 516.3L143 561.1L131 508.3Z" fill="#051a2f" stroke="#051a2f"></path><path d="M759 513.3L765 467.4L727 474.4Z" fill="#72327e" stroke="#72327e"></path><path d="M96 131.6L140 170.4L130 123.6Z" fill="#72327e" stroke="#72327e"></path><path d="M96 131.6L86 165.4L140 170.4Z" fill="#543274" stroke="#543274"></path><path d="M44 291L82 291L87 258.1Z" fill="#ed1b76" stroke="#ed1b76"></path><path d="M44 467.4L85 475.4L86 421.6Z" fill="#382f66" stroke="#382f66"></path><path d="M86 421.6L85 475.4L134 422.6Z" fill="#382f66" stroke="#382f66"></path><path d="M186 46.9L141 78.7L179 82.7Z" fill="#923083" stroke="#923083"></path><path d="M44 291L87 258.1L43 251.1Z" fill="#202a55" stroke="#202a55"></path><path d="M82 291L51 340.9L96 350.9Z" fill="#0d2343" stroke="#0d2343"></path><path d="M759 135.6L718 87.7L726 131.6Z" fill="#202a55" stroke="#202a55"></path><path d="M726 131.6L718 87.7L680 124.6Z" fill="#00101c" stroke="#00101c"></path><path d="M621 600L678 600L633 552.1Z" fill="#72327e" stroke="#72327e"></path><path d="M720 519.3L759 513.3L727 474.4Z" fill="#543274" stroke="#543274"></path><path d="M143 561.1L171 600L187 564.1Z" fill="#d1217f" stroke="#d1217f"></path><path d="M51 340.9L53 385.7L96 350.9Z" fill="#0d2343" stroke="#0d2343"></path><path d="M816 217.3L772 170.4L757 206.3Z" fill="#202a55" stroke="#202a55"></path><path d="M757 206.3L772 170.4L717 174.4Z" fill="#b22a84" stroke="#b22a84"></path><path d="M678 600L718 561.1L666 551.1Z" fill="#923083" stroke="#923083"></path><path d="M86 87.7L96 131.6L130 123.6Z" fill="#543274" stroke="#543274"></path><path d="M675 0L631 0L667 44.9Z" fill="#202a55" stroke="#202a55"></path><path d="M667 44.9L631 0L632 47.9Z" fill="#d1217f" stroke="#d1217f"></path><path d="M87 258.1L85 206.3L53 207.3Z" fill="#051a2f" stroke="#051a2f"></path><path d="M43 251.1L87 258.1L53 207.3Z" fill="#051a2f" stroke="#051a2f"></path><path d="M0 384.7L43 421.6L53 385.7Z" fill="#923083" stroke="#923083"></path><path d="M772 170.4L759 135.6L717 174.4Z" fill="#543274" stroke="#543274"></path><path d="M186 46.9L136 35.9L141 78.7Z" fill="#d1217f" stroke="#d1217f"></path><path d="M275 0L216 0L262 37.9Z" fill="#0d2343" stroke="#0d2343"></path><path d="M718 561.1L759 513.3L720 519.3Z" fill="#0d2343" stroke="#0d2343"></path><path d="M809 384.7L767 384.7L772 435.6Z" fill="#d1217f" stroke="#d1217f"></path><path d="M809 384.7L772 435.6L817 432.6Z" fill="#0d2343" stroke="#0d2343"></path><path d="M809 384.7L810 348.9L767 384.7Z" fill="#0d2343" stroke="#0d2343"></path><path d="M772 265.1L805 250.1L757 206.3Z" fill="#051a2f" stroke="#051a2f"></path><path d="M811 292L772 265.1L762 302Z" fill="#923083" stroke="#923083"></path><path d="M772 170.4L804 127.6L759 135.6Z" fill="#72327e" stroke="#72327e"></path><path d="M810 348.9L811 292L763 334.9Z" fill="#b22a84" stroke="#b22a84"></path><path d="M53 207.3L85 206.3L86 165.4Z" fill="#ed1b76" stroke="#ed1b76"></path><path d="M46 162.4L53 207.3L86 165.4Z" fill="#0d2343" stroke="#0d2343"></path><path d="M802 467.4L772 435.6L765 467.4Z" fill="#202a55" stroke="#202a55"></path><path d="M53 510.3L85 516.3L85 475.4Z" fill="#923083" stroke="#923083"></path><path d="M85 475.4L85 516.3L131 508.3Z" fill="#051a2f" stroke="#051a2f"></path><path d="M143 561.1L141 600L171 600Z" fill="#d1217f" stroke="#d1217f"></path><path d="M0 384.7L53 385.7L51 340.9Z" fill="#923083" stroke="#923083"></path><path d="M53 385.7L43 421.6L86 421.6Z" fill="#0d2343" stroke="#0d2343"></path><path d="M0 333.9L51 340.9L44 291Z" fill="#72327e" stroke="#72327e"></path><path d="M82 563.1L141 600L143 561.1Z" fill="#051a2f" stroke="#051a2f"></path><path d="M678 600L714 600L718 561.1Z" fill="#202a55" stroke="#202a55"></path><path d="M718 561.1L769 564.1L759 513.3Z" fill="#72327e" stroke="#72327e"></path><path d="M216 0L180 0L221 36.9Z" fill="#051a2f" stroke="#051a2f"></path><path d="M141 78.7L86 87.7L130 123.6Z" fill="#72327e" stroke="#72327e"></path><path d="M813 519.3L802 467.4L759 513.3Z" fill="#543274" stroke="#543274"></path><path d="M759 513.3L802 467.4L765 467.4Z" fill="#051a2f" stroke="#051a2f"></path><path d="M863 261.1L805 250.1L811 292Z" fill="#00101c" stroke="#00101c"></path><path d="M863 261.1L816 217.3L805 250.1Z" fill="#b22a84" stroke="#b22a84"></path><path d="M805 250.1L816 217.3L757 206.3Z" fill="#ed1b76" stroke="#ed1b76"></path><path d="M858 341.9L811 292L810 348.9Z" fill="#543274" stroke="#543274"></path><path d="M180 0L136 35.9L186 46.9Z" fill="#051a2f" stroke="#051a2f"></path><path d="M52 128.6L46 162.4L86 165.4Z" fill="#d1217f" stroke="#d1217f"></path><path d="M717 0L675 0L667 44.9Z" fill="#382f66" stroke="#382f66"></path><path d="M725 45.9L667 44.9L718 87.7Z" fill="#d1217f" stroke="#d1217f"></path><path d="M725 45.9L718 87.7L771 82.7Z" fill="#923083" stroke="#923083"></path><path d="M771 82.7L718 87.7L759 135.6Z" fill="#0d2343" stroke="#0d2343"></path><path d="M43 421.6L44 467.4L86 421.6Z" fill="#923083" stroke="#923083"></path><path d="M85 516.3L82 563.1L143 561.1Z" fill="#382f66" stroke="#382f66"></path><path d="M802 467.4L817 432.6L772 435.6Z" fill="#051a2f" stroke="#051a2f"></path><path d="M855 390.7L858 341.9L810 348.9Z" fill="#051a2f" stroke="#051a2f"></path><path d="M52 128.6L86 165.4L96 131.6Z" fill="#d1217f" stroke="#d1217f"></path><path d="M0 259.1L44 291L43 251.1Z" fill="#d1217f" stroke="#d1217f"></path><path d="M91 39.9L86 87.7L141 78.7Z" fill="#0d2343" stroke="#0d2343"></path><path d="M816 217.3L810 163.4L772 170.4Z" fill="#00101c" stroke="#00101c"></path><path d="M44 467.4L53 510.3L85 475.4Z" fill="#051a2f" stroke="#051a2f"></path><path d="M86 87.7L52 128.6L96 131.6Z" fill="#72327e" stroke="#72327e"></path><path d="M50 555.1L82 563.1L85 516.3Z" fill="#202a55" stroke="#202a55"></path><path d="M804 127.6L771 82.7L759 135.6Z" fill="#b22a84" stroke="#b22a84"></path><path d="M725 45.9L717 0L667 44.9Z" fill="#72327e" stroke="#72327e"></path><path d="M769 600L769 564.1L718 561.1Z" fill="#923083" stroke="#923083"></path><path d="M856 426.6L855 390.7L817 432.6Z" fill="#202a55" stroke="#202a55"></path><path d="M0 293L0 333.9L44 291Z" fill="#051a2f" stroke="#051a2f"></path><path d="M43 421.6L0 431.6L44 467.4Z" fill="#0d2343" stroke="#0d2343"></path><path d="M44 467.4L0 515.3L53 510.3Z" fill="#ed1b76" stroke="#ed1b76"></path><path d="M0 293L44 291L0 259.1Z" fill="#d1217f" stroke="#d1217f"></path><path d="M43 251.1L0 208.3L0 259.1Z" fill="#d1217f" stroke="#d1217f"></path><path d="M43 251.1L53 207.3L0 208.3Z" fill="#382f66" stroke="#382f66"></path><path d="M810 163.4L804 127.6L772 170.4Z" fill="#b22a84" stroke="#b22a84"></path><path d="M0 208.3L53 207.3L46 162.4Z" fill="#543274" stroke="#543274"></path><path d="M0 333.9L0 384.7L51 340.9Z" fill="#72327e" stroke="#72327e"></path><path d="M855 390.7L809 384.7L817 432.6Z" fill="#d1217f" stroke="#d1217f"></path><path d="M855 390.7L810 348.9L809 384.7Z" fill="#543274" stroke="#543274"></path><path d="M816 217.3L846 172.4L810 163.4Z" fill="#382f66" stroke="#382f66"></path><path d="M810 163.4L846 120.6L804 127.6Z" fill="#ed1b76" stroke="#ed1b76"></path><path d="M765 33.9L725 45.9L771 82.7Z" fill="#543274" stroke="#543274"></path><path d="M765 33.9L717 0L725 45.9Z" fill="#382f66" stroke="#382f66"></path><path d="M856 426.6L817 432.6L849 469.4Z" fill="#051a2f" stroke="#051a2f"></path><path d="M809 548.1L813 519.3L759 513.3Z" fill="#543274" stroke="#543274"></path><path d="M127 0L91 39.9L136 35.9Z" fill="#923083" stroke="#923083"></path><path d="M136 35.9L91 39.9L141 78.7Z" fill="#382f66" stroke="#382f66"></path><path d="M86 87.7L52 84.7L52 128.6Z" fill="#00101c" stroke="#00101c"></path><path d="M180 0L127 0L136 35.9Z" fill="#b22a84" stroke="#b22a84"></path><path d="M0 384.7L0 431.6L43 421.6Z" fill="#923083" stroke="#923083"></path><path d="M53 600L84 600L82 563.1Z" fill="#00101c" stroke="#00101c"></path><path d="M900 299L863 300L900 347.9Z" fill="#382f66" stroke="#382f66"></path><path d="M858 341.9L863 300L811 292Z" fill="#202a55" stroke="#202a55"></path><path d="M0 162.4L0 208.3L46 162.4Z" fill="#051a2f" stroke="#051a2f"></path><path d="M0 162.4L46 162.4L0 120.6Z" fill="#00101c" stroke="#00101c"></path><path d="M82 563.1L84 600L141 600Z" fill="#923083" stroke="#923083"></path><path d="M50 555.1L85 516.3L53 510.3Z" fill="#b22a84" stroke="#b22a84"></path><path d="M91 39.9L52 84.7L86 87.7Z" fill="#72327e" stroke="#72327e"></path><path d="M0 515.3L50 555.1L53 510.3Z" fill="#382f66" stroke="#382f66"></path><path d="M863 300L863 261.1L811 292Z" fill="#543274" stroke="#543274"></path><path d="M714 600L769 600L718 561.1Z" fill="#051a2f" stroke="#051a2f"></path><path d="M769 564.1L809 548.1L759 513.3Z" fill="#72327e" stroke="#72327e"></path><path d="M849 469.4L817 432.6L802 467.4Z" fill="#b22a84" stroke="#b22a84"></path><path d="M900 347.9L863 300L858 341.9Z" fill="#202a55" stroke="#202a55"></path><path d="M816 40.9L765 33.9L771 82.7Z" fill="#051a2f" stroke="#051a2f"></path><path d="M808 85.7L771 82.7L804 127.6Z" fill="#ed1b76" stroke="#ed1b76"></path><path d="M811 600L809 548.1L769 564.1Z" fill="#202a55" stroke="#202a55"></path><path d="M813 519.3L849 469.4L802 467.4Z" fill="#00101c" stroke="#00101c"></path><path d="M862 214.3L846 172.4L816 217.3Z" fill="#202a55" stroke="#202a55"></path><path d="M0 431.6L0 466.4L44 467.4Z" fill="#d1217f" stroke="#d1217f"></path><path d="M853 505.3L849 469.4L813 519.3Z" fill="#0d2343" stroke="#0d2343"></path><path d="M846 120.6L808 85.7L804 127.6Z" fill="#382f66" stroke="#382f66"></path><path d="M863 261.1L862 214.3L816 217.3Z" fill="#382f66" stroke="#382f66"></path><path d="M0 120.6L46 162.4L52 128.6Z" fill="#b22a84" stroke="#b22a84"></path><path d="M0 565.1L53 600L50 555.1Z" fill="#543274" stroke="#543274"></path><path d="M50 555.1L53 600L82 563.1Z" fill="#923083" stroke="#923083"></path><path d="M852 551.1L813 519.3L809 548.1Z" fill="#ed1b76" stroke="#ed1b76"></path><path d="M852 551.1L853 505.3L813 519.3Z" fill="#d1217f" stroke="#d1217f"></path><path d="M900 435.6L900 390.7L856 426.6Z" fill="#b22a84" stroke="#b22a84"></path><path d="M900 347.9L858 341.9L855 390.7Z" fill="#ed1b76" stroke="#ed1b76"></path><path d="M818 0L763 0L765 33.9Z" fill="#d1217f" stroke="#d1217f"></path><path d="M765 33.9L763 0L717 0Z" fill="#0d2343" stroke="#0d2343"></path><path d="M846 172.4L846 120.6L810 163.4Z" fill="#202a55" stroke="#202a55"></path><path d="M808 85.7L816 40.9L771 82.7Z" fill="#b22a84" stroke="#b22a84"></path><path d="M900 133.6L846 120.6L846 172.4Z" fill="#b22a84" stroke="#b22a84"></path><path d="M0 466.4L0 515.3L44 467.4Z" fill="#ed1b76" stroke="#ed1b76"></path><path d="M0 85.7L0 120.6L52 84.7Z" fill="#0d2343" stroke="#0d2343"></path><path d="M52 84.7L0 120.6L52 128.6Z" fill="#b22a84" stroke="#b22a84"></path><path d="M50 36.9L52 84.7L91 39.9Z" fill="#543274" stroke="#543274"></path><path d="M81 0L50 36.9L91 39.9Z" fill="#923083" stroke="#923083"></path><path d="M127 0L81 0L91 39.9Z" fill="#0d2343" stroke="#0d2343"></path><path d="M863 261.1L900 221.3L862 214.3Z" fill="#ed1b76" stroke="#ed1b76"></path><path d="M862 214.3L900 171.4L846 172.4Z" fill="#ed1b76" stroke="#ed1b76"></path><path d="M863 300L900 299L863 261.1Z" fill="#00101c" stroke="#00101c"></path><path d="M900 347.9L855 390.7L900 390.7Z" fill="#382f66" stroke="#382f66"></path><path d="M900 390.7L855 390.7L856 426.6Z" fill="#ed1b76" stroke="#ed1b76"></path><path d="M769 600L811 600L769 564.1Z" fill="#ed1b76" stroke="#ed1b76"></path><path d="M900 299L900 260.1L863 261.1Z" fill="#382f66" stroke="#382f66"></path><path d="M900 435.6L856 426.6L849 469.4Z" fill="#b22a84" stroke="#b22a84"></path><path d="M851 85.7L808 85.7L846 120.6Z" fill="#382f66" stroke="#382f66"></path><path d="M851 85.7L816 40.9L808 85.7Z" fill="#b22a84" stroke="#b22a84"></path><path d="M811 600L852 551.1L809 548.1Z" fill="#923083" stroke="#923083"></path><path d="M900 478.4L900 435.6L849 469.4Z" fill="#d1217f" stroke="#d1217f"></path><path d="M0 41.9L52 84.7L50 36.9Z" fill="#543274" stroke="#543274"></path><path d="M0 41.9L0 85.7L52 84.7Z" fill="#051a2f" stroke="#051a2f"></path><path d="M900 260.1L900 221.3L863 261.1Z" fill="#b22a84" stroke="#b22a84"></path><path d="M900 86.7L851 85.7L846 120.6Z" fill="#00101c" stroke="#00101c"></path><path d="M900 478.4L849 469.4L853 505.3Z" fill="#72327e" stroke="#72327e"></path><path d="M0 515.3L0 565.1L50 555.1Z" fill="#382f66" stroke="#382f66"></path><path d="M900 221.3L900 171.4L862 214.3Z" fill="#543274" stroke="#543274"></path><path d="M81 0L41 0L50 36.9Z" fill="#d1217f" stroke="#d1217f"></path><path d="M900 522.3L900 478.4L853 505.3Z" fill="#051a2f" stroke="#051a2f"></path><path d="M811 600L847 600L852 551.1Z" fill="#b22a84" stroke="#b22a84"></path><path d="M852 551.1L900 522.3L853 505.3Z" fill="#543274" stroke="#543274"></path><path d="M816 40.9L818 0L765 33.9Z" fill="#00101c" stroke="#00101c"></path><path d="M846 0L818 0L816 40.9Z" fill="#382f66" stroke="#382f66"></path><path d="M860 38.9L816 40.9L851 85.7Z" fill="#202a55" stroke="#202a55"></path><path d="M0 565.1L0 600L53 600Z" fill="#d1217f" stroke="#d1217f"></path><path d="M41 0L0 41.9L50 36.9Z" fill="#00101c" stroke="#00101c"></path><path d="M900 171.4L900 133.6L846 172.4Z" fill="#b22a84" stroke="#b22a84"></path><path d="M900 564.1L900 522.3L852 551.1Z" fill="#923083" stroke="#923083"></path><path d="M900 47.9L860 38.9L851 85.7Z" fill="#543274" stroke="#543274"></path><path d="M900 0L846 0L860 38.9Z" fill="#b22a84" stroke="#b22a84"></path><path d="M860 38.9L846 0L816 40.9Z" fill="#382f66" stroke="#382f66"></path><path d="M900 133.6L900 86.7L846 120.6Z" fill="#b22a84" stroke="#b22a84"></path><path d="M41 0L0 0L0 41.9Z" fill="#051a2f" stroke="#051a2f"></path><path d="M847 600L900 564.1L852 551.1Z" fill="#d1217f" stroke="#d1217f"></path><path d="M900 86.7L900 47.9L851 85.7Z" fill="#051a2f" stroke="#051a2f"></path><path d="M847 600L900 600L900 564.1Z" fill="#00101c" stroke="#00101c"></path><path d="M900 47.9L900 0L860 38.9Z" fill="#00101c" stroke="#00101c"></path></g></svg>