<svg width="750" height="450" viewBox="0 0 750 450" fill="none" xmlns="http://www.w3.org/2000/svg">
<rect width="750" height="450" fill="#005C99"/>
<path d="M363.5 195L511 196L422 323.5L305.5 323L217 196L363.5 195Z" fill="#1D073B"/>
<path d="M363.5 194.5L364 44.5" stroke="#00B4C5"/>
<path d="M410.5 228.5L553.5 182" stroke="#00B4C5"/>
<path d="M392.5 284L481 405" stroke="#00B4C5"/>
<path d="M334.5 283.5L246.5 405" stroke="#00B4C5"/>
<path d="M316.5 228.5L174 182" stroke="#00B4C5"/>
<path d="M553.412 182.191L481.137 405H246.567L174.587 182.191L364 44.618L553.412 182.191Z" stroke="#00B4C5"/>
<path d="M410.412 228.691L392.512 283.875H334.415L316.587 228.691L363.5 194.618L410.412 228.691Z" stroke="#00B4C5"/>
<path d="M315.414 35.3281L318.227 40H320.836L316.867 33.6562L320.695 28.625H318.008L315.242 32.4453L314.211 33.8359V28.625H312.008V40H314.211V36.6484L315.414 35.3281ZM327.781 31.3906C327.214 31.3906 326.69 31.5286 326.211 31.8047C325.732 32.0755 325.32 32.4505 324.977 32.9297L324.961 32.7422L324.875 31.5469H322.852V40H325.023V34.9219C325.122 34.6823 325.247 34.474 325.398 34.2969C325.549 34.1198 325.732 33.974 325.945 33.8594C326.122 33.7604 326.323 33.6875 326.547 33.6406C326.776 33.5885 327.031 33.5625 327.312 33.5625C327.583 33.5625 327.867 33.5807 328.164 33.6172C328.466 33.6484 328.76 33.6979 329.047 33.7656L329.367 31.6016C329.195 31.5495 328.969 31.5026 328.688 31.4609C328.411 31.4141 328.109 31.3906 327.781 31.3906ZM335.422 40.1562C336.24 40.1562 336.948 39.9974 337.547 39.6797C338.146 39.362 338.583 39.0078 338.859 38.6172L337.773 37.4453C337.523 37.7682 337.198 38.0104 336.797 38.1719C336.396 38.3333 335.982 38.4141 335.555 38.4141C335.253 38.4141 334.974 38.3672 334.719 38.2734C334.464 38.1797 334.237 38.0469 334.039 37.875C333.846 37.7083 333.693 37.5234 333.578 37.3203C333.464 37.112 333.37 36.8385 333.297 36.5V36.4766H339.031V35.5547C339.031 34.9349 338.945 34.3698 338.773 33.8594C338.602 33.3438 338.352 32.9036 338.023 32.5391C337.69 32.1745 337.284 31.8932 336.805 31.6953C336.331 31.4922 335.789 31.3906 335.18 31.3906C334.591 31.3906 334.047 31.4974 333.547 31.7109C333.047 31.9245 332.615 32.224 332.25 32.6094C331.885 32.9948 331.602 33.4557 331.398 33.9922C331.195 34.5234 331.094 35.112 331.094 35.7578V36.0703C331.094 36.638 331.195 37.1719 331.398 37.6719C331.607 38.1667 331.901 38.5964 332.281 38.9609C332.661 39.3307 333.117 39.6224 333.648 39.8359C334.18 40.0495 334.771 40.1562 335.422 40.1562ZM335.164 33.1484C335.44 33.1484 335.682 33.1927 335.891 33.2812C336.104 33.3646 336.284 33.4792 336.43 33.625C336.576 33.776 336.69 33.9531 336.773 34.1562C336.857 34.3594 336.898 34.5755 336.898 34.8047V34.9766H333.336C333.388 34.7005 333.466 34.4505 333.57 34.2266C333.674 34.0026 333.805 33.8099 333.961 33.6484C334.112 33.487 334.289 33.3646 334.492 33.2812C334.695 33.1927 334.919 33.1484 335.164 33.1484ZM346.211 40H348.414V39.8672C348.305 39.6536 348.221 39.3984 348.164 39.1016C348.107 38.8047 348.078 38.4297 348.078 37.9766V34.3516C348.078 33.862 347.987 33.4323 347.805 33.0625C347.622 32.6875 347.37 32.3776 347.047 32.1328C346.724 31.888 346.341 31.7031 345.898 31.5781C345.461 31.4531 344.987 31.3906 344.477 31.3906C343.909 31.3906 343.404 31.4635 342.961 31.6094C342.523 31.75 342.154 31.9427 341.852 32.1875C341.544 32.4323 341.31 32.7161 341.148 33.0391C340.992 33.362 340.914 33.7031 340.914 34.0625H343.086C343.086 33.9115 343.107 33.7734 343.148 33.6484C343.195 33.5234 343.266 33.4167 343.359 33.3281C343.464 33.2292 343.599 33.1536 343.766 33.1016C343.932 33.0443 344.13 33.0156 344.359 33.0156C344.62 33.0156 344.846 33.0495 345.039 33.1172C345.237 33.1797 345.401 33.2708 345.531 33.3906C345.656 33.5052 345.75 33.6432 345.812 33.8047C345.875 33.9609 345.906 34.138 345.906 34.3359V34.8359H344.695C344.07 34.8359 343.516 34.8932 343.031 35.0078C342.552 35.1172 342.148 35.2786 341.82 35.4922C341.456 35.7266 341.182 36.026 341 36.3906C340.818 36.75 340.727 37.1641 340.727 37.6328C340.727 37.9974 340.799 38.3359 340.945 38.6484C341.091 38.9557 341.294 39.2214 341.555 39.4453C341.815 39.6693 342.125 39.8438 342.484 39.9688C342.849 40.0938 343.247 40.1562 343.68 40.1562C343.945 40.1562 344.193 40.1302 344.422 40.0781C344.651 40.0312 344.862 39.9635 345.055 39.875C345.242 39.7917 345.414 39.6927 345.57 39.5781C345.727 39.4635 345.865 39.3411 345.984 39.2109C346.01 39.362 346.042 39.5052 346.078 39.6406C346.115 39.776 346.159 39.8958 346.211 40ZM344.141 38.4766C343.938 38.4766 343.758 38.4531 343.602 38.4062C343.451 38.3542 343.323 38.2865 343.219 38.2031C343.115 38.1146 343.034 38.0078 342.977 37.8828C342.924 37.7526 342.898 37.612 342.898 37.4609C342.898 37.2682 342.935 37.0911 343.008 36.9297C343.081 36.763 343.193 36.6198 343.344 36.5C343.495 36.3854 343.69 36.2969 343.93 36.2344C344.169 36.1667 344.458 36.1328 344.797 36.1328H345.906V37.5859C345.844 37.6953 345.758 37.8047 345.648 37.9141C345.539 38.0182 345.409 38.112 345.258 38.1953C345.107 38.2786 344.938 38.3464 344.75 38.3984C344.562 38.4505 344.359 38.4766 344.141 38.4766ZM354.523 29.4766H352.352V31.5469H350.422V33.1484H352.352V36.9922C352.352 37.5495 352.424 38.0286 352.57 38.4297C352.716 38.8255 352.924 39.151 353.195 39.4062C353.461 39.6667 353.781 39.8594 354.156 39.9844C354.536 40.1042 354.958 40.1641 355.422 40.1641C355.661 40.1641 355.904 40.151 356.148 40.125C356.398 40.1042 356.638 40.0729 356.867 40.0312C357.096 39.9896 357.312 39.9375 357.516 39.875C357.719 39.8073 357.896 39.7292 358.047 39.6406L357.836 38.1484C357.737 38.1745 357.617 38.2005 357.477 38.2266C357.341 38.2526 357.195 38.276 357.039 38.2969C356.878 38.3229 356.708 38.3438 356.531 38.3594C356.359 38.375 356.19 38.3828 356.023 38.3828C355.794 38.3828 355.586 38.3568 355.398 38.3047C355.216 38.2526 355.06 38.1641 354.93 38.0391C354.799 37.9193 354.698 37.7578 354.625 37.5547C354.557 37.3464 354.523 37.0885 354.523 36.7812V33.1484H357.68V31.5469H354.523V29.4766ZM360.727 31.5469V33.3203H363.133V38.2344H360.727V40H367.617V38.2344H365.328V31.5469H360.727ZM362.977 29.3828C362.977 29.5495 363.005 29.7057 363.062 29.8516C363.125 29.9922 363.211 30.112 363.32 30.2109C363.43 30.3151 363.56 30.3958 363.711 30.4531C363.867 30.5104 364.039 30.5391 364.227 30.5391C364.612 30.5391 364.917 30.4323 365.141 30.2188C365.37 30 365.484 29.7214 365.484 29.3828C365.484 29.0443 365.37 28.7682 365.141 28.5547C364.917 28.3359 364.612 28.2266 364.227 28.2266C364.039 28.2266 363.867 28.2552 363.711 28.3125C363.56 28.3698 363.43 28.4479 363.32 28.5469C363.211 28.651 363.125 28.776 363.062 28.9219C363.005 29.0625 362.977 29.2161 362.977 29.3828ZM372.445 40H374.484L377.695 31.5469H375.43L373.578 37.5078L373.461 38.1016L373.344 37.5078L371.484 31.5469H369.219L372.445 40ZM379.945 31.5469V33.3203H382.352V38.2344H379.945V40H386.836V38.2344H384.547V31.5469H379.945ZM382.195 29.3828C382.195 29.5495 382.224 29.7057 382.281 29.8516C382.344 29.9922 382.43 30.112 382.539 30.2109C382.648 30.3151 382.779 30.3958 382.93 30.4531C383.086 30.5104 383.258 30.5391 383.445 30.5391C383.831 30.5391 384.135 30.4323 384.359 30.2188C384.589 30 384.703 29.7214 384.703 29.3828C384.703 29.0443 384.589 28.7682 384.359 28.5547C384.135 28.3359 383.831 28.2266 383.445 28.2266C383.258 28.2266 383.086 28.2552 382.93 28.3125C382.779 28.3698 382.648 28.4479 382.539 28.5469C382.43 28.651 382.344 28.776 382.281 28.9219C382.224 29.0625 382.195 29.2161 382.195 29.3828ZM392.961 29.4766H390.789V31.5469H388.859V33.1484H390.789V36.9922C390.789 37.5495 390.862 38.0286 391.008 38.4297C391.154 38.8255 391.362 39.151 391.633 39.4062C391.898 39.6667 392.219 39.8594 392.594 39.9844C392.974 40.1042 393.396 40.1641 393.859 40.1641C394.099 40.1641 394.341 40.151 394.586 40.125C394.836 40.1042 395.076 40.0729 395.305 40.0312C395.534 39.9896 395.75 39.9375 395.953 39.875C396.156 39.8073 396.333 39.7292 396.484 39.6406L396.273 38.1484C396.174 38.1745 396.055 38.2005 395.914 38.2266C395.779 38.2526 395.633 38.276 395.477 38.2969C395.315 38.3229 395.146 38.3438 394.969 38.3594C394.797 38.375 394.628 38.3828 394.461 38.3828C394.232 38.3828 394.023 38.3568 393.836 38.3047C393.654 38.2526 393.497 38.1641 393.367 38.0391C393.237 37.9193 393.135 37.7578 393.062 37.5547C392.995 37.3464 392.961 37.0885 392.961 36.7812V33.1484H396.117V31.5469H392.961V29.4766ZM403.867 40H406.07V39.8672C405.961 39.6536 405.878 39.3984 405.82 39.1016C405.763 38.8047 405.734 38.4297 405.734 37.9766V34.3516C405.734 33.862 405.643 33.4323 405.461 33.0625C405.279 32.6875 405.026 32.3776 404.703 32.1328C404.38 31.888 403.997 31.7031 403.555 31.5781C403.117 31.4531 402.643 31.3906 402.133 31.3906C401.565 31.3906 401.06 31.4635 400.617 31.6094C400.18 31.75 399.81 31.9427 399.508 32.1875C399.201 32.4323 398.966 32.7161 398.805 33.0391C398.648 33.362 398.57 33.7031 398.57 34.0625H400.742C400.742 33.9115 400.763 33.7734 400.805 33.6484C400.852 33.5234 400.922 33.4167 401.016 33.3281C401.12 33.2292 401.255 33.1536 401.422 33.1016C401.589 33.0443 401.786 33.0156 402.016 33.0156C402.276 33.0156 402.503 33.0495 402.695 33.1172C402.893 33.1797 403.057 33.2708 403.188 33.3906C403.312 33.5052 403.406 33.6432 403.469 33.8047C403.531 33.9609 403.562 34.138 403.562 34.3359V34.8359H402.352C401.727 34.8359 401.172 34.8932 400.688 35.0078C400.208 35.1172 399.805 35.2786 399.477 35.4922C399.112 35.7266 398.839 36.026 398.656 36.3906C398.474 36.75 398.383 37.1641 398.383 37.6328C398.383 37.9974 398.456 38.3359 398.602 38.6484C398.747 38.9557 398.951 39.2214 399.211 39.4453C399.471 39.6693 399.781 39.8438 400.141 39.9688C400.505 40.0938 400.904 40.1562 401.336 40.1562C401.602 40.1562 401.849 40.1302 402.078 40.0781C402.307 40.0312 402.518 39.9635 402.711 39.875C402.898 39.7917 403.07 39.6927 403.227 39.5781C403.383 39.4635 403.521 39.3411 403.641 39.2109C403.667 39.362 403.698 39.5052 403.734 39.6406C403.771 39.776 403.815 39.8958 403.867 40ZM401.797 38.4766C401.594 38.4766 401.414 38.4531 401.258 38.4062C401.107 38.3542 400.979 38.2865 400.875 38.2031C400.771 38.1146 400.69 38.0078 400.633 37.8828C400.581 37.7526 400.555 37.612 400.555 37.4609C400.555 37.2682 400.591 37.0911 400.664 36.9297C400.737 36.763 400.849 36.6198 401 36.5C401.151 36.3854 401.346 36.2969 401.586 36.2344C401.826 36.1667 402.115 36.1328 402.453 36.1328H403.562V37.5859C403.5 37.6953 403.414 37.8047 403.305 37.9141C403.195 38.0182 403.065 38.112 402.914 38.1953C402.763 38.2786 402.594 38.3464 402.406 38.3984C402.219 38.4505 402.016 38.4766 401.797 38.4766ZM399.164 29.125C399.164 29.401 399.263 29.6328 399.461 29.8203C399.664 30.0026 399.919 30.0938 400.227 30.0938C400.534 30.0938 400.786 30.0026 400.984 29.8203C401.188 29.6328 401.289 29.401 401.289 29.125C401.289 28.8542 401.19 28.625 400.992 28.4375C400.794 28.2448 400.539 28.1484 400.227 28.1484C399.914 28.1484 399.659 28.2448 399.461 28.4375C399.263 28.625 399.164 28.8542 399.164 29.125ZM402.914 29.125C402.914 29.4062 403.013 29.6406 403.211 29.8281C403.409 30.0156 403.664 30.1094 403.977 30.1094C404.289 30.1094 404.544 30.0156 404.742 29.8281C404.94 29.6406 405.039 29.4062 405.039 29.125C405.039 28.8594 404.94 28.6328 404.742 28.4453C404.549 28.2526 404.294 28.1562 403.977 28.1562C403.659 28.1562 403.401 28.2526 403.203 28.4453C403.01 28.6328 402.914 28.8594 402.914 29.125ZM412.18 29.4766H410.008V31.5469H408.078V33.1484H410.008V36.9922C410.008 37.5495 410.081 38.0286 410.227 38.4297C410.372 38.8255 410.581 39.151 410.852 39.4062C411.117 39.6667 411.438 39.8594 411.812 39.9844C412.193 40.1042 412.615 40.1641 413.078 40.1641C413.318 40.1641 413.56 40.151 413.805 40.125C414.055 40.1042 414.294 40.0729 414.523 40.0312C414.753 39.9896 414.969 39.9375 415.172 39.875C415.375 39.8073 415.552 39.7292 415.703 39.6406L415.492 38.1484C415.393 38.1745 415.273 38.2005 415.133 38.2266C414.997 38.2526 414.852 38.276 414.695 38.2969C414.534 38.3229 414.365 38.3438 414.188 38.3594C414.016 38.375 413.846 38.3828 413.68 38.3828C413.451 38.3828 413.242 38.3568 413.055 38.3047C412.872 38.2526 412.716 38.1641 412.586 38.0391C412.456 37.9193 412.354 37.7578 412.281 37.5547C412.214 37.3464 412.18 37.0885 412.18 36.7812V33.1484H415.336V31.5469H412.18V29.4766Z" fill="#1D073B"/>
<path d="M563.383 168.414V166.625H554.211V168.414H557.672V178H559.875V168.414H563.383ZM568.812 178.156C569.63 178.156 570.339 177.997 570.938 177.68C571.536 177.362 571.974 177.008 572.25 176.617L571.164 175.445C570.914 175.768 570.589 176.01 570.188 176.172C569.786 176.333 569.372 176.414 568.945 176.414C568.643 176.414 568.365 176.367 568.109 176.273C567.854 176.18 567.628 176.047 567.43 175.875C567.237 175.708 567.083 175.523 566.969 175.32C566.854 175.112 566.76 174.839 566.688 174.5V174.477H572.422V173.555C572.422 172.935 572.336 172.37 572.164 171.859C571.992 171.344 571.742 170.904 571.414 170.539C571.081 170.174 570.674 169.893 570.195 169.695C569.721 169.492 569.18 169.391 568.57 169.391C567.982 169.391 567.438 169.497 566.938 169.711C566.438 169.924 566.005 170.224 565.641 170.609C565.276 170.995 564.992 171.456 564.789 171.992C564.586 172.523 564.484 173.112 564.484 173.758V174.07C564.484 174.638 564.586 175.172 564.789 175.672C564.997 176.167 565.292 176.596 565.672 176.961C566.052 177.331 566.508 177.622 567.039 177.836C567.57 178.049 568.161 178.156 568.812 178.156ZM568.555 171.148C568.831 171.148 569.073 171.193 569.281 171.281C569.495 171.365 569.674 171.479 569.82 171.625C569.966 171.776 570.081 171.953 570.164 172.156C570.247 172.359 570.289 172.576 570.289 172.805V172.977H566.727C566.779 172.701 566.857 172.451 566.961 172.227C567.065 172.003 567.195 171.81 567.352 171.648C567.503 171.487 567.68 171.365 567.883 171.281C568.086 171.193 568.31 171.148 568.555 171.148ZM578.062 176.422C577.714 176.422 577.424 176.352 577.195 176.211C576.971 176.07 576.794 175.883 576.664 175.648C576.529 175.419 576.435 175.154 576.383 174.852C576.331 174.544 576.305 174.227 576.305 173.898V173.664C576.305 173.341 576.331 173.029 576.383 172.727C576.44 172.424 576.536 172.156 576.672 171.922C576.802 171.688 576.979 171.5 577.203 171.359C577.427 171.219 577.711 171.148 578.055 171.148C578.289 171.148 578.505 171.19 578.703 171.273C578.901 171.352 579.07 171.458 579.211 171.594C579.352 171.729 579.458 171.891 579.531 172.078C579.604 172.266 579.635 172.464 579.625 172.672H581.672C581.682 172.172 581.599 171.721 581.422 171.32C581.245 170.914 580.997 170.568 580.68 170.281C580.357 170 579.974 169.781 579.531 169.625C579.089 169.469 578.607 169.391 578.086 169.391C577.435 169.391 576.862 169.503 576.367 169.727C575.878 169.951 575.466 170.255 575.133 170.641C574.799 171.026 574.549 171.479 574.383 172C574.216 172.516 574.133 173.07 574.133 173.664V173.898C574.133 174.492 574.216 175.049 574.383 175.57C574.555 176.086 574.807 176.536 575.141 176.922C575.469 177.307 575.88 177.612 576.375 177.836C576.87 178.055 577.445 178.164 578.102 178.164C578.586 178.164 579.044 178.089 579.477 177.938C579.914 177.781 580.297 177.568 580.625 177.297C580.953 177.026 581.211 176.703 581.398 176.328C581.591 175.953 581.682 175.547 581.672 175.109H579.625C579.635 175.307 579.599 175.487 579.516 175.648C579.438 175.81 579.326 175.948 579.18 176.062C579.034 176.177 578.865 176.266 578.672 176.328C578.479 176.391 578.276 176.422 578.062 176.422ZM586.102 170.711V166H583.93V178H586.102V171.898C586.185 171.789 586.276 171.69 586.375 171.602C586.479 171.513 586.594 171.438 586.719 171.375C586.854 171.302 587.005 171.247 587.172 171.211C587.339 171.174 587.518 171.156 587.711 171.156C587.961 171.156 588.185 171.19 588.383 171.258C588.581 171.32 588.75 171.419 588.891 171.555C589.031 171.69 589.138 171.867 589.211 172.086C589.289 172.305 589.328 172.565 589.328 172.867V178H591.5V172.883C591.5 172.263 591.424 171.734 591.273 171.297C591.128 170.854 590.922 170.492 590.656 170.211C590.391 169.93 590.073 169.724 589.703 169.594C589.333 169.458 588.927 169.391 588.484 169.391C588.182 169.391 587.896 169.435 587.625 169.523C587.354 169.612 587.107 169.737 586.883 169.898C586.737 170.003 586.596 170.125 586.461 170.266C586.331 170.401 586.211 170.549 586.102 170.711ZM593.539 178H595.719V171.992C595.792 171.878 595.872 171.773 595.961 171.68C596.049 171.586 596.148 171.505 596.258 171.438C596.393 171.344 596.547 171.273 596.719 171.227C596.896 171.18 597.089 171.156 597.297 171.156C597.547 171.156 597.771 171.182 597.969 171.234C598.167 171.281 598.336 171.367 598.477 171.492C598.617 171.617 598.724 171.789 598.797 172.008C598.875 172.221 598.914 172.495 598.914 172.828V178H601.086V172.797C601.086 172.182 601.013 171.661 600.867 171.234C600.727 170.802 600.529 170.448 600.273 170.172C600.013 169.901 599.706 169.703 599.352 169.578C598.997 169.453 598.607 169.391 598.18 169.391C597.846 169.391 597.531 169.438 597.234 169.531C596.938 169.625 596.664 169.76 596.414 169.938C596.268 170.042 596.13 170.159 596 170.289C595.87 170.419 595.75 170.562 595.641 170.719L595.508 169.547H593.539V178ZM603.727 169.547V171.32H606.133V176.234H603.727V178H610.617V176.234H608.328V169.547H603.727ZM605.977 167.383C605.977 167.549 606.005 167.706 606.062 167.852C606.125 167.992 606.211 168.112 606.32 168.211C606.43 168.315 606.56 168.396 606.711 168.453C606.867 168.51 607.039 168.539 607.227 168.539C607.612 168.539 607.917 168.432 608.141 168.219C608.37 168 608.484 167.721 608.484 167.383C608.484 167.044 608.37 166.768 608.141 166.555C607.917 166.336 607.612 166.227 607.227 166.227C607.039 166.227 606.867 166.255 606.711 166.312C606.56 166.37 606.43 166.448 606.32 166.547C606.211 166.651 606.125 166.776 606.062 166.922C606.005 167.062 605.977 167.216 605.977 167.383ZM615.938 174.508L618.336 178H621L617.367 173.07L620.555 169.547H617.945L615.609 172.109L614.953 172.859V166H612.781V178H614.953V175.422L615.938 174.508Z" fill="#1D073B"/>
<path d="M423.414 417.328L426.227 422H428.836L424.867 415.656L428.695 410.625H426.008L423.242 414.445L422.211 415.836V410.625H420.008V422H422.211V418.648L423.414 417.328ZM429.414 417.695V417.859C429.414 418.479 429.503 419.052 429.68 419.578C429.857 420.099 430.117 420.552 430.461 420.938C430.799 421.323 431.216 421.625 431.711 421.844C432.211 422.057 432.779 422.164 433.414 422.164C434.044 422.164 434.607 422.057 435.102 421.844C435.596 421.625 436.013 421.323 436.352 420.938C436.69 420.552 436.948 420.099 437.125 419.578C437.302 419.052 437.391 418.479 437.391 417.859V417.695C437.391 417.081 437.302 416.513 437.125 415.992C436.948 415.466 436.69 415.01 436.352 414.625C436.008 414.24 435.589 413.938 435.094 413.719C434.599 413.5 434.034 413.391 433.398 413.391C432.763 413.391 432.198 413.5 431.703 413.719C431.214 413.938 430.799 414.24 430.461 414.625C430.117 415.01 429.857 415.466 429.68 415.992C429.503 416.513 429.414 417.081 429.414 417.695ZM431.586 417.859V417.695C431.586 417.352 431.62 417.026 431.688 416.719C431.755 416.411 431.862 416.141 432.008 415.906C432.154 415.672 432.341 415.487 432.57 415.352C432.799 415.216 433.076 415.148 433.398 415.148C433.727 415.148 434.005 415.216 434.234 415.352C434.464 415.487 434.651 415.672 434.797 415.906C434.938 416.141 435.042 416.411 435.109 416.719C435.177 417.026 435.211 417.352 435.211 417.695V417.859C435.211 418.214 435.177 418.547 435.109 418.859C435.042 419.167 434.938 419.435 434.797 419.664C434.651 419.898 434.464 420.083 434.234 420.219C434.005 420.354 433.732 420.422 433.414 420.422C433.086 420.422 432.805 420.354 432.57 420.219C432.341 420.083 432.154 419.898 432.008 419.664C431.862 419.435 431.755 419.167 431.688 418.859C431.62 418.547 431.586 418.214 431.586 417.859ZM440.672 413.547H438.805V422H440.781V415.672C440.807 415.604 440.836 415.542 440.867 415.484C440.898 415.427 440.935 415.378 440.977 415.336C441.034 415.279 441.099 415.234 441.172 415.203C441.245 415.172 441.328 415.156 441.422 415.156C441.505 415.156 441.583 415.169 441.656 415.195C441.729 415.216 441.794 415.255 441.852 415.312C441.904 415.37 441.945 415.451 441.977 415.555C442.008 415.659 442.023 415.792 442.023 415.953V422H443.938V415.766C443.938 415.703 443.938 415.654 443.938 415.617C443.938 415.581 443.938 415.557 443.938 415.547C443.964 415.49 443.995 415.44 444.031 415.398C444.068 415.352 444.109 415.31 444.156 415.273C444.214 415.237 444.273 415.208 444.336 415.188C444.404 415.167 444.479 415.156 444.562 415.156C444.641 415.156 444.716 415.169 444.789 415.195C444.867 415.216 444.935 415.255 444.992 415.312C445.049 415.375 445.094 415.458 445.125 415.562C445.161 415.667 445.18 415.799 445.18 415.961V422H447.156V415.969C447.156 415.5 447.109 415.104 447.016 414.781C446.927 414.453 446.802 414.185 446.641 413.977C446.474 413.773 446.279 413.625 446.055 413.531C445.836 413.438 445.599 413.391 445.344 413.391C445.141 413.391 444.953 413.417 444.781 413.469C444.609 413.521 444.456 413.594 444.32 413.688C444.211 413.76 444.109 413.849 444.016 413.953C443.927 414.052 443.846 414.164 443.773 414.289C443.727 414.159 443.669 414.044 443.602 413.945C443.539 413.841 443.464 413.753 443.375 413.68C443.26 413.581 443.125 413.508 442.969 413.461C442.812 413.414 442.635 413.391 442.438 413.391C442.031 413.391 441.685 413.497 441.398 413.711C441.117 413.919 440.896 414.206 440.734 414.57L440.672 413.547ZM450.281 413.547H448.414V422H450.391V415.672C450.417 415.604 450.445 415.542 450.477 415.484C450.508 415.427 450.544 415.378 450.586 415.336C450.643 415.279 450.708 415.234 450.781 415.203C450.854 415.172 450.938 415.156 451.031 415.156C451.115 415.156 451.193 415.169 451.266 415.195C451.339 415.216 451.404 415.255 451.461 415.312C451.513 415.37 451.555 415.451 451.586 415.555C451.617 415.659 451.633 415.792 451.633 415.953V422H453.547V415.766C453.547 415.703 453.547 415.654 453.547 415.617C453.547 415.581 453.547 415.557 453.547 415.547C453.573 415.49 453.604 415.44 453.641 415.398C453.677 415.352 453.719 415.31 453.766 415.273C453.823 415.237 453.883 415.208 453.945 415.188C454.013 415.167 454.089 415.156 454.172 415.156C454.25 415.156 454.326 415.169 454.398 415.195C454.477 415.216 454.544 415.255 454.602 415.312C454.659 415.375 454.703 415.458 454.734 415.562C454.771 415.667 454.789 415.799 454.789 415.961V422H456.766V415.969C456.766 415.5 456.719 415.104 456.625 414.781C456.536 414.453 456.411 414.185 456.25 413.977C456.083 413.773 455.888 413.625 455.664 413.531C455.445 413.438 455.208 413.391 454.953 413.391C454.75 413.391 454.562 413.417 454.391 413.469C454.219 413.521 454.065 413.594 453.93 413.688C453.82 413.76 453.719 413.849 453.625 413.953C453.536 414.052 453.456 414.164 453.383 414.289C453.336 414.159 453.279 414.044 453.211 413.945C453.148 413.841 453.073 413.753 452.984 413.68C452.87 413.581 452.734 413.508 452.578 413.461C452.422 413.414 452.245 413.391 452.047 413.391C451.641 413.391 451.294 413.497 451.008 413.711C450.727 413.919 450.505 414.206 450.344 414.57L450.281 413.547ZM464.055 422H466.023V413.547H463.844V419.477C463.776 419.612 463.695 419.734 463.602 419.844C463.508 419.953 463.401 420.047 463.281 420.125C463.141 420.214 462.977 420.281 462.789 420.328C462.607 420.375 462.401 420.398 462.172 420.398C461.917 420.398 461.701 420.367 461.523 420.305C461.346 420.242 461.203 420.138 461.094 419.992C460.984 419.852 460.904 419.664 460.852 419.43C460.805 419.195 460.781 418.906 460.781 418.562V413.547H458.609V418.547C458.609 419.188 458.68 419.737 458.82 420.195C458.966 420.648 459.169 421.021 459.43 421.312C459.69 421.609 460.003 421.826 460.367 421.961C460.732 422.096 461.133 422.164 461.57 422.164C462.049 422.164 462.49 422.044 462.891 421.805C463.297 421.565 463.643 421.234 463.93 420.812L464.055 422ZM468.148 422H470.328V415.992C470.401 415.878 470.482 415.773 470.57 415.68C470.659 415.586 470.758 415.505 470.867 415.438C471.003 415.344 471.156 415.273 471.328 415.227C471.505 415.18 471.698 415.156 471.906 415.156C472.156 415.156 472.38 415.182 472.578 415.234C472.776 415.281 472.945 415.367 473.086 415.492C473.227 415.617 473.333 415.789 473.406 416.008C473.484 416.221 473.523 416.495 473.523 416.828V422H475.695V416.797C475.695 416.182 475.622 415.661 475.477 415.234C475.336 414.802 475.138 414.448 474.883 414.172C474.622 413.901 474.315 413.703 473.961 413.578C473.607 413.453 473.216 413.391 472.789 413.391C472.456 413.391 472.141 413.438 471.844 413.531C471.547 413.625 471.273 413.76 471.023 413.938C470.878 414.042 470.74 414.159 470.609 414.289C470.479 414.419 470.359 414.562 470.25 414.719L470.117 413.547H468.148V422ZM478.336 413.547V415.32H480.742V420.234H478.336V422H485.227V420.234H482.938V413.547H478.336ZM480.586 411.383C480.586 411.549 480.615 411.706 480.672 411.852C480.734 411.992 480.82 412.112 480.93 412.211C481.039 412.315 481.169 412.396 481.32 412.453C481.477 412.51 481.648 412.539 481.836 412.539C482.221 412.539 482.526 412.432 482.75 412.219C482.979 412 483.094 411.721 483.094 411.383C483.094 411.044 482.979 410.768 482.75 410.555C482.526 410.336 482.221 410.227 481.836 410.227C481.648 410.227 481.477 410.255 481.32 410.312C481.169 410.37 481.039 410.448 480.93 410.547C480.82 410.651 480.734 410.776 480.672 410.922C480.615 411.062 480.586 411.216 480.586 411.383ZM490.547 418.508L492.945 422H495.609L491.977 417.07L495.164 413.547H492.555L490.219 416.109L489.562 416.859V410H487.391V422H489.562V419.422L490.547 418.508ZM502.258 422H504.461V421.867C504.352 421.654 504.268 421.398 504.211 421.102C504.154 420.805 504.125 420.43 504.125 419.977V416.352C504.125 415.862 504.034 415.432 503.852 415.062C503.669 414.688 503.417 414.378 503.094 414.133C502.771 413.888 502.388 413.703 501.945 413.578C501.508 413.453 501.034 413.391 500.523 413.391C499.956 413.391 499.451 413.464 499.008 413.609C498.57 413.75 498.201 413.943 497.898 414.188C497.591 414.432 497.357 414.716 497.195 415.039C497.039 415.362 496.961 415.703 496.961 416.062H499.133C499.133 415.911 499.154 415.773 499.195 415.648C499.242 415.523 499.312 415.417 499.406 415.328C499.51 415.229 499.646 415.154 499.812 415.102C499.979 415.044 500.177 415.016 500.406 415.016C500.667 415.016 500.893 415.049 501.086 415.117C501.284 415.18 501.448 415.271 501.578 415.391C501.703 415.505 501.797 415.643 501.859 415.805C501.922 415.961 501.953 416.138 501.953 416.336V416.836H500.742C500.117 416.836 499.562 416.893 499.078 417.008C498.599 417.117 498.195 417.279 497.867 417.492C497.503 417.727 497.229 418.026 497.047 418.391C496.865 418.75 496.773 419.164 496.773 419.633C496.773 419.997 496.846 420.336 496.992 420.648C497.138 420.956 497.341 421.221 497.602 421.445C497.862 421.669 498.172 421.844 498.531 421.969C498.896 422.094 499.294 422.156 499.727 422.156C499.992 422.156 500.24 422.13 500.469 422.078C500.698 422.031 500.909 421.964 501.102 421.875C501.289 421.792 501.461 421.693 501.617 421.578C501.773 421.464 501.911 421.341 502.031 421.211C502.057 421.362 502.089 421.505 502.125 421.641C502.161 421.776 502.206 421.896 502.258 422ZM500.188 420.477C499.984 420.477 499.805 420.453 499.648 420.406C499.497 420.354 499.37 420.286 499.266 420.203C499.161 420.115 499.081 420.008 499.023 419.883C498.971 419.753 498.945 419.612 498.945 419.461C498.945 419.268 498.982 419.091 499.055 418.93C499.128 418.763 499.24 418.62 499.391 418.5C499.542 418.385 499.737 418.297 499.977 418.234C500.216 418.167 500.505 418.133 500.844 418.133H501.953V419.586C501.891 419.695 501.805 419.805 501.695 419.914C501.586 420.018 501.456 420.112 501.305 420.195C501.154 420.279 500.984 420.346 500.797 420.398C500.609 420.451 500.406 420.477 500.188 420.477ZM510.57 411.477H508.398V413.547H506.469V415.148H508.398V418.992C508.398 419.549 508.471 420.029 508.617 420.43C508.763 420.826 508.971 421.151 509.242 421.406C509.508 421.667 509.828 421.859 510.203 421.984C510.583 422.104 511.005 422.164 511.469 422.164C511.708 422.164 511.951 422.151 512.195 422.125C512.445 422.104 512.685 422.073 512.914 422.031C513.143 421.99 513.359 421.938 513.562 421.875C513.766 421.807 513.943 421.729 514.094 421.641L513.883 420.148C513.784 420.174 513.664 420.201 513.523 420.227C513.388 420.253 513.242 420.276 513.086 420.297C512.924 420.323 512.755 420.344 512.578 420.359C512.406 420.375 512.237 420.383 512.07 420.383C511.841 420.383 511.633 420.357 511.445 420.305C511.263 420.253 511.107 420.164 510.977 420.039C510.846 419.919 510.745 419.758 510.672 419.555C510.604 419.346 510.57 419.089 510.57 418.781V415.148H513.727V413.547H510.57V411.477ZM516.773 413.547V415.32H519.18V420.234H516.773V422H523.664V420.234H521.375V413.547H516.773ZM519.023 411.383C519.023 411.549 519.052 411.706 519.109 411.852C519.172 411.992 519.258 412.112 519.367 412.211C519.477 412.315 519.607 412.396 519.758 412.453C519.914 412.51 520.086 412.539 520.273 412.539C520.659 412.539 520.964 412.432 521.188 412.219C521.417 412 521.531 411.721 521.531 411.383C521.531 411.044 521.417 410.768 521.188 410.555C520.964 410.336 520.659 410.227 520.273 410.227C520.086 410.227 519.914 410.255 519.758 410.312C519.607 410.37 519.477 410.448 519.367 410.547C519.258 410.651 519.172 410.776 519.109 410.922C519.052 411.062 519.023 411.216 519.023 411.383ZM525.508 417.695V417.859C525.508 418.479 525.596 419.052 525.773 419.578C525.951 420.099 526.211 420.552 526.555 420.938C526.893 421.323 527.31 421.625 527.805 421.844C528.305 422.057 528.872 422.164 529.508 422.164C530.138 422.164 530.701 422.057 531.195 421.844C531.69 421.625 532.107 421.323 532.445 420.938C532.784 420.552 533.042 420.099 533.219 419.578C533.396 419.052 533.484 418.479 533.484 417.859V417.695C533.484 417.081 533.396 416.513 533.219 415.992C533.042 415.466 532.784 415.01 532.445 414.625C532.102 414.24 531.682 413.938 531.188 413.719C530.693 413.5 530.128 413.391 529.492 413.391C528.857 413.391 528.292 413.5 527.797 413.719C527.307 413.938 526.893 414.24 526.555 414.625C526.211 415.01 525.951 415.466 525.773 415.992C525.596 416.513 525.508 417.081 525.508 417.695ZM527.68 417.859V417.695C527.68 417.352 527.714 417.026 527.781 416.719C527.849 416.411 527.956 416.141 528.102 415.906C528.247 415.672 528.435 415.487 528.664 415.352C528.893 415.216 529.169 415.148 529.492 415.148C529.82 415.148 530.099 415.216 530.328 415.352C530.557 415.487 530.745 415.672 530.891 415.906C531.031 416.141 531.135 416.411 531.203 416.719C531.271 417.026 531.305 417.352 531.305 417.695V417.859C531.305 418.214 531.271 418.547 531.203 418.859C531.135 419.167 531.031 419.435 530.891 419.664C530.745 419.898 530.557 420.083 530.328 420.219C530.099 420.354 529.826 420.422 529.508 420.422C529.18 420.422 528.898 420.354 528.664 420.219C528.435 420.083 528.247 419.898 528.102 419.664C527.956 419.435 527.849 419.167 527.781 418.859C527.714 418.547 527.68 418.214 527.68 417.859ZM535.414 422H537.594V415.992C537.667 415.878 537.747 415.773 537.836 415.68C537.924 415.586 538.023 415.505 538.133 415.438C538.268 415.344 538.422 415.273 538.594 415.227C538.771 415.18 538.964 415.156 539.172 415.156C539.422 415.156 539.646 415.182 539.844 415.234C540.042 415.281 540.211 415.367 540.352 415.492C540.492 415.617 540.599 415.789 540.672 416.008C540.75 416.221 540.789 416.495 540.789 416.828V422H542.961V416.797C542.961 416.182 542.888 415.661 542.742 415.234C542.602 414.802 542.404 414.448 542.148 414.172C541.888 413.901 541.581 413.703 541.227 413.578C540.872 413.453 540.482 413.391 540.055 413.391C539.721 413.391 539.406 413.438 539.109 413.531C538.812 413.625 538.539 413.76 538.289 413.938C538.143 414.042 538.005 414.159 537.875 414.289C537.745 414.419 537.625 414.562 537.516 414.719L537.383 413.547H535.414V422Z" fill="#1D073B"/>
<path d="M210.242 417.289V415.508H205.367V412.414H210.852V410.625H203.164V422H205.367V417.289H210.242ZM212.414 417.695V417.859C212.414 418.479 212.503 419.052 212.68 419.578C212.857 420.099 213.117 420.552 213.461 420.938C213.799 421.323 214.216 421.625 214.711 421.844C215.211 422.057 215.779 422.164 216.414 422.164C217.044 422.164 217.607 422.057 218.102 421.844C218.596 421.625 219.013 421.323 219.352 420.938C219.69 420.552 219.948 420.099 220.125 419.578C220.302 419.052 220.391 418.479 220.391 417.859V417.695C220.391 417.081 220.302 416.513 220.125 415.992C219.948 415.466 219.69 415.01 219.352 414.625C219.008 414.24 218.589 413.938 218.094 413.719C217.599 413.5 217.034 413.391 216.398 413.391C215.763 413.391 215.198 413.5 214.703 413.719C214.214 413.938 213.799 414.24 213.461 414.625C213.117 415.01 212.857 415.466 212.68 415.992C212.503 416.513 212.414 417.081 212.414 417.695ZM214.586 417.859V417.695C214.586 417.352 214.62 417.026 214.688 416.719C214.755 416.411 214.862 416.141 215.008 415.906C215.154 415.672 215.341 415.487 215.57 415.352C215.799 415.216 216.076 415.148 216.398 415.148C216.727 415.148 217.005 415.216 217.234 415.352C217.464 415.487 217.651 415.672 217.797 415.906C217.938 416.141 218.042 416.411 218.109 416.719C218.177 417.026 218.211 417.352 218.211 417.695V417.859C218.211 418.214 218.177 418.547 218.109 418.859C218.042 419.167 217.938 419.435 217.797 419.664C217.651 419.898 217.464 420.083 217.234 420.219C217.005 420.354 216.732 420.422 216.414 420.422C216.086 420.422 215.805 420.354 215.57 420.219C215.341 420.083 215.154 419.898 215.008 419.664C214.862 419.435 214.755 419.167 214.688 418.859C214.62 418.547 214.586 418.214 214.586 417.859ZM228.391 413.391C227.823 413.391 227.299 413.529 226.82 413.805C226.341 414.076 225.93 414.451 225.586 414.93L225.57 414.742L225.484 413.547H223.461V422H225.633V416.922C225.732 416.682 225.857 416.474 226.008 416.297C226.159 416.12 226.341 415.974 226.555 415.859C226.732 415.76 226.932 415.688 227.156 415.641C227.385 415.589 227.641 415.562 227.922 415.562C228.193 415.562 228.477 415.581 228.773 415.617C229.076 415.648 229.37 415.698 229.656 415.766L229.977 413.602C229.805 413.549 229.578 413.503 229.297 413.461C229.021 413.414 228.719 413.391 228.391 413.391ZM237.383 419.68C237.383 419.81 237.349 419.93 237.281 420.039C237.219 420.148 237.122 420.245 236.992 420.328C236.857 420.411 236.682 420.479 236.469 420.531C236.26 420.578 236.016 420.602 235.734 420.602C235.5 420.602 235.271 420.578 235.047 420.531C234.828 420.484 234.633 420.409 234.461 420.305C234.289 420.206 234.148 420.076 234.039 419.914C233.93 419.747 233.867 419.549 233.852 419.32H231.781C231.781 419.664 231.865 420.008 232.031 420.352C232.203 420.69 232.453 420.992 232.781 421.258C233.109 421.529 233.516 421.747 234 421.914C234.49 422.081 235.052 422.164 235.688 422.164C236.266 422.164 236.789 422.102 237.258 421.977C237.727 421.846 238.128 421.667 238.461 421.438C238.789 421.208 239.042 420.938 239.219 420.625C239.401 420.307 239.492 419.961 239.492 419.586C239.492 419.18 239.401 418.831 239.219 418.539C239.042 418.242 238.794 417.99 238.477 417.781C238.159 417.578 237.781 417.411 237.344 417.281C236.906 417.151 236.432 417.044 235.922 416.961C235.568 416.909 235.276 416.849 235.047 416.781C234.818 416.708 234.638 416.628 234.508 416.539C234.372 416.456 234.279 416.362 234.227 416.258C234.174 416.148 234.148 416.031 234.148 415.906C234.148 415.781 234.177 415.664 234.234 415.555C234.297 415.44 234.385 415.341 234.5 415.258C234.625 415.164 234.786 415.091 234.984 415.039C235.182 414.987 235.414 414.961 235.68 414.961C235.992 414.961 236.258 415 236.477 415.078C236.701 415.156 236.878 415.26 237.008 415.391C237.102 415.49 237.172 415.602 237.219 415.727C237.266 415.846 237.289 415.977 237.289 416.117H239.461C239.461 415.727 239.375 415.365 239.203 415.031C239.031 414.698 238.784 414.409 238.461 414.164C238.133 413.924 237.734 413.737 237.266 413.602C236.797 413.461 236.268 413.391 235.68 413.391C235.117 413.391 234.612 413.461 234.164 413.602C233.716 413.742 233.336 413.932 233.023 414.172C232.711 414.411 232.471 414.69 232.305 415.008C232.138 415.326 232.055 415.659 232.055 416.008C232.055 416.367 232.135 416.685 232.297 416.961C232.464 417.237 232.693 417.479 232.984 417.688C233.276 417.901 233.625 418.083 234.031 418.234C234.443 418.38 234.896 418.503 235.391 418.602C235.781 418.674 236.104 418.747 236.359 418.82C236.615 418.893 236.82 418.971 236.977 419.055C237.128 419.143 237.232 419.237 237.289 419.336C237.352 419.435 237.383 419.549 237.383 419.68ZM245.281 420.422C244.932 420.422 244.643 420.352 244.414 420.211C244.19 420.07 244.013 419.883 243.883 419.648C243.747 419.419 243.654 419.154 243.602 418.852C243.549 418.544 243.523 418.227 243.523 417.898V417.664C243.523 417.341 243.549 417.029 243.602 416.727C243.659 416.424 243.755 416.156 243.891 415.922C244.021 415.688 244.198 415.5 244.422 415.359C244.646 415.219 244.93 415.148 245.273 415.148C245.508 415.148 245.724 415.19 245.922 415.273C246.12 415.352 246.289 415.458 246.43 415.594C246.57 415.729 246.677 415.891 246.75 416.078C246.823 416.266 246.854 416.464 246.844 416.672H248.891C248.901 416.172 248.818 415.721 248.641 415.32C248.464 414.914 248.216 414.568 247.898 414.281C247.576 414 247.193 413.781 246.75 413.625C246.307 413.469 245.826 413.391 245.305 413.391C244.654 413.391 244.081 413.503 243.586 413.727C243.096 413.951 242.685 414.255 242.352 414.641C242.018 415.026 241.768 415.479 241.602 416C241.435 416.516 241.352 417.07 241.352 417.664V417.898C241.352 418.492 241.435 419.049 241.602 419.57C241.773 420.086 242.026 420.536 242.359 420.922C242.688 421.307 243.099 421.612 243.594 421.836C244.089 422.055 244.664 422.164 245.32 422.164C245.805 422.164 246.263 422.089 246.695 421.938C247.133 421.781 247.516 421.568 247.844 421.297C248.172 421.026 248.43 420.703 248.617 420.328C248.81 419.953 248.901 419.547 248.891 419.109H246.844C246.854 419.307 246.818 419.487 246.734 419.648C246.656 419.81 246.544 419.948 246.398 420.062C246.253 420.177 246.083 420.266 245.891 420.328C245.698 420.391 245.495 420.422 245.281 420.422ZM253.32 414.711V410H251.148V422H253.32V415.898C253.404 415.789 253.495 415.69 253.594 415.602C253.698 415.513 253.812 415.438 253.938 415.375C254.073 415.302 254.224 415.247 254.391 415.211C254.557 415.174 254.737 415.156 254.93 415.156C255.18 415.156 255.404 415.19 255.602 415.258C255.799 415.32 255.969 415.419 256.109 415.555C256.25 415.69 256.357 415.867 256.43 416.086C256.508 416.305 256.547 416.565 256.547 416.867V422H258.719V416.883C258.719 416.263 258.643 415.734 258.492 415.297C258.346 414.854 258.141 414.492 257.875 414.211C257.609 413.93 257.292 413.724 256.922 413.594C256.552 413.458 256.146 413.391 255.703 413.391C255.401 413.391 255.115 413.435 254.844 413.523C254.573 413.612 254.326 413.737 254.102 413.898C253.956 414.003 253.815 414.125 253.68 414.266C253.549 414.401 253.43 414.549 253.32 414.711ZM266.273 422H268.242V413.547H266.062V419.477C265.995 419.612 265.914 419.734 265.82 419.844C265.727 419.953 265.62 420.047 265.5 420.125C265.359 420.214 265.195 420.281 265.008 420.328C264.826 420.375 264.62 420.398 264.391 420.398C264.135 420.398 263.919 420.367 263.742 420.305C263.565 420.242 263.422 420.138 263.312 419.992C263.203 419.852 263.122 419.664 263.07 419.43C263.023 419.195 263 418.906 263 418.562V413.547H260.828V418.547C260.828 419.188 260.898 419.737 261.039 420.195C261.185 420.648 261.388 421.021 261.648 421.312C261.909 421.609 262.221 421.826 262.586 421.961C262.951 422.096 263.352 422.164 263.789 422.164C264.268 422.164 264.708 422.044 265.109 421.805C265.516 421.565 265.862 421.234 266.148 420.812L266.273 422ZM270.367 422H272.547V415.992C272.62 415.878 272.701 415.773 272.789 415.68C272.878 415.586 272.977 415.505 273.086 415.438C273.221 415.344 273.375 415.273 273.547 415.227C273.724 415.18 273.917 415.156 274.125 415.156C274.375 415.156 274.599 415.182 274.797 415.234C274.995 415.281 275.164 415.367 275.305 415.492C275.445 415.617 275.552 415.789 275.625 416.008C275.703 416.221 275.742 416.495 275.742 416.828V422H277.914V416.797C277.914 416.182 277.841 415.661 277.695 415.234C277.555 414.802 277.357 414.448 277.102 414.172C276.841 413.901 276.534 413.703 276.18 413.578C275.826 413.453 275.435 413.391 275.008 413.391C274.674 413.391 274.359 413.438 274.062 413.531C273.766 413.625 273.492 413.76 273.242 413.938C273.096 414.042 272.958 414.159 272.828 414.289C272.698 414.419 272.578 414.562 272.469 414.719L272.336 413.547H270.367V422ZM279.758 417.711V417.875C279.758 418.49 279.836 419.06 279.992 419.586C280.154 420.107 280.383 420.557 280.68 420.938C280.977 421.318 281.333 421.617 281.75 421.836C282.172 422.049 282.646 422.156 283.172 422.156C283.438 422.156 283.685 422.128 283.914 422.07C284.148 422.013 284.362 421.932 284.555 421.828C284.685 421.755 284.807 421.672 284.922 421.578C285.036 421.484 285.146 421.38 285.25 421.266V421.75C285.25 422.036 285.208 422.294 285.125 422.523C285.047 422.753 284.932 422.945 284.781 423.102C284.615 423.273 284.406 423.404 284.156 423.492C283.911 423.581 283.63 423.625 283.312 423.625C283.115 423.625 282.922 423.604 282.734 423.562C282.552 423.526 282.375 423.469 282.203 423.391C282.026 423.312 281.857 423.211 281.695 423.086C281.534 422.966 281.383 422.826 281.242 422.664L280.266 423.984C280.448 424.219 280.667 424.419 280.922 424.586C281.177 424.758 281.448 424.898 281.734 425.008C282.021 425.117 282.31 425.198 282.602 425.25C282.893 425.302 283.167 425.328 283.422 425.328C284.016 425.328 284.557 425.247 285.047 425.086C285.542 424.93 285.966 424.698 286.32 424.391C286.669 424.083 286.94 423.706 287.133 423.258C287.331 422.81 287.43 422.299 287.43 421.727V413.547H285.453L285.367 414.352C285.263 414.221 285.148 414.104 285.023 414C284.898 413.891 284.763 413.797 284.617 413.719C284.424 413.609 284.208 413.529 283.969 413.477C283.734 413.419 283.474 413.391 283.188 413.391C282.656 413.391 282.18 413.495 281.758 413.703C281.336 413.911 280.977 414.206 280.68 414.586C280.383 414.966 280.154 415.422 279.992 415.953C279.836 416.484 279.758 417.07 279.758 417.711ZM281.938 417.875V417.711C281.938 417.357 281.974 417.026 282.047 416.719C282.12 416.406 282.232 416.133 282.383 415.898C282.529 415.669 282.714 415.49 282.938 415.359C283.161 415.224 283.427 415.156 283.734 415.156C283.901 415.156 284.055 415.172 284.195 415.203C284.341 415.234 284.474 415.279 284.594 415.336C284.734 415.404 284.859 415.492 284.969 415.602C285.078 415.711 285.172 415.839 285.25 415.984V419.562C285.177 419.693 285.091 419.81 284.992 419.914C284.893 420.018 284.779 420.107 284.648 420.18C284.523 420.247 284.383 420.299 284.227 420.336C284.076 420.372 283.906 420.391 283.719 420.391C283.411 420.391 283.146 420.326 282.922 420.195C282.698 420.065 282.513 419.885 282.367 419.656C282.221 419.432 282.112 419.169 282.039 418.867C281.971 418.56 281.938 418.229 281.938 417.875Z" fill="#1D073B"/>
<path d="M78.7656 178H80.75L81.7031 171.859L81.7891 171.281L81.875 171.859L82.8672 178H84.8516L86.4297 166.625H84.4141L83.6406 173L83.5859 173.477L83.5156 173.008L82.5625 166.625H80.9922L80.0938 172.961L80.0234 173.43L79.9688 172.984L79.2109 166.625H77.2031L78.7656 178ZM88.2891 169.547V171.32H90.6953V176.234H88.2891V178H95.1797V176.234H92.8906V169.547H88.2891ZM90.5391 167.383C90.5391 167.549 90.5677 167.706 90.625 167.852C90.6875 167.992 90.7734 168.112 90.8828 168.211C90.9922 168.315 91.1224 168.396 91.2734 168.453C91.4297 168.51 91.6016 168.539 91.7891 168.539C92.1745 168.539 92.4792 168.432 92.7031 168.219C92.9323 168 93.0469 167.721 93.0469 167.383C93.0469 167.044 92.9323 166.768 92.7031 166.555C92.4792 166.336 92.1745 166.227 91.7891 166.227C91.6016 166.227 91.4297 166.255 91.2734 166.312C91.1224 166.37 90.9922 166.448 90.8828 166.547C90.7734 166.651 90.6875 166.776 90.625 166.922C90.5677 167.062 90.5391 167.216 90.5391 167.383ZM103.391 169.391C102.823 169.391 102.299 169.529 101.82 169.805C101.341 170.076 100.93 170.451 100.586 170.93L100.57 170.742L100.484 169.547H98.4609V178H100.633V172.922C100.732 172.682 100.857 172.474 101.008 172.297C101.159 172.12 101.341 171.974 101.555 171.859C101.732 171.76 101.932 171.688 102.156 171.641C102.385 171.589 102.641 171.562 102.922 171.562C103.193 171.562 103.477 171.581 103.773 171.617C104.076 171.648 104.37 171.698 104.656 171.766L104.977 169.602C104.805 169.549 104.578 169.503 104.297 169.461C104.021 169.414 103.719 169.391 103.391 169.391ZM110.914 167.477H108.742V169.547H106.812V171.148H108.742V174.992C108.742 175.549 108.815 176.029 108.961 176.43C109.107 176.826 109.315 177.151 109.586 177.406C109.852 177.667 110.172 177.859 110.547 177.984C110.927 178.104 111.349 178.164 111.812 178.164C112.052 178.164 112.294 178.151 112.539 178.125C112.789 178.104 113.029 178.073 113.258 178.031C113.487 177.99 113.703 177.938 113.906 177.875C114.109 177.807 114.286 177.729 114.438 177.641L114.227 176.148C114.128 176.174 114.008 176.201 113.867 176.227C113.732 176.253 113.586 176.276 113.43 176.297C113.268 176.323 113.099 176.344 112.922 176.359C112.75 176.375 112.581 176.383 112.414 176.383C112.185 176.383 111.977 176.357 111.789 176.305C111.607 176.253 111.451 176.164 111.32 176.039C111.19 175.919 111.089 175.758 111.016 175.555C110.948 175.346 110.914 175.089 110.914 174.781V171.148H114.07V169.547H110.914V167.477ZM121.992 175.68C121.992 175.81 121.958 175.93 121.891 176.039C121.828 176.148 121.732 176.245 121.602 176.328C121.466 176.411 121.292 176.479 121.078 176.531C120.87 176.578 120.625 176.602 120.344 176.602C120.109 176.602 119.88 176.578 119.656 176.531C119.438 176.484 119.242 176.409 119.07 176.305C118.898 176.206 118.758 176.076 118.648 175.914C118.539 175.747 118.477 175.549 118.461 175.32H116.391C116.391 175.664 116.474 176.008 116.641 176.352C116.812 176.69 117.062 176.992 117.391 177.258C117.719 177.529 118.125 177.747 118.609 177.914C119.099 178.081 119.661 178.164 120.297 178.164C120.875 178.164 121.398 178.102 121.867 177.977C122.336 177.846 122.737 177.667 123.07 177.438C123.398 177.208 123.651 176.938 123.828 176.625C124.01 176.307 124.102 175.961 124.102 175.586C124.102 175.18 124.01 174.831 123.828 174.539C123.651 174.242 123.404 173.99 123.086 173.781C122.768 173.578 122.391 173.411 121.953 173.281C121.516 173.151 121.042 173.044 120.531 172.961C120.177 172.909 119.885 172.849 119.656 172.781C119.427 172.708 119.247 172.628 119.117 172.539C118.982 172.456 118.888 172.362 118.836 172.258C118.784 172.148 118.758 172.031 118.758 171.906C118.758 171.781 118.786 171.664 118.844 171.555C118.906 171.44 118.995 171.341 119.109 171.258C119.234 171.164 119.396 171.091 119.594 171.039C119.792 170.987 120.023 170.961 120.289 170.961C120.602 170.961 120.867 171 121.086 171.078C121.31 171.156 121.487 171.26 121.617 171.391C121.711 171.49 121.781 171.602 121.828 171.727C121.875 171.846 121.898 171.977 121.898 172.117H124.07C124.07 171.727 123.984 171.365 123.812 171.031C123.641 170.698 123.393 170.409 123.07 170.164C122.742 169.924 122.344 169.737 121.875 169.602C121.406 169.461 120.878 169.391 120.289 169.391C119.727 169.391 119.221 169.461 118.773 169.602C118.326 169.742 117.945 169.932 117.633 170.172C117.32 170.411 117.081 170.69 116.914 171.008C116.747 171.326 116.664 171.659 116.664 172.008C116.664 172.367 116.745 172.685 116.906 172.961C117.073 173.237 117.302 173.479 117.594 173.688C117.885 173.901 118.234 174.083 118.641 174.234C119.052 174.38 119.505 174.503 120 174.602C120.391 174.674 120.714 174.747 120.969 174.82C121.224 174.893 121.43 174.971 121.586 175.055C121.737 175.143 121.841 175.237 121.898 175.336C121.961 175.435 121.992 175.549 121.992 175.68ZM129.891 176.422C129.542 176.422 129.253 176.352 129.023 176.211C128.799 176.07 128.622 175.883 128.492 175.648C128.357 175.419 128.263 175.154 128.211 174.852C128.159 174.544 128.133 174.227 128.133 173.898V173.664C128.133 173.341 128.159 173.029 128.211 172.727C128.268 172.424 128.365 172.156 128.5 171.922C128.63 171.688 128.807 171.5 129.031 171.359C129.255 171.219 129.539 171.148 129.883 171.148C130.117 171.148 130.333 171.19 130.531 171.273C130.729 171.352 130.898 171.458 131.039 171.594C131.18 171.729 131.286 171.891 131.359 172.078C131.432 172.266 131.464 172.464 131.453 172.672H133.5C133.51 172.172 133.427 171.721 133.25 171.32C133.073 170.914 132.826 170.568 132.508 170.281C132.185 170 131.802 169.781 131.359 169.625C130.917 169.469 130.435 169.391 129.914 169.391C129.263 169.391 128.69 169.503 128.195 169.727C127.706 169.951 127.294 170.255 126.961 170.641C126.628 171.026 126.378 171.479 126.211 172C126.044 172.516 125.961 173.07 125.961 173.664V173.898C125.961 174.492 126.044 175.049 126.211 175.57C126.383 176.086 126.635 176.536 126.969 176.922C127.297 177.307 127.708 177.612 128.203 177.836C128.698 178.055 129.273 178.164 129.93 178.164C130.414 178.164 130.872 178.089 131.305 177.938C131.742 177.781 132.125 177.568 132.453 177.297C132.781 177.026 133.039 176.703 133.227 176.328C133.419 175.953 133.51 175.547 133.5 175.109H131.453C131.464 175.307 131.427 175.487 131.344 175.648C131.266 175.81 131.154 175.948 131.008 176.062C130.862 176.177 130.693 176.266 130.5 176.328C130.307 176.391 130.104 176.422 129.891 176.422ZM137.93 170.711V166H135.758V178H137.93V171.898C138.013 171.789 138.104 171.69 138.203 171.602C138.307 171.513 138.422 171.438 138.547 171.375C138.682 171.302 138.833 171.247 139 171.211C139.167 171.174 139.346 171.156 139.539 171.156C139.789 171.156 140.013 171.19 140.211 171.258C140.409 171.32 140.578 171.419 140.719 171.555C140.859 171.69 140.966 171.867 141.039 172.086C141.117 172.305 141.156 172.565 141.156 172.867V178H143.328V172.883C143.328 172.263 143.253 171.734 143.102 171.297C142.956 170.854 142.75 170.492 142.484 170.211C142.219 169.93 141.901 169.724 141.531 169.594C141.161 169.458 140.755 169.391 140.312 169.391C140.01 169.391 139.724 169.435 139.453 169.523C139.182 169.612 138.935 169.737 138.711 169.898C138.565 170.003 138.424 170.125 138.289 170.266C138.159 170.401 138.039 170.549 137.93 170.711ZM150.648 178H152.852V177.867C152.742 177.654 152.659 177.398 152.602 177.102C152.544 176.805 152.516 176.43 152.516 175.977V172.352C152.516 171.862 152.424 171.432 152.242 171.062C152.06 170.688 151.807 170.378 151.484 170.133C151.161 169.888 150.779 169.703 150.336 169.578C149.898 169.453 149.424 169.391 148.914 169.391C148.346 169.391 147.841 169.464 147.398 169.609C146.961 169.75 146.591 169.943 146.289 170.188C145.982 170.432 145.747 170.716 145.586 171.039C145.43 171.362 145.352 171.703 145.352 172.062H147.523C147.523 171.911 147.544 171.773 147.586 171.648C147.633 171.523 147.703 171.417 147.797 171.328C147.901 171.229 148.036 171.154 148.203 171.102C148.37 171.044 148.568 171.016 148.797 171.016C149.057 171.016 149.284 171.049 149.477 171.117C149.674 171.18 149.839 171.271 149.969 171.391C150.094 171.505 150.188 171.643 150.25 171.805C150.312 171.961 150.344 172.138 150.344 172.336V172.836H149.133C148.508 172.836 147.953 172.893 147.469 173.008C146.99 173.117 146.586 173.279 146.258 173.492C145.893 173.727 145.62 174.026 145.438 174.391C145.255 174.75 145.164 175.164 145.164 175.633C145.164 175.997 145.237 176.336 145.383 176.648C145.529 176.956 145.732 177.221 145.992 177.445C146.253 177.669 146.562 177.844 146.922 177.969C147.286 178.094 147.685 178.156 148.117 178.156C148.383 178.156 148.63 178.13 148.859 178.078C149.089 178.031 149.299 177.964 149.492 177.875C149.68 177.792 149.852 177.693 150.008 177.578C150.164 177.464 150.302 177.341 150.422 177.211C150.448 177.362 150.479 177.505 150.516 177.641C150.552 177.776 150.596 177.896 150.648 178ZM148.578 176.477C148.375 176.477 148.195 176.453 148.039 176.406C147.888 176.354 147.76 176.286 147.656 176.203C147.552 176.115 147.471 176.008 147.414 175.883C147.362 175.753 147.336 175.612 147.336 175.461C147.336 175.268 147.372 175.091 147.445 174.93C147.518 174.763 147.63 174.62 147.781 174.5C147.932 174.385 148.128 174.297 148.367 174.234C148.607 174.167 148.896 174.133 149.234 174.133H150.344V175.586C150.281 175.695 150.195 175.805 150.086 175.914C149.977 176.018 149.846 176.112 149.695 176.195C149.544 176.279 149.375 176.346 149.188 176.398C149 176.451 148.797 176.477 148.578 176.477ZM157.078 178H159.258V171.148H162.305V169.547H159.258V169.086C159.258 168.836 159.289 168.612 159.352 168.414C159.419 168.216 159.521 168.049 159.656 167.914C159.807 167.753 160.01 167.63 160.266 167.547C160.521 167.464 160.831 167.422 161.195 167.422C161.534 167.422 161.828 167.438 162.078 167.469C162.328 167.5 162.552 167.536 162.75 167.578L162.891 165.875C162.714 165.844 162.542 165.815 162.375 165.789C162.214 165.763 162.052 165.74 161.891 165.719C161.729 165.698 161.562 165.682 161.391 165.672C161.224 165.656 161.049 165.648 160.867 165.648C160.289 165.648 159.766 165.724 159.297 165.875C158.828 166.021 158.43 166.24 158.102 166.531C157.773 166.823 157.521 167.182 157.344 167.609C157.167 168.036 157.078 168.529 157.078 169.086V169.547H154.859V171.148H157.078V178ZM168.57 167.477H166.398V169.547H164.469V171.148H166.398V174.992C166.398 175.549 166.471 176.029 166.617 176.43C166.763 176.826 166.971 177.151 167.242 177.406C167.508 177.667 167.828 177.859 168.203 177.984C168.583 178.104 169.005 178.164 169.469 178.164C169.708 178.164 169.951 178.151 170.195 178.125C170.445 178.104 170.685 178.073 170.914 178.031C171.143 177.99 171.359 177.938 171.562 177.875C171.766 177.807 171.943 177.729 172.094 177.641L171.883 176.148C171.784 176.174 171.664 176.201 171.523 176.227C171.388 176.253 171.242 176.276 171.086 176.297C170.924 176.323 170.755 176.344 170.578 176.359C170.406 176.375 170.237 176.383 170.07 176.383C169.841 176.383 169.633 176.357 169.445 176.305C169.263 176.253 169.107 176.164 168.977 176.039C168.846 175.919 168.745 175.758 168.672 175.555C168.604 175.346 168.57 175.089 168.57 174.781V171.148H171.727V169.547H168.57V167.477Z" fill="#1D073B"/>
<path d="M458.412 212.191L422.387 323.25H305.465L269.587 212.191L364 143.618L458.412 212.191Z" stroke="#00B4C5"/>
<path d="M511.412 195.686L455.163 369.09H272.606L216.587 195.686L364 88.618L511.412 195.686Z" stroke="#00B4C5"/>
</svg>
