<svg id="visual" viewBox="0 0 900 600" width="900" height="600" xmlns="http://www.w3.org/2000/svg" xmlns:xlink="http://www.w3.org/1999/xlink" version="1.1"><g stroke-width="1" stroke-linejoin="bevel"><path d="M405 276L405 254.9L384 287.1Z" fill="#923083" stroke="#923083"></path><path d="M405 254.9L343 254.4L384 287.1Z" fill="#00101c" stroke="#00101c"></path><path d="M368 225.6L343 254.4L405 254.9Z" fill="#923083" stroke="#923083"></path><path d="M343 254.4L358 307.9L384 287.1Z" fill="#0d2343" stroke="#0d2343"></path><path d="M384 287.1L443 332.1L405 276Z" fill="#923083" stroke="#923083"></path><path d="M405 254.9L393 215L368 225.6Z" fill="#202a55" stroke="#202a55"></path><path d="M308 236L314 285.7L343 254.4Z" fill="#00101c" stroke="#00101c"></path><path d="M343 254.4L314 285.7L358 307.9Z" fill="#382f66" stroke="#382f66"></path><path d="M314 285.7L338 326.9L358 307.9Z" fill="#b22a84" stroke="#b22a84"></path><path d="M387 358L443 332.1L384 287.1Z" fill="#00101c" stroke="#00101c"></path><path d="M313 211.6L343 254.4L368 225.6Z" fill="#ed1b76" stroke="#ed1b76"></path><path d="M313 211.6L308 236L343 254.4Z" fill="#72327e" stroke="#72327e"></path><path d="M381 355.1L384 287.1L358 307.9Z" fill="#202a55" stroke="#202a55"></path><path d="M488 227.6L475 208.6L405 254.9Z" fill="#00101c" stroke="#00101c"></path><path d="M409 167.6L386 175.3L393 215Z" fill="#543274" stroke="#543274"></path><path d="M338 326.9L381 355.1L358 307.9Z" fill="#923083" stroke="#923083"></path><path d="M444 189.1L393 215L405 254.9Z" fill="#72327e" stroke="#72327e"></path><path d="M393 215L386 175.3L368 225.6Z" fill="#d1217f" stroke="#d1217f"></path><path d="M345 174.6L313 211.6L368 225.6Z" fill="#00101c" stroke="#00101c"></path><path d="M381 355.1L387 358L384 287.1Z" fill="#382f66" stroke="#382f66"></path><path d="M475 208.6L444 189.1L405 254.9Z" fill="#d1217f" stroke="#d1217f"></path><path d="M386 175.3L345 174.6L368 225.6Z" fill="#0d2343" stroke="#0d2343"></path><path d="M444 189.1L409 167.6L393 215Z" fill="#923083" stroke="#923083"></path><path d="M349 142.4L333 169.7L345 174.6Z" fill="#d1217f" stroke="#d1217f"></path><path d="M491 249.9L405 254.9L405 276Z" fill="#d1217f" stroke="#d1217f"></path><path d="M443 332.1L491 249.9L405 276Z" fill="#ed1b76" stroke="#ed1b76"></path><path d="M491 249.9L488 227.6L405 254.9Z" fill="#543274" stroke="#543274"></path><path d="M245 363.9L363 371.9L338 326.9Z" fill="#b22a84" stroke="#b22a84"></path><path d="M338 326.9L363 371.9L381 355.1Z" fill="#051a2f" stroke="#051a2f"></path><path d="M381 355.1L364 373.6L387 358Z" fill="#923083" stroke="#923083"></path><path d="M387 358L456 399.9L443 332.1Z" fill="#ed1b76" stroke="#ed1b76"></path><path d="M365 145.6L345 174.6L386 175.3Z" fill="#051a2f" stroke="#051a2f"></path><path d="M345 174.6L333 169.7L313 211.6Z" fill="#382f66" stroke="#382f66"></path><path d="M363 371.9L364 373.6L381 355.1Z" fill="#d1217f" stroke="#d1217f"></path><path d="M409 167.6L365 145.6L386 175.3Z" fill="#d1217f" stroke="#d1217f"></path><path d="M251 184.7L265 251.1L313 211.6Z" fill="#ed1b76" stroke="#ed1b76"></path><path d="M313 211.6L265 251.1L308 236Z" fill="#202a55" stroke="#202a55"></path><path d="M308 236L265 251.1L314 285.7Z" fill="#382f66" stroke="#382f66"></path><path d="M314 285.7L244 336.6L338 326.9Z" fill="#202a55" stroke="#202a55"></path><path d="M363 371.9L272 434.6L364 373.6Z" fill="#00101c" stroke="#00101c"></path><path d="M491 155.4L448 157.3L444 189.1Z" fill="#d1217f" stroke="#d1217f"></path><path d="M444 189.1L448 157.3L409 167.6Z" fill="#543274" stroke="#543274"></path><path d="M409 167.6L377 113.4L365 145.6Z" fill="#d1217f" stroke="#d1217f"></path><path d="M491 155.4L444 189.1L475 208.6Z" fill="#b22a84" stroke="#b22a84"></path><path d="M377 113.4L349 142.4L365 145.6Z" fill="#543274" stroke="#543274"></path><path d="M365 145.6L349 142.4L345 174.6Z" fill="#b22a84" stroke="#b22a84"></path><path d="M333 169.7L284 158.3L313 211.6Z" fill="#0d2343" stroke="#0d2343"></path><path d="M448 157.3L442 147.4L409 167.6Z" fill="#923083" stroke="#923083"></path><path d="M349 142.4L284 158.3L333 169.7Z" fill="#202a55" stroke="#202a55"></path><path d="M415 418.4L456 399.9L387 358Z" fill="#051a2f" stroke="#051a2f"></path><path d="M443 332.1L542 334.6L491 249.9Z" fill="#202a55" stroke="#202a55"></path><path d="M532 177.4L491 155.4L475 208.6Z" fill="#051a2f" stroke="#051a2f"></path><path d="M448 157.3L491 155.4L442 147.4Z" fill="#543274" stroke="#543274"></path><path d="M532 177.4L475 208.6L488 227.6Z" fill="#ed1b76" stroke="#ed1b76"></path><path d="M402 67.9L377 113.4L442 147.4Z" fill="#d1217f" stroke="#d1217f"></path><path d="M442 147.4L377 113.4L409 167.6Z" fill="#202a55" stroke="#202a55"></path><path d="M349 142.4L275 102.7L284 158.3Z" fill="#051a2f" stroke="#051a2f"></path><path d="M364 373.6L415 418.4L387 358Z" fill="#00101c" stroke="#00101c"></path><path d="M284 158.3L251 184.7L313 211.6Z" fill="#543274" stroke="#543274"></path><path d="M227 298L314 285.7L265 251.1Z" fill="#202a55" stroke="#202a55"></path><path d="M227 298L244 336.6L314 285.7Z" fill="#00101c" stroke="#00101c"></path><path d="M364 373.6L367 441.4L415 418.4Z" fill="#0d2343" stroke="#0d2343"></path><path d="M545 221.6L538 217.3L491 249.9Z" fill="#72327e" stroke="#72327e"></path><path d="M491 249.9L538 217.3L488 227.6Z" fill="#051a2f" stroke="#051a2f"></path><path d="M220 294.1L227 298L265 251.1Z" fill="#ed1b76" stroke="#ed1b76"></path><path d="M583 273.3L545 221.6L491 249.9Z" fill="#d1217f" stroke="#d1217f"></path><path d="M538 217.3L532 177.4L488 227.6Z" fill="#d1217f" stroke="#d1217f"></path><path d="M205 254.1L220 294.1L265 251.1Z" fill="#382f66" stroke="#382f66"></path><path d="M227 298L220 309.7L244 336.6Z" fill="#d1217f" stroke="#d1217f"></path><path d="M547 168.4L532 177.4L559 171.3Z" fill="#0d2343" stroke="#0d2343"></path><path d="M526 382.6L542 334.6L443 332.1Z" fill="#051a2f" stroke="#051a2f"></path><path d="M220 294.1L220 309.7L227 298Z" fill="#923083" stroke="#923083"></path><path d="M215 363L245 363.9L244 336.6Z" fill="#543274" stroke="#543274"></path><path d="M244 336.6L245 363.9L338 326.9Z" fill="#ed1b76" stroke="#ed1b76"></path><path d="M272 434.6L367 441.4L364 373.6Z" fill="#72327e" stroke="#72327e"></path><path d="M502 418.7L526 382.6L456 399.9Z" fill="#b22a84" stroke="#b22a84"></path><path d="M532 177.4L496 126.7L491 155.4Z" fill="#543274" stroke="#543274"></path><path d="M491 155.4L496 126.7L442 147.4Z" fill="#543274" stroke="#543274"></path><path d="M220 294.1L209 304.1L220 309.7Z" fill="#051a2f" stroke="#051a2f"></path><path d="M215 363L232 387.6L245 363.9Z" fill="#b22a84" stroke="#b22a84"></path><path d="M205 254.1L209 304.1L220 294.1Z" fill="#b22a84" stroke="#b22a84"></path><path d="M251 184.7L205 254.1L265 251.1Z" fill="#202a55" stroke="#202a55"></path><path d="M502 418.7L456 399.9L493 436.6Z" fill="#923083" stroke="#923083"></path><path d="M456 399.9L526 382.6L443 332.1Z" fill="#72327e" stroke="#72327e"></path><path d="M559 171.3L532 177.4L538 217.3Z" fill="#202a55" stroke="#202a55"></path><path d="M532 177.4L547 168.4L496 126.7Z" fill="#72327e" stroke="#72327e"></path><path d="M559 171.3L538 217.3L545 221.6Z" fill="#0d2343" stroke="#0d2343"></path><path d="M427 458.7L456 399.9L415 418.4Z" fill="#ed1b76" stroke="#ed1b76"></path><path d="M402 67.9L339 77.4L377 113.4Z" fill="#051a2f" stroke="#051a2f"></path><path d="M377 113.4L339 77.4L349 142.4Z" fill="#202a55" stroke="#202a55"></path><path d="M284 158.3L244 122.4L251 184.7Z" fill="#d1217f" stroke="#d1217f"></path><path d="M568 341L568 337.9L542 334.6Z" fill="#ed1b76" stroke="#ed1b76"></path><path d="M542 334.6L583 273.3L491 249.9Z" fill="#543274" stroke="#543274"></path><path d="M568 341L542 334.6L526 382.6Z" fill="#00101c" stroke="#00101c"></path><path d="M215 363L244 336.6L220 309.7Z" fill="#72327e" stroke="#72327e"></path><path d="M245 363.9L272 434.6L363 371.9Z" fill="#72327e" stroke="#72327e"></path><path d="M209 304.1L215 363L220 309.7Z" fill="#543274" stroke="#543274"></path><path d="M339 77.4L275 102.7L349 142.4Z" fill="#923083" stroke="#923083"></path><path d="M251 184.7L165 222.4L205 254.1Z" fill="#543274" stroke="#543274"></path><path d="M586 197.1L559 171.3L545 221.6Z" fill="#202a55" stroke="#202a55"></path><path d="M547 168.4L619 88.7L496 126.7Z" fill="#0d2343" stroke="#0d2343"></path><path d="M576 378L568 341L526 382.6Z" fill="#00101c" stroke="#00101c"></path><path d="M592 266.3L583 273.3L600 304Z" fill="#ed1b76" stroke="#ed1b76"></path><path d="M568 337.9L583 273.3L542 334.6Z" fill="#202a55" stroke="#202a55"></path><path d="M367 441.4L427 458.7L415 418.4Z" fill="#d1217f" stroke="#d1217f"></path><path d="M496 126.7L402 67.9L442 147.4Z" fill="#923083" stroke="#923083"></path><path d="M429 36.9L402 67.7L402 67.9Z" fill="#ed1b76" stroke="#ed1b76"></path><path d="M402 67.9L402 67.7L339 77.4Z" fill="#051a2f" stroke="#051a2f"></path><path d="M275 102.7L244 122.4L284 158.3Z" fill="#72327e" stroke="#72327e"></path><path d="M457 471.3L493 436.6L456 399.9Z" fill="#543274" stroke="#543274"></path><path d="M572 430.4L576 378L526 382.6Z" fill="#923083" stroke="#923083"></path><path d="M232 387.6L272 434.6L245 363.9Z" fill="#923083" stroke="#923083"></path><path d="M468 491.1L457 471.3L404 508.4Z" fill="#0d2343" stroke="#0d2343"></path><path d="M600 304L583 273.3L568 337.9Z" fill="#b22a84" stroke="#b22a84"></path><path d="M583 273.3L592 266.3L545 221.6Z" fill="#923083" stroke="#923083"></path><path d="M205 254.1L183 303.1L209 304.1Z" fill="#00101c" stroke="#00101c"></path><path d="M209 304.1L183 303.1L215 363Z" fill="#923083" stroke="#923083"></path><path d="M160 280.3L183 303.1L205 254.1Z" fill="#0d2343" stroke="#0d2343"></path><path d="M592 266.3L586 197.1L545 221.6Z" fill="#543274" stroke="#543274"></path><path d="M606 340.9L600 304L568 337.9Z" fill="#0d2343" stroke="#0d2343"></path><path d="M592 266.3L605 193.3L586 197.1Z" fill="#923083" stroke="#923083"></path><path d="M606 340.9L568 337.9L568 341Z" fill="#00101c" stroke="#00101c"></path><path d="M469 481.4L457 471.3L468 491.1Z" fill="#923083" stroke="#923083"></path><path d="M427 458.7L457 471.3L456 399.9Z" fill="#543274" stroke="#543274"></path><path d="M531 447.7L502 418.7L493 436.6Z" fill="#d1217f" stroke="#d1217f"></path><path d="M531 447.7L526 382.6L502 418.7Z" fill="#051a2f" stroke="#051a2f"></path><path d="M232 387.6L241 432.4L272 434.6Z" fill="#202a55" stroke="#202a55"></path><path d="M404 508.4L427 458.7L367 441.4Z" fill="#b22a84" stroke="#b22a84"></path><path d="M219 423.7L241 432.4L232 387.6Z" fill="#923083" stroke="#923083"></path><path d="M219 423.7L232 387.6L172 370Z" fill="#ed1b76" stroke="#ed1b76"></path><path d="M162 168.4L165 222.4L251 184.7Z" fill="#202a55" stroke="#202a55"></path><path d="M271 54.6L216 117.3L244 122.4Z" fill="#543274" stroke="#543274"></path><path d="M244 122.4L216 117.3L251 184.7Z" fill="#543274" stroke="#543274"></path><path d="M271 54.6L244 122.4L275 102.7Z" fill="#543274" stroke="#543274"></path><path d="M165 222.4L160 280.3L205 254.1Z" fill="#382f66" stroke="#382f66"></path><path d="M172 370L232 387.6L215 363Z" fill="#382f66" stroke="#382f66"></path><path d="M172 370L215 363L183 303.1Z" fill="#ed1b76" stroke="#ed1b76"></path><path d="M669 232.1L605 193.3L592 266.3Z" fill="#923083" stroke="#923083"></path><path d="M586 197.1L605 193.3L559 171.3Z" fill="#051a2f" stroke="#051a2f"></path><path d="M510 0L429 36.9L496 126.7Z" fill="#d1217f" stroke="#d1217f"></path><path d="M496 126.7L429 36.9L402 67.9Z" fill="#b22a84" stroke="#b22a84"></path><path d="M346 494.3L367 441.4L272 434.6Z" fill="#b22a84" stroke="#b22a84"></path><path d="M457 471.3L474 480.3L493 436.6Z" fill="#b22a84" stroke="#b22a84"></path><path d="M469 481.4L474 480.3L457 471.3Z" fill="#923083" stroke="#923083"></path><path d="M237 448.7L272 434.6L241 432.4Z" fill="#d1217f" stroke="#d1217f"></path><path d="M328 506.3L346 494.3L272 434.6Z" fill="#00101c" stroke="#00101c"></path><path d="M621 99.4L547 168.4L559 171.3Z" fill="#202a55" stroke="#202a55"></path><path d="M402 67.7L364 1.9L339 77.4Z" fill="#00101c" stroke="#00101c"></path><path d="M339 77.4L271 54.6L275 102.7Z" fill="#72327e" stroke="#72327e"></path><path d="M576 378L606 340.9L568 341Z" fill="#0d2343" stroke="#0d2343"></path><path d="M600 304L669 232.1L592 266.3Z" fill="#0d2343" stroke="#0d2343"></path><path d="M474 480.3L531 447.7L493 436.6Z" fill="#72327e" stroke="#72327e"></path><path d="M576 378L616 369L606 340.9Z" fill="#382f66" stroke="#382f66"></path><path d="M219 423.7L237 448.7L241 432.4Z" fill="#72327e" stroke="#72327e"></path><path d="M134 322.1L172 370L183 303.1Z" fill="#382f66" stroke="#382f66"></path><path d="M219 423.7L196 454.6L237 448.7Z" fill="#b22a84" stroke="#b22a84"></path><path d="M331 0L271 54.6L339 77.4Z" fill="#382f66" stroke="#382f66"></path><path d="M469 481.4L468 491.1L474 480.3Z" fill="#923083" stroke="#923083"></path><path d="M527 494.1L545 466.7L531 447.7Z" fill="#051a2f" stroke="#051a2f"></path><path d="M404 508.4L457 471.3L427 458.7Z" fill="#543274" stroke="#543274"></path><path d="M398 510.1L404 508.4L367 441.4Z" fill="#00101c" stroke="#00101c"></path><path d="M176 118.3L162 168.4L216 117.3Z" fill="#00101c" stroke="#00101c"></path><path d="M216 117.3L162 168.4L251 184.7Z" fill="#543274" stroke="#543274"></path><path d="M165 222.4L138 250L160 280.3Z" fill="#d1217f" stroke="#d1217f"></path><path d="M346 494.3L398 510.1L367 441.4Z" fill="#051a2f" stroke="#051a2f"></path><path d="M404 508.4L422 528.3L468 491.1Z" fill="#b22a84" stroke="#b22a84"></path><path d="M134 322.1L166 375.4L172 370Z" fill="#051a2f" stroke="#051a2f"></path><path d="M172 370L166 375.4L219 423.7Z" fill="#543274" stroke="#543274"></path><path d="M244 494.3L328 506.3L272 434.6Z" fill="#ed1b76" stroke="#ed1b76"></path><path d="M346 494.3L351 532.1L398 510.1Z" fill="#00101c" stroke="#00101c"></path><path d="M133 227.1L138 250L165 222.4Z" fill="#051a2f" stroke="#051a2f"></path><path d="M160 280.3L134 322.1L183 303.1Z" fill="#923083" stroke="#923083"></path><path d="M545 466.7L572 430.4L531 447.7Z" fill="#382f66" stroke="#382f66"></path><path d="M531 447.7L572 430.4L526 382.6Z" fill="#543274" stroke="#543274"></path><path d="M138 250L137 283.3L160 280.3Z" fill="#00101c" stroke="#00101c"></path><path d="M631 422.7L616 369L576 378Z" fill="#202a55" stroke="#202a55"></path><path d="M606 340.9L625 350.1L600 304Z" fill="#ed1b76" stroke="#ed1b76"></path><path d="M616 369L625 350.1L606 340.9Z" fill="#202a55" stroke="#202a55"></path><path d="M162 168.4L133 227.1L165 222.4Z" fill="#72327e" stroke="#72327e"></path><path d="M138 250L71 274L137 283.3Z" fill="#543274" stroke="#543274"></path><path d="M187 87.6L176 118.3L216 117.3Z" fill="#d1217f" stroke="#d1217f"></path><path d="M162 168.4L133 162.6L133 227.1Z" fill="#0d2343" stroke="#0d2343"></path><path d="M527 494.1L531 447.7L474 480.3Z" fill="#ed1b76" stroke="#ed1b76"></path><path d="M105 379.4L134 322.1L92 363.6Z" fill="#b22a84" stroke="#b22a84"></path><path d="M137 283.3L134 322.1L160 280.3Z" fill="#ed1b76" stroke="#ed1b76"></path><path d="M382 0L364 1.9L402 67.7Z" fill="#72327e" stroke="#72327e"></path><path d="M669 232.1L626 152.7L605 193.3Z" fill="#0d2343" stroke="#0d2343"></path><path d="M605 193.3L626 152.7L559 171.3Z" fill="#ed1b76" stroke="#ed1b76"></path><path d="M398 510.1L422 528.3L404 508.4Z" fill="#543274" stroke="#543274"></path><path d="M468 491.1L527 494.1L474 480.3Z" fill="#b22a84" stroke="#b22a84"></path><path d="M367 543.1L422 528.3L398 510.1Z" fill="#382f66" stroke="#382f66"></path><path d="M429 36.9L382 0L402 67.7Z" fill="#00101c" stroke="#00101c"></path><path d="M413 -43.1L382 0L429 36.9Z" fill="#382f66" stroke="#382f66"></path><path d="M182 68.7L187 87.6L271 54.6Z" fill="#72327e" stroke="#72327e"></path><path d="M271 54.6L187 87.6L216 117.3Z" fill="#d1217f" stroke="#d1217f"></path><path d="M176 118.3L145 140.9L162 168.4Z" fill="#923083" stroke="#923083"></path><path d="M171 429.9L196 454.6L219 423.7Z" fill="#ed1b76" stroke="#ed1b76"></path><path d="M244 494.3L323 526.3L328 506.3Z" fill="#543274" stroke="#543274"></path><path d="M171 429.9L219 423.7L166 375.4Z" fill="#b22a84" stroke="#b22a84"></path><path d="M244 494.3L272 434.6L237 448.7Z" fill="#ed1b76" stroke="#ed1b76"></path><path d="M328 506.3L351 532.1L346 494.3Z" fill="#72327e" stroke="#72327e"></path><path d="M533 555.4L527 494.1L468 491.1Z" fill="#00101c" stroke="#00101c"></path><path d="M545 466.7L596 443.7L572 430.4Z" fill="#923083" stroke="#923083"></path><path d="M572 430.4L631 422.7L576 378Z" fill="#543274" stroke="#543274"></path><path d="M323 526.3L351 532.1L328 506.3Z" fill="#00101c" stroke="#00101c"></path><path d="M203 465.6L244 494.3L237 448.7Z" fill="#00101c" stroke="#00101c"></path><path d="M105 379.4L171 429.9L166 375.4Z" fill="#0d2343" stroke="#0d2343"></path><path d="M357 -40.1L331 0L364 1.9Z" fill="#923083" stroke="#923083"></path><path d="M364 1.9L331 0L339 77.4Z" fill="#00101c" stroke="#00101c"></path><path d="M170 471.7L203 465.6L196 454.6Z" fill="#ed1b76" stroke="#ed1b76"></path><path d="M196 454.6L203 465.6L237 448.7Z" fill="#b22a84" stroke="#b22a84"></path><path d="M134 133.7L145 140.9L141 97.7Z" fill="#72327e" stroke="#72327e"></path><path d="M145 140.9L133 162.6L162 168.4Z" fill="#b22a84" stroke="#b22a84"></path><path d="M362 549.1L358 537.3L351 532.1Z" fill="#72327e" stroke="#72327e"></path><path d="M351 532.1L358 537.3L398 510.1Z" fill="#b22a84" stroke="#b22a84"></path><path d="M583 493.6L596 443.7L545 466.7Z" fill="#72327e" stroke="#72327e"></path><path d="M616 369L669 358.7L625 350.1Z" fill="#382f66" stroke="#382f66"></path><path d="M134 133.7L130 156.6L145 140.9Z" fill="#d1217f" stroke="#d1217f"></path><path d="M145 140.9L130 156.6L133 162.6Z" fill="#382f66" stroke="#382f66"></path><path d="M133 162.6L69 226.1L133 227.1Z" fill="#d1217f" stroke="#d1217f"></path><path d="M92 363.6L134 322.1L57 336.9Z" fill="#382f66" stroke="#382f66"></path><path d="M362 549.1L367 543.1L358 537.3Z" fill="#ed1b76" stroke="#ed1b76"></path><path d="M358 537.3L367 543.1L398 510.1Z" fill="#0d2343" stroke="#0d2343"></path><path d="M201 19.7L182 68.7L271 54.6Z" fill="#382f66" stroke="#382f66"></path><path d="M187 87.6L141 97.7L176 118.3Z" fill="#051a2f" stroke="#051a2f"></path><path d="M141 97.7L145 140.9L176 118.3Z" fill="#051a2f" stroke="#051a2f"></path><path d="M324 568.3L362 549.1L351 532.1Z" fill="#382f66" stroke="#382f66"></path><path d="M367 543.1L430 548.4L422 528.3Z" fill="#d1217f" stroke="#d1217f"></path><path d="M422 528.3L430 548.4L468 491.1Z" fill="#543274" stroke="#543274"></path><path d="M324 568.3L351 532.1L323 526.3Z" fill="#d1217f" stroke="#d1217f"></path><path d="M669 358.7L600 304L625 350.1Z" fill="#543274" stroke="#543274"></path><path d="M702 259L669 232.1L600 304Z" fill="#923083" stroke="#923083"></path><path d="M383 600L430 548.4L367 543.1Z" fill="#0d2343" stroke="#0d2343"></path><path d="M653 91.9L621 99.4L626 152.7Z" fill="#543274" stroke="#543274"></path><path d="M626 152.7L621 99.4L559 171.3Z" fill="#543274" stroke="#543274"></path><path d="M633 444.6L631 422.7L596 443.7Z" fill="#051a2f" stroke="#051a2f"></path><path d="M596 443.7L631 422.7L572 430.4Z" fill="#543274" stroke="#543274"></path><path d="M653 91.9L619 88.7L621 99.4Z" fill="#b22a84" stroke="#b22a84"></path><path d="M621 99.4L619 88.7L547 168.4Z" fill="#0d2343" stroke="#0d2343"></path><path d="M331 0L263 0L271 54.6Z" fill="#00101c" stroke="#00101c"></path><path d="M513 0L510 0L551 18.7Z" fill="#ed1b76" stroke="#ed1b76"></path><path d="M551 18.7L510 0L496 126.7Z" fill="#d1217f" stroke="#d1217f"></path><path d="M601 45.9L551 18.7L496 126.7Z" fill="#72327e" stroke="#72327e"></path><path d="M182 68.7L141 97.7L187 87.6Z" fill="#543274" stroke="#543274"></path><path d="M126 30.6L141 97.7L182 68.7Z" fill="#543274" stroke="#543274"></path><path d="M654 400.9L669 358.7L616 369Z" fill="#051a2f" stroke="#051a2f"></path><path d="M203 465.6L183 496.6L244 494.3Z" fill="#543274" stroke="#543274"></path><path d="M278 600L324 568.3L277 600Z" fill="#0d2343" stroke="#0d2343"></path><path d="M171 429.9L170 471.7L196 454.6Z" fill="#d1217f" stroke="#d1217f"></path><path d="M122 488.3L170 471.7L104 472.7Z" fill="#382f66" stroke="#382f66"></path><path d="M631 422.7L654 400.9L616 369Z" fill="#923083" stroke="#923083"></path><path d="M533 555.4L583 493.6L527 494.1Z" fill="#543274" stroke="#543274"></path><path d="M527 494.1L583 493.6L545 466.7Z" fill="#ed1b76" stroke="#ed1b76"></path><path d="M631 422.7L657 450.3L654 400.9Z" fill="#72327e" stroke="#72327e"></path><path d="M134 322.1L137 283.3L71 274Z" fill="#923083" stroke="#923083"></path><path d="M134 322.1L105 379.4L166 375.4Z" fill="#b22a84" stroke="#b22a84"></path><path d="M570 -3.1L534 0L551 18.7Z" fill="#ed1b76" stroke="#ed1b76"></path><path d="M551 18.7L534 0L513 0Z" fill="#543274" stroke="#543274"></path><path d="M583 493.6L633 444.6L596 443.7Z" fill="#d1217f" stroke="#d1217f"></path><path d="M263 0L233 0L271 54.6Z" fill="#923083" stroke="#923083"></path><path d="M413 -43.1L357 -40.1L382 0Z" fill="#ed1b76" stroke="#ed1b76"></path><path d="M382 0L357 -40.1L364 1.9Z" fill="#202a55" stroke="#202a55"></path><path d="M331 0L328 -54.1L263 0Z" fill="#382f66" stroke="#382f66"></path><path d="M263 0L328 -54.1L233 0Z" fill="#72327e" stroke="#72327e"></path><path d="M413 -43.1L429 36.9L510 0Z" fill="#051a2f" stroke="#051a2f"></path><path d="M413 -43.1L510 0L575 -47.1Z" fill="#d1217f" stroke="#d1217f"></path><path d="M619 88.7L601 45.9L496 126.7Z" fill="#923083" stroke="#923083"></path><path d="M71 127.9L63 165.4L130 156.6Z" fill="#ed1b76" stroke="#ed1b76"></path><path d="M71 274L138 250L69 226.1Z" fill="#00101c" stroke="#00101c"></path><path d="M141 97.7L122 107.9L134 133.7Z" fill="#00101c" stroke="#00101c"></path><path d="M126 30.6L122 107.9L141 97.7Z" fill="#d1217f" stroke="#d1217f"></path><path d="M233 0L201 19.7L271 54.6Z" fill="#72327e" stroke="#72327e"></path><path d="M122 488.3L183 496.6L170 471.7Z" fill="#382f66" stroke="#382f66"></path><path d="M170 471.7L183 496.6L203 465.6Z" fill="#00101c" stroke="#00101c"></path><path d="M315 594.1L324 568.3L278 600Z" fill="#ed1b76" stroke="#ed1b76"></path><path d="M362 549.1L383 600L367 543.1Z" fill="#0d2343" stroke="#0d2343"></path><path d="M575 -47.1L510 0L513 0Z" fill="#543274" stroke="#543274"></path><path d="M138 250L133 227.1L69 226.1Z" fill="#0d2343" stroke="#0d2343"></path><path d="M104 472.7L170 471.7L171 429.9Z" fill="#d1217f" stroke="#d1217f"></path><path d="M601 45.9L573 12.9L551 18.7Z" fill="#0d2343" stroke="#0d2343"></path><path d="M534 0L575 -47.1L513 0Z" fill="#0d2343" stroke="#0d2343"></path><path d="M69 226.1L133 162.6L63 165.4Z" fill="#051a2f" stroke="#051a2f"></path><path d="M669 358.7L702 259L600 304Z" fill="#b22a84" stroke="#b22a84"></path><path d="M692 159.1L653 91.9L626 152.7Z" fill="#382f66" stroke="#382f66"></path><path d="M619 88.7L631 53.7L601 45.9Z" fill="#923083" stroke="#923083"></path><path d="M692 159.1L626 152.7L669 232.1Z" fill="#b22a84" stroke="#b22a84"></path><path d="M584 4.7L570 -3.1L573 12.9Z" fill="#d1217f" stroke="#d1217f"></path><path d="M63 165.4L133 162.6L130 156.6Z" fill="#b22a84" stroke="#b22a84"></path><path d="M654 400.9L686 384.4L669 358.7Z" fill="#72327e" stroke="#72327e"></path><path d="M760 292L710 254.9L702 259Z" fill="#d1217f" stroke="#d1217f"></path><path d="M699 413.7L686 384.4L654 400.9Z" fill="#382f66" stroke="#382f66"></path><path d="M653 91.9L631 53.7L619 88.7Z" fill="#0d2343" stroke="#0d2343"></path><path d="M703 177.3L692 159.1L669 232.1Z" fill="#72327e" stroke="#72327e"></path><path d="M653 91.9L691 97.9L631 53.7Z" fill="#72327e" stroke="#72327e"></path><path d="M723 333.9L702 259L669 358.7Z" fill="#72327e" stroke="#72327e"></path><path d="M702 259L710 254.9L669 232.1Z" fill="#382f66" stroke="#382f66"></path><path d="M413 -43.1L328 -54.1L357 -40.1Z" fill="#72327e" stroke="#72327e"></path><path d="M357 -40.1L328 -54.1L331 0Z" fill="#d1217f" stroke="#d1217f"></path><path d="M430 548.4L533 555.4L468 491.1Z" fill="#543274" stroke="#543274"></path><path d="M659 534.4L657 450.3L633 444.6Z" fill="#051a2f" stroke="#051a2f"></path><path d="M444 600L533 555.4L430 548.4Z" fill="#00101c" stroke="#00101c"></path><path d="M584 4.7L573 12.9L601 45.9Z" fill="#543274" stroke="#543274"></path><path d="M573 12.9L570 -3.1L551 18.7Z" fill="#ed1b76" stroke="#ed1b76"></path><path d="M328 -54.1L197 0L233 0Z" fill="#543274" stroke="#543274"></path><path d="M233 0L197 0L201 19.7Z" fill="#382f66" stroke="#382f66"></path><path d="M201 19.7L164 5.9L182 68.7Z" fill="#0d2343" stroke="#0d2343"></path><path d="M602 0L584 4.7L601 45.9Z" fill="#543274" stroke="#543274"></path><path d="M633 444.6L657 450.3L631 422.7Z" fill="#d1217f" stroke="#d1217f"></path><path d="M659 534.4L633 444.6L583 493.6Z" fill="#0d2343" stroke="#0d2343"></path><path d="M729 204.6L703 177.3L669 232.1Z" fill="#0d2343" stroke="#0d2343"></path><path d="M692 159.1L691 97.9L653 91.9Z" fill="#b22a84" stroke="#b22a84"></path><path d="M584 4.7L566 -12.3L570 -3.1Z" fill="#0d2343" stroke="#0d2343"></path><path d="M570 -3.1L566 -12.3L534 0Z" fill="#00101c" stroke="#00101c"></path><path d="M715 387L702 373.6L686 384.4Z" fill="#543274" stroke="#543274"></path><path d="M686 384.4L702 373.6L669 358.7Z" fill="#72327e" stroke="#72327e"></path><path d="M334 600L362 549.1L324 568.3Z" fill="#00101c" stroke="#00101c"></path><path d="M334 600L383 600L362 549.1Z" fill="#923083" stroke="#923083"></path><path d="M723 140.3L701 148.6L703 177.3Z" fill="#0d2343" stroke="#0d2343"></path><path d="M703 177.3L701 148.6L692 159.1Z" fill="#d1217f" stroke="#d1217f"></path><path d="M324 568.3L323 526.3L277 600Z" fill="#d1217f" stroke="#d1217f"></path><path d="M37 326.7L57 336.9L71 274Z" fill="#0d2343" stroke="#0d2343"></path><path d="M71 274L57 336.9L134 322.1Z" fill="#00101c" stroke="#00101c"></path><path d="M104 472.7L171 429.9L105 379.4Z" fill="#0d2343" stroke="#0d2343"></path><path d="M76 123.4L134 133.7L122 107.9Z" fill="#72327e" stroke="#72327e"></path><path d="M76 123.4L130 156.6L134 133.7Z" fill="#ed1b76" stroke="#ed1b76"></path><path d="M69 226.1L28 256.9L71 274Z" fill="#543274" stroke="#543274"></path><path d="M328 -54.1L176 0L197 0Z" fill="#382f66" stroke="#382f66"></path><path d="M197 0L176 0L201 19.7Z" fill="#00101c" stroke="#00101c"></path><path d="M383 600L437 600L430 548.4Z" fill="#ed1b76" stroke="#ed1b76"></path><path d="M315 594.1L334 600L324 568.3Z" fill="#923083" stroke="#923083"></path><path d="M437 600L444 600L430 548.4Z" fill="#382f66" stroke="#382f66"></path><path d="M64 70.9L76 123.4L122 107.9Z" fill="#202a55" stroke="#202a55"></path><path d="M176 0L164 5.9L201 19.7Z" fill="#00101c" stroke="#00101c"></path><path d="M617 0L602 0L601 45.9Z" fill="#00101c" stroke="#00101c"></path><path d="M584 4.7L602 0L566 -12.3Z" fill="#202a55" stroke="#202a55"></path><path d="M617 0L601 45.9L631 53.7Z" fill="#00101c" stroke="#00101c"></path><path d="M64 70.9L71 127.9L76 123.4Z" fill="#b22a84" stroke="#b22a84"></path><path d="M76 123.4L71 127.9L130 156.6Z" fill="#d1217f" stroke="#d1217f"></path><path d="M702 373.6L723 333.9L669 358.7Z" fill="#051a2f" stroke="#051a2f"></path><path d="M710 254.9L729 204.6L669 232.1Z" fill="#b22a84" stroke="#b22a84"></path><path d="M104 472.7L105 379.4L36 433.9Z" fill="#923083" stroke="#923083"></path><path d="M277 600L323 526.3L244 494.3Z" fill="#72327e" stroke="#72327e"></path><path d="M657 450.3L699 413.7L654 400.9Z" fill="#923083" stroke="#923083"></path><path d="M702 373.6L715 387L723 333.9Z" fill="#923083" stroke="#923083"></path><path d="M0 152.6L46 197.6L63 165.4Z" fill="#051a2f" stroke="#051a2f"></path><path d="M63 165.4L46 197.6L69 226.1Z" fill="#d1217f" stroke="#d1217f"></path><path d="M701 148.6L691 97.9L692 159.1Z" fill="#00101c" stroke="#00101c"></path><path d="M780 260.9L729 204.6L710 254.9Z" fill="#b22a84" stroke="#b22a84"></path><path d="M701 148.6L707 97.4L691 97.9Z" fill="#72327e" stroke="#72327e"></path><path d="M36 433.9L105 379.4L92 363.6Z" fill="#0d2343" stroke="#0d2343"></path><path d="M164 5.9L126 30.6L182 68.7Z" fill="#d1217f" stroke="#d1217f"></path><path d="M699 413.7L715 387L686 384.4Z" fill="#051a2f" stroke="#051a2f"></path><path d="M277 600L244 494.3L247 600Z" fill="#0d2343" stroke="#0d2343"></path><path d="M315 594.1L278 600L334 600Z" fill="#051a2f" stroke="#051a2f"></path><path d="M247 600L244 494.3L199 581.1Z" fill="#72327e" stroke="#72327e"></path><path d="M674 -4.3L617 0L631 53.7Z" fill="#b22a84" stroke="#b22a84"></path><path d="M602 0L575 -47.1L566 -12.3Z" fill="#00101c" stroke="#00101c"></path><path d="M28 256.9L37 326.7L71 274Z" fill="#0d2343" stroke="#0d2343"></path><path d="M0 398L36 433.9L92 363.6Z" fill="#543274" stroke="#543274"></path><path d="M46 197.6L28 256.9L69 226.1Z" fill="#382f66" stroke="#382f66"></path><path d="M562 581.3L609 546.4L533 555.4Z" fill="#72327e" stroke="#72327e"></path><path d="M533 555.4L609 546.4L583 493.6Z" fill="#b22a84" stroke="#b22a84"></path><path d="M657 450.3L717 441.3L699 413.7Z" fill="#202a55" stroke="#202a55"></path><path d="M729 204.6L723 140.3L703 177.3Z" fill="#d1217f" stroke="#d1217f"></path><path d="M566 600L562 581.3L533 555.4Z" fill="#b22a84" stroke="#b22a84"></path><path d="M199 581.1L244 494.3L183 496.6Z" fill="#543274" stroke="#543274"></path><path d="M199 581.1L183 496.6L135 535.3Z" fill="#051a2f" stroke="#051a2f"></path><path d="M723 140.3L707 97.4L701 148.6Z" fill="#d1217f" stroke="#d1217f"></path><path d="M691 97.9L674 -4.3L631 53.7Z" fill="#051a2f" stroke="#051a2f"></path><path d="M674 -4.3L575 -47.1L617 0Z" fill="#b22a84" stroke="#b22a84"></path><path d="M617 0L575 -47.1L602 0Z" fill="#051a2f" stroke="#051a2f"></path><path d="M566 -12.3L575 -47.1L534 0Z" fill="#923083" stroke="#923083"></path><path d="M413 -43.1L575 -47.1L328 -54.1Z" fill="#382f66" stroke="#382f66"></path><path d="M135 535.3L183 496.6L122 488.3Z" fill="#0d2343" stroke="#0d2343"></path><path d="M119 544.1L135 535.3L122 488.3Z" fill="#382f66" stroke="#382f66"></path><path d="M199 581.1L223 600L247 600Z" fill="#923083" stroke="#923083"></path><path d="M156 600L223 600L199 581.1Z" fill="#ed1b76" stroke="#ed1b76"></path><path d="M659 534.4L717 441.3L657 450.3Z" fill="#0d2343" stroke="#0d2343"></path><path d="M699 413.7L742 421.4L715 387Z" fill="#923083" stroke="#923083"></path><path d="M760 345.1L760 292L723 333.9Z" fill="#ed1b76" stroke="#ed1b76"></path><path d="M760 345.1L723 333.9L754 374Z" fill="#382f66" stroke="#382f66"></path><path d="M723 333.9L760 292L702 259Z" fill="#72327e" stroke="#72327e"></path><path d="M762 105.4L730 92.6L723 140.3Z" fill="#051a2f" stroke="#051a2f"></path><path d="M126 30.6L64 70.9L122 107.9Z" fill="#0d2343" stroke="#0d2343"></path><path d="M71 127.9L0 152.6L63 165.4Z" fill="#0d2343" stroke="#0d2343"></path><path d="M46 197.6L0 258.3L28 256.9Z" fill="#72327e" stroke="#72327e"></path><path d="M88 0L64 70.9L126 30.6Z" fill="#202a55" stroke="#202a55"></path><path d="M176 0L116 0L164 5.9Z" fill="#0d2343" stroke="#0d2343"></path><path d="M164 5.9L116 0L126 30.6Z" fill="#00101c" stroke="#00101c"></path><path d="M328 -54.1L116 0L176 0Z" fill="#051a2f" stroke="#051a2f"></path><path d="M562 581.3L615 583.1L609 546.4Z" fill="#543274" stroke="#543274"></path><path d="M609 546.4L659 534.4L583 493.6Z" fill="#923083" stroke="#923083"></path><path d="M444 600L566 600L533 555.4Z" fill="#d1217f" stroke="#d1217f"></path><path d="M754 374L723 333.9L715 387Z" fill="#ed1b76" stroke="#ed1b76"></path><path d="M615 583.1L659 534.4L609 546.4Z" fill="#202a55" stroke="#202a55"></path><path d="M328 -54.1L109 0L116 0Z" fill="#00101c" stroke="#00101c"></path><path d="M116 0L109 0L126 30.6Z" fill="#923083" stroke="#923083"></path><path d="M752 400.4L754 374L715 387Z" fill="#d1217f" stroke="#d1217f"></path><path d="M723 140.3L730 92.6L707 97.4Z" fill="#051a2f" stroke="#051a2f"></path><path d="M707 97.4L674 -4.3L691 97.9Z" fill="#d1217f" stroke="#d1217f"></path><path d="M780 176.4L723 140.3L729 204.6Z" fill="#00101c" stroke="#00101c"></path><path d="M51 490.1L119 544.1L122 488.3Z" fill="#b22a84" stroke="#b22a84"></path><path d="M135 535.3L156 600L199 581.1Z" fill="#382f66" stroke="#382f66"></path><path d="M51 490.1L122 488.3L104 472.7Z" fill="#b22a84" stroke="#b22a84"></path><path d="M-55 205L0 258.3L46 197.6Z" fill="#543274" stroke="#543274"></path><path d="M28 256.9L0 258.3L37 326.7Z" fill="#0d2343" stroke="#0d2343"></path><path d="M0 398L92 363.6L57 336.9Z" fill="#00101c" stroke="#00101c"></path><path d="M0 356.1L57 336.9L37 326.7Z" fill="#d1217f" stroke="#d1217f"></path><path d="M751 474.6L742 421.4L717 441.3Z" fill="#72327e" stroke="#72327e"></path><path d="M717 441.3L742 421.4L699 413.7Z" fill="#543274" stroke="#543274"></path><path d="M566 600L585 600L562 581.3Z" fill="#72327e" stroke="#72327e"></path><path d="M742 421.4L752 400.4L715 387Z" fill="#72327e" stroke="#72327e"></path><path d="M754 374L787 373.6L760 345.1Z" fill="#923083" stroke="#923083"></path><path d="M596 598.1L615 583.1L562 581.3Z" fill="#051a2f" stroke="#051a2f"></path><path d="M585 600L596 598.1L562 581.3Z" fill="#ed1b76" stroke="#ed1b76"></path><path d="M816 274.3L780 260.9L760 292Z" fill="#202a55" stroke="#202a55"></path><path d="M760 292L780 260.9L710 254.9Z" fill="#051a2f" stroke="#051a2f"></path><path d="M816 274.3L760 292L760 345.1Z" fill="#051a2f" stroke="#051a2f"></path><path d="M733 0L674 -4.3L707 97.4Z" fill="#b22a84" stroke="#b22a84"></path><path d="M-53 324.7L0 356.1L37 326.7Z" fill="#543274" stroke="#543274"></path><path d="M0 356.1L0 365.6L57 336.9Z" fill="#72327e" stroke="#72327e"></path><path d="M780 260.9L782 217.3L729 204.6Z" fill="#543274" stroke="#543274"></path><path d="M328 -54.1L88 0L109 0Z" fill="#382f66" stroke="#382f66"></path><path d="M109 0L88 0L126 30.6Z" fill="#051a2f" stroke="#051a2f"></path><path d="M0 119.4L0 152.6L71 127.9Z" fill="#051a2f" stroke="#051a2f"></path><path d="M-9 155.3L0 152.6L0 119.4Z" fill="#0d2343" stroke="#0d2343"></path><path d="M0 457.4L51 490.1L36 433.9Z" fill="#0d2343" stroke="#0d2343"></path><path d="M36 433.9L51 490.1L104 472.7Z" fill="#923083" stroke="#923083"></path><path d="M782 217.3L780 176.4L729 204.6Z" fill="#ed1b76" stroke="#ed1b76"></path><path d="M730 92.6L733 0L707 97.4Z" fill="#72327e" stroke="#72327e"></path><path d="M155 600L135 535.3L119 544.1Z" fill="#923083" stroke="#923083"></path><path d="M155 600L156 600L135 535.3Z" fill="#923083" stroke="#923083"></path><path d="M151 606.1L155 600L108 591.3Z" fill="#543274" stroke="#543274"></path><path d="M0 365.6L0 398L57 336.9Z" fill="#d1217f" stroke="#d1217f"></path><path d="M790 167.1L762 105.4L723 140.3Z" fill="#543274" stroke="#543274"></path><path d="M0 152.6L-10 156.3L46 197.6Z" fill="#202a55" stroke="#202a55"></path><path d="M0 258.3L-53 324.7L37 326.7Z" fill="#543274" stroke="#543274"></path><path d="M0 356.1L-53 324.7L0 365.6Z" fill="#ed1b76" stroke="#ed1b76"></path><path d="M-42 470.1L0 406.9L0 398Z" fill="#202a55" stroke="#202a55"></path><path d="M0 119.4L71 127.9L0 112.7Z" fill="#ed1b76" stroke="#ed1b76"></path><path d="M0 119.4L-10 156.3L-9 155.3Z" fill="#382f66" stroke="#382f66"></path><path d="M-9 155.3L-10 156.3L0 152.6Z" fill="#051a2f" stroke="#051a2f"></path><path d="M566 600L588 623.1L585 600Z" fill="#00101c" stroke="#00101c"></path><path d="M585 600L588 623.1L596 598.1Z" fill="#382f66" stroke="#382f66"></path><path d="M596 598.1L644 593.1L615 583.1Z" fill="#00101c" stroke="#00101c"></path><path d="M615 583.1L644 593.1L659 534.4Z" fill="#00101c" stroke="#00101c"></path><path d="M444 600L588 623.1L566 600Z" fill="#543274" stroke="#543274"></path><path d="M437 600L588 623.1L444 600Z" fill="#b22a84" stroke="#b22a84"></path><path d="M383 600L588 623.1L437 600Z" fill="#923083" stroke="#923083"></path><path d="M334 600L588 623.1L383 600Z" fill="#00101c" stroke="#00101c"></path><path d="M278 600L588 623.1L334 600Z" fill="#b22a84" stroke="#b22a84"></path><path d="M151 606.1L588 623.1L278 600Z" fill="#ed1b76" stroke="#ed1b76"></path><path d="M151 606.1L278 600L277 600Z" fill="#ed1b76" stroke="#ed1b76"></path><path d="M151 606.1L277 600L247 600Z" fill="#923083" stroke="#923083"></path><path d="M151 606.1L247 600L223 600Z" fill="#923083" stroke="#923083"></path><path d="M151 606.1L223 600L156 600Z" fill="#d1217f" stroke="#d1217f"></path><path d="M0 446.7L-42 470.1L-21 475.4Z" fill="#ed1b76" stroke="#ed1b76"></path><path d="M0 398L0 406.9L36 433.9Z" fill="#051a2f" stroke="#051a2f"></path><path d="M0 112.7L71 127.9L64 70.9Z" fill="#ed1b76" stroke="#ed1b76"></path><path d="M108 591.3L155 600L119 544.1Z" fill="#382f66" stroke="#382f66"></path><path d="M155 600L151 606.1L156 600Z" fill="#051a2f" stroke="#051a2f"></path><path d="M0 34.9L0 112.7L64 70.9Z" fill="#b22a84" stroke="#b22a84"></path><path d="M0 119.4L0 112.7L-10 156.3Z" fill="#0d2343" stroke="#0d2343"></path><path d="M793 392.7L787 373.6L752 400.4Z" fill="#b22a84" stroke="#b22a84"></path><path d="M752 400.4L787 373.6L754 374Z" fill="#543274" stroke="#543274"></path><path d="M853 148.4L790 167.1L782 217.3Z" fill="#923083" stroke="#923083"></path><path d="M778 422.4L752 400.4L742 421.4Z" fill="#b22a84" stroke="#b22a84"></path><path d="M782 217.3L790 167.1L780 176.4Z" fill="#382f66" stroke="#382f66"></path><path d="M780 176.4L790 167.1L723 140.3Z" fill="#72327e" stroke="#72327e"></path><path d="M816 274.3L782 217.3L780 260.9Z" fill="#d1217f" stroke="#d1217f"></path><path d="M588 623.1L644 593.1L596 598.1Z" fill="#b22a84" stroke="#b22a84"></path><path d="M724 542.3L751 474.6L717 441.3Z" fill="#0d2343" stroke="#0d2343"></path><path d="M800 90.6L769 92.4L762 105.4Z" fill="#d1217f" stroke="#d1217f"></path><path d="M762 105.4L769 92.4L730 92.6Z" fill="#382f66" stroke="#382f66"></path><path d="M724 542.3L717 441.3L659 534.4Z" fill="#0d2343" stroke="#0d2343"></path><path d="M751 474.6L778 422.4L742 421.4Z" fill="#ed1b76" stroke="#ed1b76"></path><path d="M0 406.9L0 446.7L36 433.9Z" fill="#00101c" stroke="#00101c"></path><path d="M77 600L108 591.3L119 544.1Z" fill="#d1217f" stroke="#d1217f"></path><path d="M0 457.4L0 446.7L-21 475.4Z" fill="#543274" stroke="#543274"></path><path d="M778 422.4L793 392.7L752 400.4Z" fill="#b22a84" stroke="#b22a84"></path><path d="M842 349L816 274.3L760 345.1Z" fill="#051a2f" stroke="#051a2f"></path><path d="M77 600L119 544.1L51 490.1Z" fill="#ed1b76" stroke="#ed1b76"></path><path d="M833 358.7L760 345.1L787 373.6Z" fill="#543274" stroke="#543274"></path><path d="M-2 477.6L0 457.4L-21 475.4Z" fill="#72327e" stroke="#72327e"></path><path d="M0 446.7L0 457.4L36 433.9Z" fill="#923083" stroke="#923083"></path><path d="M747 0L733 0L730 92.6Z" fill="#0d2343" stroke="#0d2343"></path><path d="M674 -4.3L780 -44.1L575 -47.1Z" fill="#543274" stroke="#543274"></path><path d="M712 567.1L724 542.3L659 534.4Z" fill="#051a2f" stroke="#051a2f"></path><path d="M832 480.1L803 410.9L778 422.4Z" fill="#0d2343" stroke="#0d2343"></path><path d="M778 422.4L803 410.9L793 392.7Z" fill="#00101c" stroke="#00101c"></path><path d="M0 457.4L7 489.4L51 490.1Z" fill="#202a55" stroke="#202a55"></path><path d="M832 480.1L778 422.4L751 474.6Z" fill="#d1217f" stroke="#d1217f"></path><path d="M835 375.6L833 358.7L787 373.6Z" fill="#543274" stroke="#543274"></path><path d="M644 593.1L675 600L659 534.4Z" fill="#0d2343" stroke="#0d2343"></path><path d="M588 623.1L675 600L644 593.1Z" fill="#382f66" stroke="#382f66"></path><path d="M-53 324.7L0 398L0 365.6Z" fill="#ed1b76" stroke="#ed1b76"></path><path d="M0 457.4L-2 477.6L7 489.4Z" fill="#72327e" stroke="#72327e"></path><path d="M-55 205L46 197.6L-10 156.3Z" fill="#543274" stroke="#543274"></path><path d="M-55 205L-53 324.7L0 258.3Z" fill="#051a2f" stroke="#051a2f"></path><path d="M675 600L712 567.1L659 534.4Z" fill="#72327e" stroke="#72327e"></path><path d="M724 542.3L761 541.1L751 474.6Z" fill="#72327e" stroke="#72327e"></path><path d="M-36 43.7L-55 205L-10 156.3Z" fill="#d1217f" stroke="#d1217f"></path><path d="M757 0L747 0L769 92.4Z" fill="#00101c" stroke="#00101c"></path><path d="M769 92.4L747 0L730 92.6Z" fill="#051a2f" stroke="#051a2f"></path><path d="M733 0L780 -44.1L674 -4.3Z" fill="#0d2343" stroke="#0d2343"></path><path d="M790 167.1L800 90.6L762 105.4Z" fill="#b22a84" stroke="#b22a84"></path><path d="M811 80.6L800 90.6L853 148.4Z" fill="#00101c" stroke="#00101c"></path><path d="M88 0L0 34.9L64 70.9Z" fill="#543274" stroke="#543274"></path><path d="M0 112.7L-36 43.7L-10 156.3Z" fill="#0d2343" stroke="#0d2343"></path><path d="M675 600L717 571.3L712 567.1Z" fill="#b22a84" stroke="#b22a84"></path><path d="M712 567.1L717 571.3L724 542.3Z" fill="#0d2343" stroke="#0d2343"></path><path d="M0 559.1L77 600L51 490.1Z" fill="#923083" stroke="#923083"></path><path d="M108 591.3L77 600L151 606.1Z" fill="#00101c" stroke="#00101c"></path><path d="M0 534.3L51 490.1L7 489.4Z" fill="#00101c" stroke="#00101c"></path><path d="M800 8.9L757 0L769 92.4Z" fill="#051a2f" stroke="#051a2f"></path><path d="M747 0L780 -44.1L733 0Z" fill="#051a2f" stroke="#051a2f"></path><path d="M835 375.6L787 373.6L793 392.7Z" fill="#ed1b76" stroke="#ed1b76"></path><path d="M853 148.4L800 90.6L790 167.1Z" fill="#382f66" stroke="#382f66"></path><path d="M835 375.6L793 392.7L803 410.9Z" fill="#72327e" stroke="#72327e"></path><path d="M-42 470.1L0 446.7L0 406.9Z" fill="#923083" stroke="#923083"></path><path d="M-2 477.6L-21 475.4L7 489.4Z" fill="#923083" stroke="#923083"></path><path d="M868 367.7L900 388L900 387.6Z" fill="#ed1b76" stroke="#ed1b76"></path><path d="M853 148.4L782 217.3L900 183.1Z" fill="#051a2f" stroke="#051a2f"></path><path d="M800 90.6L811 80.6L769 92.4Z" fill="#d1217f" stroke="#d1217f"></path><path d="M842 349L760 345.1L833 358.7Z" fill="#72327e" stroke="#72327e"></path><path d="M835 375.6L842 349L833 358.7Z" fill="#0d2343" stroke="#0d2343"></path><path d="M717 571.3L761 541.1L724 542.3Z" fill="#ed1b76" stroke="#ed1b76"></path><path d="M88 0L0 0L0 34.9Z" fill="#202a55" stroke="#202a55"></path><path d="M0 34.9L-36 43.7L0 112.7Z" fill="#923083" stroke="#923083"></path><path d="M328 -54.1L0 0L88 0Z" fill="#543274" stroke="#543274"></path><path d="M-21 475.4L0 534.3L7 489.4Z" fill="#202a55" stroke="#202a55"></path><path d="M-53 324.7L-42 470.1L0 398Z" fill="#ed1b76" stroke="#ed1b76"></path><path d="M-21 475.4L-42 470.1L0 534.3Z" fill="#923083" stroke="#923083"></path><path d="M0 0L-36 43.7L0 34.9Z" fill="#202a55" stroke="#202a55"></path><path d="M675 600L729 600L717 571.3Z" fill="#72327e" stroke="#72327e"></path><path d="M717 571.3L774 557.3L761 541.1Z" fill="#d1217f" stroke="#d1217f"></path><path d="M588 623.1L729 600L675 600Z" fill="#051a2f" stroke="#051a2f"></path><path d="M588 623.1L732 600L729 600Z" fill="#d1217f" stroke="#d1217f"></path><path d="M729 600L732 600L717 571.3Z" fill="#72327e" stroke="#72327e"></path><path d="M900 183.1L782 217.3L816 274.3Z" fill="#d1217f" stroke="#d1217f"></path><path d="M-42 470.1L0 559.1L0 534.3Z" fill="#b22a84" stroke="#b22a84"></path><path d="M0 534.3L0 559.1L51 490.1Z" fill="#923083" stroke="#923083"></path><path d="M761 600L774 557.3L717 571.3Z" fill="#00101c" stroke="#00101c"></path><path d="M761 541.1L832 480.1L751 474.6Z" fill="#72327e" stroke="#72327e"></path><path d="M855 0L800 8.9L811 80.6Z" fill="#0d2343" stroke="#0d2343"></path><path d="M811 80.6L800 8.9L769 92.4Z" fill="#202a55" stroke="#202a55"></path><path d="M757 0L780 -44.1L747 0Z" fill="#0d2343" stroke="#0d2343"></path><path d="M835 375.6L868 367.7L842 349Z" fill="#0d2343" stroke="#0d2343"></path><path d="M842 349L900 293.9L816 274.3Z" fill="#ed1b76" stroke="#ed1b76"></path><path d="M900 398.4L835 375.6L803 410.9Z" fill="#72327e" stroke="#72327e"></path><path d="M774 557.3L832 480.1L761 541.1Z" fill="#051a2f" stroke="#051a2f"></path><path d="M855 0L780 -44.1L800 8.9Z" fill="#0d2343" stroke="#0d2343"></path><path d="M800 8.9L780 -44.1L757 0Z" fill="#b22a84" stroke="#b22a84"></path><path d="M575 -47.1L780 -44.1L328 -54.1Z" fill="#051a2f" stroke="#051a2f"></path><path d="M588 623.1L761 600L732 600Z" fill="#382f66" stroke="#382f66"></path><path d="M732 600L761 600L717 571.3Z" fill="#d1217f" stroke="#d1217f"></path><path d="M774 557.3L847 496.6L832 480.1Z" fill="#382f66" stroke="#382f66"></path><path d="M900 615.1L767 600L761 600Z" fill="#382f66" stroke="#382f66"></path><path d="M761 600L767 600L774 557.3Z" fill="#72327e" stroke="#72327e"></path><path d="M0 559.1L0 600L77 600Z" fill="#543274" stroke="#543274"></path><path d="M77 600L0 600L151 606.1Z" fill="#543274" stroke="#543274"></path><path d="M-42 470.1L0 600L0 559.1Z" fill="#d1217f" stroke="#d1217f"></path><path d="M900 313.7L842 349L901 325.1Z" fill="#b22a84" stroke="#b22a84"></path><path d="M900 313.7L900 293.9L842 349Z" fill="#923083" stroke="#923083"></path><path d="M853 148.4L875 101.7L811 80.6Z" fill="#051a2f" stroke="#051a2f"></path><path d="M900 136.7L875 101.7L853 148.4Z" fill="#72327e" stroke="#72327e"></path><path d="M886 600L847 496.6L774 557.3Z" fill="#202a55" stroke="#202a55"></path><path d="M900 388L868 367.7L900 398.4Z" fill="#202a55" stroke="#202a55"></path><path d="M901 325.1L842 349L868 367.7Z" fill="#0d2343" stroke="#0d2343"></path><path d="M900 387.6L901 325.1L868 367.7Z" fill="#d1217f" stroke="#d1217f"></path><path d="M900 313.7L917 319.9L900 293.9Z" fill="#0d2343" stroke="#0d2343"></path><path d="M917 319.9L900 183.1L900 293.9Z" fill="#0d2343" stroke="#0d2343"></path><path d="M900 293.9L900 183.1L816 274.3Z" fill="#051a2f" stroke="#051a2f"></path><path d="M908 133.3L900 171.3L900 183.1Z" fill="#923083" stroke="#923083"></path><path d="M900 183.1L900 171.3L853 148.4Z" fill="#72327e" stroke="#72327e"></path><path d="M868 367.7L835 375.6L900 398.4Z" fill="#b22a84" stroke="#b22a84"></path><path d="M900 398.4L803 410.9L832 480.1Z" fill="#d1217f" stroke="#d1217f"></path><path d="M900 387.6L917 319.9L901 325.1Z" fill="#202a55" stroke="#202a55"></path><path d="M908 133.3L900 136.7L900 171.3Z" fill="#543274" stroke="#543274"></path><path d="M900 171.3L900 136.7L853 148.4Z" fill="#382f66" stroke="#382f66"></path><path d="M874 7.7L855 0L811 80.6Z" fill="#d1217f" stroke="#d1217f"></path><path d="M900 388L917 319.9L900 387.6Z" fill="#923083" stroke="#923083"></path><path d="M895 492.4L900 398.4L832 480.1Z" fill="#051a2f" stroke="#051a2f"></path><path d="M900 398.4L917 319.9L900 388Z" fill="#00101c" stroke="#00101c"></path><path d="M901 325.1L917 319.9L900 313.7Z" fill="#ed1b76" stroke="#ed1b76"></path><path d="M917 319.9L908 133.3L900 183.1Z" fill="#923083" stroke="#923083"></path><path d="M900 136.7L908 133.3L875 101.7Z" fill="#382f66" stroke="#382f66"></path><path d="M863 0L855 0L874 7.7Z" fill="#ed1b76" stroke="#ed1b76"></path><path d="M908 133.3L900 86.9L875 101.7Z" fill="#382f66" stroke="#382f66"></path><path d="M908 133.3L900 86.4L900 86.9Z" fill="#ed1b76" stroke="#ed1b76"></path><path d="M900 86.9L900 86.4L875 101.7Z" fill="#b22a84" stroke="#b22a84"></path><path d="M874 7.7L811 80.6L900 37.6Z" fill="#b22a84" stroke="#b22a84"></path><path d="M855 0L863 0L780 -44.1Z" fill="#382f66" stroke="#382f66"></path><path d="M900 37.6L811 80.6L875 101.7Z" fill="#b22a84" stroke="#b22a84"></path><path d="M900 584.3L895 492.4L847 496.6Z" fill="#0d2343" stroke="#0d2343"></path><path d="M847 496.6L895 492.4L832 480.1Z" fill="#202a55" stroke="#202a55"></path><path d="M900 398.4L940 584.3L917 319.9Z" fill="#72327e" stroke="#72327e"></path><path d="M908 133.3L900 37.6L900 86.4Z" fill="#00101c" stroke="#00101c"></path><path d="M900 86.4L900 37.6L875 101.7Z" fill="#923083" stroke="#923083"></path><path d="M908 133.3L900 0L900 37.6Z" fill="#b22a84" stroke="#b22a84"></path><path d="M900 37.6L900 0L874 7.7Z" fill="#923083" stroke="#923083"></path><path d="M874 7.7L900 0L863 0Z" fill="#051a2f" stroke="#051a2f"></path><path d="M863 0L900 0L780 -44.1Z" fill="#d1217f" stroke="#d1217f"></path><path d="M767 600L886 600L774 557.3Z" fill="#543274" stroke="#543274"></path><path d="M895 492.4L940 584.3L900 398.4Z" fill="#923083" stroke="#923083"></path><path d="M900 615.1L886 600L767 600Z" fill="#00101c" stroke="#00101c"></path><path d="M886 600L900 584.3L847 496.6Z" fill="#ed1b76" stroke="#ed1b76"></path><path d="M900 615.1L900 600L886 600Z" fill="#543274" stroke="#543274"></path><path d="M886 600L900 600L900 584.3Z" fill="#0d2343" stroke="#0d2343"></path><path d="M900 584.3L940 584.3L895 492.4Z" fill="#ed1b76" stroke="#ed1b76"></path><path d="M588 623.1L900 615.1L761 600Z" fill="#202a55" stroke="#202a55"></path><path d="M900 600L940 584.3L900 584.3Z" fill="#72327e" stroke="#72327e"></path><path d="M900 615.1L940 584.3L900 600Z" fill="#d1217f" stroke="#d1217f"></path><path d="M917 319.9L940 584.3L908 133.3Z" fill="#923083" stroke="#923083"></path><path d="M908 133.3L940 584.3L900 0Z" fill="#d1217f" stroke="#d1217f"></path></g></svg>