<svg id="visual" viewBox="0 0 900 600" width="900" height="600" xmlns="http://www.w3.org/2000/svg" xmlns:xlink="http://www.w3.org/1999/xlink" version="1.1"><g stroke-width="1" stroke-linejoin="bevel"><path d="M452 324.7L490 303L464 290.1Z" fill="#4d1a47" stroke="#4d1a47"></path><path d="M452 324.7L504 346.9L490 303Z" fill="#151b36" stroke="#151b36"></path><path d="M555 344.9L508 279.9L490 303Z" fill="#77103d" stroke="#77103d"></path><path d="M490 303L508 279.9L464 290.1Z" fill="#2f1d43" stroke="#2f1d43"></path><path d="M382 272.1L408 298L414 232.3Z" fill="#77103d" stroke="#77103d"></path><path d="M464 290.1L408 298L452 324.7Z" fill="#211c3e" stroke="#211c3e"></path><path d="M406 344.7L458 374.6L452 324.7Z" fill="#6a1343" stroke="#6a1343"></path><path d="M452 324.7L458 374.6L504 346.9Z" fill="#211c3e" stroke="#211c3e"></path><path d="M508 279.9L508 257.3L464 290.1Z" fill="#77103d" stroke="#77103d"></path><path d="M408 298L406 344.7L452 324.7Z" fill="#211c3e" stroke="#211c3e"></path><path d="M435 392.7L468 387.7L458 374.6Z" fill="#77103d" stroke="#77103d"></path><path d="M458 374.6L468 387.7L504 346.9Z" fill="#77103d" stroke="#77103d"></path><path d="M376 343.7L403 353L406 344.7Z" fill="#00101c" stroke="#00101c"></path><path d="M406 344.7L420 380.9L458 374.6Z" fill="#051525" stroke="#051525"></path><path d="M403 353L420 380.9L406 344.7Z" fill="#00101c" stroke="#00101c"></path><path d="M420 380.9L435 392.7L458 374.6Z" fill="#211c3e" stroke="#211c3e"></path><path d="M508 257.3L437 207.6L464 290.1Z" fill="#5c1746" stroke="#5c1746"></path><path d="M534 395.9L555 344.9L504 346.9Z" fill="#211c3e" stroke="#211c3e"></path><path d="M504 346.9L555 344.9L490 303Z" fill="#3e1c46" stroke="#3e1c46"></path><path d="M508 279.9L569 250L508 257.3Z" fill="#00101c" stroke="#00101c"></path><path d="M508 257.3L564 226.3L508 230Z" fill="#211c3e" stroke="#211c3e"></path><path d="M525 198.1L507 225.3L508 230Z" fill="#5c1746" stroke="#5c1746"></path><path d="M437 207.6L414 232.3L464 290.1Z" fill="#5c1746" stroke="#5c1746"></path><path d="M414 232.3L408 298L464 290.1Z" fill="#4d1a47" stroke="#4d1a47"></path><path d="M408 298L376 343.7L406 344.7Z" fill="#4d1a47" stroke="#4d1a47"></path><path d="M437 207.6L508 257.3L508 230Z" fill="#77103d" stroke="#77103d"></path><path d="M361 307.9L376 343.7L408 298Z" fill="#211c3e" stroke="#211c3e"></path><path d="M403 353L383 396.7L420 380.9Z" fill="#6a1343" stroke="#6a1343"></path><path d="M439 422.9L489 411.4L468 387.7Z" fill="#5c1746" stroke="#5c1746"></path><path d="M468 387.7L489 411.4L504 346.9Z" fill="#3e1c46" stroke="#3e1c46"></path><path d="M414 232.3L390 242.4L382 272.1Z" fill="#211c3e" stroke="#211c3e"></path><path d="M489 411.4L534 395.9L504 346.9Z" fill="#77103d" stroke="#77103d"></path><path d="M534 395.9L562 368L555 344.9Z" fill="#00101c" stroke="#00101c"></path><path d="M356 313L361 307.9L289 246.1Z" fill="#4d1a47" stroke="#4d1a47"></path><path d="M382 272.1L361 307.9L408 298Z" fill="#6a1343" stroke="#6a1343"></path><path d="M507 225.3L437 207.6L508 230Z" fill="#6a1343" stroke="#6a1343"></path><path d="M414 232.3L372 221.1L390 242.4Z" fill="#4d1a47" stroke="#4d1a47"></path><path d="M361 307.9L362 333L376 343.7Z" fill="#77103d" stroke="#77103d"></path><path d="M383 396.7L435 392.7L420 380.9Z" fill="#00101c" stroke="#00101c"></path><path d="M595 272.9L576 284.3L605 376.7Z" fill="#051525" stroke="#051525"></path><path d="M555 344.9L576 284.3L508 279.9Z" fill="#151b36" stroke="#151b36"></path><path d="M361 307.9L356 313L362 333Z" fill="#6a1343" stroke="#6a1343"></path><path d="M346 224.3L361 307.9L382 272.1Z" fill="#151b36" stroke="#151b36"></path><path d="M383 396.7L439 422.9L435 392.7Z" fill="#151b36" stroke="#151b36"></path><path d="M435 392.7L439 422.9L468 387.7Z" fill="#3e1c46" stroke="#3e1c46"></path><path d="M383 396.7L403 353L376 343.7Z" fill="#0b182e" stroke="#0b182e"></path><path d="M576 284.3L569 250L508 279.9Z" fill="#211c3e" stroke="#211c3e"></path><path d="M341 408.7L383 396.7L376 343.7Z" fill="#77103d" stroke="#77103d"></path><path d="M612 251.3L570 238.1L569 250Z" fill="#00101c" stroke="#00101c"></path><path d="M569 250L564 226.3L508 257.3Z" fill="#211c3e" stroke="#211c3e"></path><path d="M507 225.3L498 186.6L437 207.6Z" fill="#5c1746" stroke="#5c1746"></path><path d="M576 284.3L589 272.1L569 250Z" fill="#00101c" stroke="#00101c"></path><path d="M595 272.9L589 272.1L576 284.3Z" fill="#151b36" stroke="#151b36"></path><path d="M564 226.3L525 198.1L508 230Z" fill="#00101c" stroke="#00101c"></path><path d="M612 251.3L564 226.3L570 238.1Z" fill="#4d1a47" stroke="#4d1a47"></path><path d="M570 238.1L564 226.3L569 250Z" fill="#0b182e" stroke="#0b182e"></path><path d="M525 198.1L498 186.6L507 225.3Z" fill="#151b36" stroke="#151b36"></path><path d="M605 376.7L576 284.3L555 344.9Z" fill="#051525" stroke="#051525"></path><path d="M589 272.1L612 251.3L569 250Z" fill="#5c1746" stroke="#5c1746"></path><path d="M380 194.4L372 221.1L414 232.3Z" fill="#211c3e" stroke="#211c3e"></path><path d="M390 242.4L346 224.3L382 272.1Z" fill="#77103d" stroke="#77103d"></path><path d="M380 194.4L414 232.3L437 207.6Z" fill="#77103d" stroke="#77103d"></path><path d="M430 461.4L457 453.6L439 422.9Z" fill="#211c3e" stroke="#211c3e"></path><path d="M439 422.9L457 453.6L489 411.4Z" fill="#211c3e" stroke="#211c3e"></path><path d="M538 456.4L560 440.6L534 395.9Z" fill="#3e1c46" stroke="#3e1c46"></path><path d="M379 190.1L380 194.4L383 175.6Z" fill="#77103d" stroke="#77103d"></path><path d="M591 435.3L605 376.7L562 368Z" fill="#211c3e" stroke="#211c3e"></path><path d="M562 368L605 376.7L555 344.9Z" fill="#211c3e" stroke="#211c3e"></path><path d="M591 435.3L562 368L534 395.9Z" fill="#6a1343" stroke="#6a1343"></path><path d="M380 194.4L346 224.3L372 221.1Z" fill="#051525" stroke="#051525"></path><path d="M372 221.1L346 224.3L390 242.4Z" fill="#211c3e" stroke="#211c3e"></path><path d="M383 175.6L380 194.4L437 207.6Z" fill="#2f1d43" stroke="#2f1d43"></path><path d="M380 194.4L379 190.1L346 224.3Z" fill="#00101c" stroke="#00101c"></path><path d="M680 298.9L612 251.3L595 272.9Z" fill="#211c3e" stroke="#211c3e"></path><path d="M595 272.9L612 251.3L589 272.1Z" fill="#77103d" stroke="#77103d"></path><path d="M564 226.3L526 145.4L525 198.1Z" fill="#4d1a47" stroke="#4d1a47"></path><path d="M389 453.3L430 461.4L439 422.9Z" fill="#051525" stroke="#051525"></path><path d="M538 456.4L489 411.4L532 466.6Z" fill="#77103d" stroke="#77103d"></path><path d="M538 456.4L534 395.9L489 411.4Z" fill="#151b36" stroke="#151b36"></path><path d="M532 466.6L489 411.4L457 453.6Z" fill="#151b36" stroke="#151b36"></path><path d="M469 116.7L383 175.6L437 207.6Z" fill="#2f1d43" stroke="#2f1d43"></path><path d="M295 170.6L289 181.6L346 224.3Z" fill="#3e1c46" stroke="#3e1c46"></path><path d="M311 415.4L341 408.7L263 351Z" fill="#5c1746" stroke="#5c1746"></path><path d="M362 333L341 408.7L376 343.7Z" fill="#77103d" stroke="#77103d"></path><path d="M383 396.7L389 453.3L439 422.9Z" fill="#77103d" stroke="#77103d"></path><path d="M341 408.7L362 333L263 351Z" fill="#2f1d43" stroke="#2f1d43"></path><path d="M341 408.7L389 453.3L383 396.7Z" fill="#5c1746" stroke="#5c1746"></path><path d="M477 485.1L532 466.6L457 453.6Z" fill="#0b182e" stroke="#0b182e"></path><path d="M538 456.4L552 457.3L560 440.6Z" fill="#211c3e" stroke="#211c3e"></path><path d="M556 468.3L552 457.3L538 456.4Z" fill="#211c3e" stroke="#211c3e"></path><path d="M591 435.3L619 394.4L605 376.7Z" fill="#2f1d43" stroke="#2f1d43"></path><path d="M591 435.3L534 395.9L560 440.6Z" fill="#3e1c46" stroke="#3e1c46"></path><path d="M605 376.7L680 298.9L595 272.9Z" fill="#3e1c46" stroke="#3e1c46"></path><path d="M556 468.3L591 435.3L560 440.6Z" fill="#2f1d43" stroke="#2f1d43"></path><path d="M660 438.4L624 390.7L619 394.4Z" fill="#151b36" stroke="#151b36"></path><path d="M619 394.4L624 390.7L605 376.7Z" fill="#151b36" stroke="#151b36"></path><path d="M432 512.3L477 485.1L430 461.4Z" fill="#151b36" stroke="#151b36"></path><path d="M430 461.4L477 485.1L457 453.6Z" fill="#5c1746" stroke="#5c1746"></path><path d="M525 198.1L526 145.4L498 186.6Z" fill="#3e1c46" stroke="#3e1c46"></path><path d="M498 186.6L481 134.4L437 207.6Z" fill="#051525" stroke="#051525"></path><path d="M581 113.4L526 145.4L564 226.3Z" fill="#2f1d43" stroke="#2f1d43"></path><path d="M511 137.7L481 134.4L498 186.6Z" fill="#77103d" stroke="#77103d"></path><path d="M581 113.4L524 142.4L526 145.4Z" fill="#051525" stroke="#051525"></path><path d="M526 145.4L511 137.7L498 186.6Z" fill="#3e1c46" stroke="#3e1c46"></path><path d="M524 142.4L511 137.7L526 145.4Z" fill="#4d1a47" stroke="#4d1a47"></path><path d="M552 457.3L556 468.3L560 440.6Z" fill="#5c1746" stroke="#5c1746"></path><path d="M532 466.6L556 468.3L538 456.4Z" fill="#0b182e" stroke="#0b182e"></path><path d="M591 488.3L556 468.3L484 540.1Z" fill="#3e1c46" stroke="#3e1c46"></path><path d="M263 351L362 333L356 313Z" fill="#211c3e" stroke="#211c3e"></path><path d="M341 408.7L301 470.6L389 453.3Z" fill="#3e1c46" stroke="#3e1c46"></path><path d="M289 181.6L289 246.1L346 224.3Z" fill="#77103d" stroke="#77103d"></path><path d="M346 224.3L289 246.1L361 307.9Z" fill="#051525" stroke="#051525"></path><path d="M511 137.7L469 116.7L481 134.4Z" fill="#151b36" stroke="#151b36"></path><path d="M481 134.4L469 116.7L437 207.6Z" fill="#211c3e" stroke="#211c3e"></path><path d="M525 86.6L469 116.7L511 137.7Z" fill="#2f1d43" stroke="#2f1d43"></path><path d="M683 290.9L645 218.1L612 251.3Z" fill="#151b36" stroke="#151b36"></path><path d="M612 251.3L645 218.1L564 226.3Z" fill="#5c1746" stroke="#5c1746"></path><path d="M385 498.1L430 461.4L389 453.3Z" fill="#151b36" stroke="#151b36"></path><path d="M385 498.1L432 512.3L430 461.4Z" fill="#5c1746" stroke="#5c1746"></path><path d="M484 540.1L556 468.3L532 466.6Z" fill="#211c3e" stroke="#211c3e"></path><path d="M339 516.4L385 498.1L389 453.3Z" fill="#77103d" stroke="#77103d"></path><path d="M381 530.4L386 500.6L339 516.4Z" fill="#2f1d43" stroke="#2f1d43"></path><path d="M385 498.1L386 500.6L432 512.3Z" fill="#0b182e" stroke="#0b182e"></path><path d="M247 319.1L263 351L356 313Z" fill="#151b36" stroke="#151b36"></path><path d="M591 488.3L591 435.3L556 468.3Z" fill="#211c3e" stroke="#211c3e"></path><path d="M591 488.3L623 455.7L591 435.3Z" fill="#5c1746" stroke="#5c1746"></path><path d="M591 435.3L623 455.7L619 394.4Z" fill="#3e1c46" stroke="#3e1c46"></path><path d="M624 390.7L680 298.9L605 376.7Z" fill="#77103d" stroke="#77103d"></path><path d="M675 396.6L680 298.9L624 390.7Z" fill="#051525" stroke="#051525"></path><path d="M469 116.7L381 118.7L383 175.6Z" fill="#77103d" stroke="#77103d"></path><path d="M295 170.6L346 224.3L379 190.1Z" fill="#77103d" stroke="#77103d"></path><path d="M757 272.1L683 290.9L680 298.9Z" fill="#151b36" stroke="#151b36"></path><path d="M680 298.9L683 290.9L612 251.3Z" fill="#5c1746" stroke="#5c1746"></path><path d="M484 540.1L532 466.6L477 485.1Z" fill="#3e1c46" stroke="#3e1c46"></path><path d="M250 357.9L257 368L263 351Z" fill="#3e1c46" stroke="#3e1c46"></path><path d="M263 351L257 368L311 415.4Z" fill="#0b182e" stroke="#0b182e"></path><path d="M311 415.4L301 470.6L341 408.7Z" fill="#151b36" stroke="#151b36"></path><path d="M660 438.4L675 396.6L624 390.7Z" fill="#211c3e" stroke="#211c3e"></path><path d="M295 170.6L379 190.1L383 175.6Z" fill="#051525" stroke="#051525"></path><path d="M289 246.1L247 319.1L356 313Z" fill="#5c1746" stroke="#5c1746"></path><path d="M225 288.9L247 319.1L289 246.1Z" fill="#6a1343" stroke="#6a1343"></path><path d="M381 118.7L295 170.6L383 175.6Z" fill="#4d1a47" stroke="#4d1a47"></path><path d="M247 319.1L250 357.9L263 351Z" fill="#0b182e" stroke="#0b182e"></path><path d="M255 451.4L311 415.4L257 368Z" fill="#6a1343" stroke="#6a1343"></path><path d="M255 451.4L292 450.4L311 415.4Z" fill="#151b36" stroke="#151b36"></path><path d="M645 218.1L581 113.4L564 226.3Z" fill="#5c1746" stroke="#5c1746"></path><path d="M524 142.4L525 86.6L511 137.7Z" fill="#211c3e" stroke="#211c3e"></path><path d="M417 37.9L357 83.7L381 118.7Z" fill="#2f1d43" stroke="#2f1d43"></path><path d="M623 455.7L660 438.4L619 394.4Z" fill="#211c3e" stroke="#211c3e"></path><path d="M657 480.6L660 438.4L623 455.7Z" fill="#4d1a47" stroke="#4d1a47"></path><path d="M481 551.1L484 540.1L452 559.3Z" fill="#151b36" stroke="#151b36"></path><path d="M432 512.3L484 540.1L477 485.1Z" fill="#051525" stroke="#051525"></path><path d="M581 113.4L525 86.6L524 142.4Z" fill="#211c3e" stroke="#211c3e"></path><path d="M255 451.4L301 470.6L292 450.4Z" fill="#77103d" stroke="#77103d"></path><path d="M292 450.4L301 470.6L311 415.4Z" fill="#051525" stroke="#051525"></path><path d="M386 500.6L381 530.4L432 512.3Z" fill="#6a1343" stroke="#6a1343"></path><path d="M260 188.4L289 246.1L289 181.6Z" fill="#3e1c46" stroke="#3e1c46"></path><path d="M260 188.4L250 228.3L289 246.1Z" fill="#77103d" stroke="#77103d"></path><path d="M339 516.4L386 500.6L385 498.1Z" fill="#77103d" stroke="#77103d"></path><path d="M452 559.3L484 540.1L432 512.3Z" fill="#2f1d43" stroke="#2f1d43"></path><path d="M577 600L619 547.4L591 488.3Z" fill="#77103d" stroke="#77103d"></path><path d="M683 290.9L700 243L645 218.1Z" fill="#4d1a47" stroke="#4d1a47"></path><path d="M645 218.1L637 112.9L581 113.4Z" fill="#2f1d43" stroke="#2f1d43"></path><path d="M757 272.1L700 243L683 290.9Z" fill="#2f1d43" stroke="#2f1d43"></path><path d="M301 470.6L339 516.4L389 453.3Z" fill="#2f1d43" stroke="#2f1d43"></path><path d="M261 150.4L260 188.4L289 181.6Z" fill="#211c3e" stroke="#211c3e"></path><path d="M261 150.4L289 181.6L295 170.6Z" fill="#77103d" stroke="#77103d"></path><path d="M203 226.3L231 254.3L250 228.3Z" fill="#0b182e" stroke="#0b182e"></path><path d="M250 228.3L231 254.3L289 246.1Z" fill="#00101c" stroke="#00101c"></path><path d="M247 319.1L224 344L250 357.9Z" fill="#3e1c46" stroke="#3e1c46"></path><path d="M231 254.3L225 288.9L289 246.1Z" fill="#00101c" stroke="#00101c"></path><path d="M208 335.9L224 344L247 319.1Z" fill="#6a1343" stroke="#6a1343"></path><path d="M250 357.9L224 344L257 368Z" fill="#3e1c46" stroke="#3e1c46"></path><path d="M386 552.3L452 559.3L432 512.3Z" fill="#4d1a47" stroke="#4d1a47"></path><path d="M386 552.3L432 512.3L381 530.4Z" fill="#3e1c46" stroke="#3e1c46"></path><path d="M657 518.4L657 480.6L591 488.3Z" fill="#211c3e" stroke="#211c3e"></path><path d="M591 488.3L657 480.6L623 455.7Z" fill="#0b182e" stroke="#0b182e"></path><path d="M660 438.4L700 424.6L675 396.6Z" fill="#051525" stroke="#051525"></path><path d="M417 37.9L381 118.7L469 116.7Z" fill="#211c3e" stroke="#211c3e"></path><path d="M381 118.7L326 87.7L295 170.6Z" fill="#151b36" stroke="#151b36"></path><path d="M353 556.1L386 552.3L381 530.4Z" fill="#5c1746" stroke="#5c1746"></path><path d="M204 465.6L255 451.4L257 368Z" fill="#4d1a47" stroke="#4d1a47"></path><path d="M301 470.6L235 556.1L339 516.4Z" fill="#3e1c46" stroke="#3e1c46"></path><path d="M718 455.6L700 424.6L660 438.4Z" fill="#3e1c46" stroke="#3e1c46"></path><path d="M757 372L757 272.1L680 298.9Z" fill="#77103d" stroke="#77103d"></path><path d="M712 173.3L679 158.3L645 218.1Z" fill="#3e1c46" stroke="#3e1c46"></path><path d="M581 113.4L551 48.9L525 86.6Z" fill="#77103d" stroke="#77103d"></path><path d="M679 158.3L637 112.9L645 218.1Z" fill="#3e1c46" stroke="#3e1c46"></path><path d="M225 288.9L208 335.9L247 319.1Z" fill="#3e1c46" stroke="#3e1c46"></path><path d="M224 344L169 369.6L257 368Z" fill="#5c1746" stroke="#5c1746"></path><path d="M194 337.7L208 335.9L176 324Z" fill="#211c3e" stroke="#211c3e"></path><path d="M326 87.7L261 150.4L295 170.6Z" fill="#2f1d43" stroke="#2f1d43"></path><path d="M208 191.3L203 226.3L250 228.3Z" fill="#211c3e" stroke="#211c3e"></path><path d="M357 83.7L326 87.7L381 118.7Z" fill="#051525" stroke="#051525"></path><path d="M339 516.4L353 556.1L381 530.4Z" fill="#151b36" stroke="#151b36"></path><path d="M384 600L490 600L452 559.3Z" fill="#3e1c46" stroke="#3e1c46"></path><path d="M312 600L353 556.1L339 516.4Z" fill="#151b36" stroke="#151b36"></path><path d="M679 158.3L679 135.7L637 112.9Z" fill="#2f1d43" stroke="#2f1d43"></path><path d="M719 134.7L679 135.7L679 158.3Z" fill="#77103d" stroke="#77103d"></path><path d="M602 50.6L551 48.9L581 113.4Z" fill="#0b182e" stroke="#0b182e"></path><path d="M483 14.7L417 37.9L469 116.7Z" fill="#4d1a47" stroke="#4d1a47"></path><path d="M357 83.7L322 49.9L326 87.7Z" fill="#4d1a47" stroke="#4d1a47"></path><path d="M645 82.7L581 113.4L637 112.9Z" fill="#00101c" stroke="#00101c"></path><path d="M176 324L208 335.9L225 288.9Z" fill="#00101c" stroke="#00101c"></path><path d="M208 335.9L194 337.7L224 344Z" fill="#4d1a47" stroke="#4d1a47"></path><path d="M195 230.4L225 288.9L231 254.3Z" fill="#051525" stroke="#051525"></path><path d="M483 14.7L469 116.7L525 86.6Z" fill="#3e1c46" stroke="#3e1c46"></path><path d="M719 171.4L712 173.3L739 192.1Z" fill="#5c1746" stroke="#5c1746"></path><path d="M700 243L712 173.3L645 218.1Z" fill="#4d1a47" stroke="#4d1a47"></path><path d="M640 538.3L657 518.4L591 488.3Z" fill="#5c1746" stroke="#5c1746"></path><path d="M718 455.6L726 435.7L700 424.6Z" fill="#211c3e" stroke="#211c3e"></path><path d="M591 488.3L484 540.1L523 600Z" fill="#00101c" stroke="#00101c"></path><path d="M523 600L484 540.1L481 551.1Z" fill="#77103d" stroke="#77103d"></path><path d="M208 191.3L250 228.3L260 188.4Z" fill="#2f1d43" stroke="#2f1d43"></path><path d="M619 547.4L640 538.3L591 488.3Z" fill="#00101c" stroke="#00101c"></path><path d="M718 455.6L660 438.4L657 480.6Z" fill="#5c1746" stroke="#5c1746"></path><path d="M700 424.6L757 372L675 396.6Z" fill="#5c1746" stroke="#5c1746"></path><path d="M704 113.6L658 97.4L679 135.7Z" fill="#3e1c46" stroke="#3e1c46"></path><path d="M679 135.7L658 97.4L637 112.9Z" fill="#3e1c46" stroke="#3e1c46"></path><path d="M739 192.1L712 173.3L700 243Z" fill="#5c1746" stroke="#5c1746"></path><path d="M712 173.3L719 134.7L679 158.3Z" fill="#2f1d43" stroke="#2f1d43"></path><path d="M208 191.3L195 230.4L203 226.3Z" fill="#3e1c46" stroke="#3e1c46"></path><path d="M203 226.3L195 230.4L231 254.3Z" fill="#5c1746" stroke="#5c1746"></path><path d="M657 518.4L718 455.6L657 480.6Z" fill="#151b36" stroke="#151b36"></path><path d="M784 426.6L718 455.6L783 504.1Z" fill="#151b36" stroke="#151b36"></path><path d="M196 136.3L208 191.3L261 150.4Z" fill="#5c1746" stroke="#5c1746"></path><path d="M261 150.4L208 191.3L260 188.4Z" fill="#211c3e" stroke="#211c3e"></path><path d="M658 97.4L645 82.7L637 112.9Z" fill="#5c1746" stroke="#5c1746"></path><path d="M204 465.6L240 486.3L255 451.4Z" fill="#0b182e" stroke="#0b182e"></path><path d="M255 451.4L240 486.3L301 470.6Z" fill="#211c3e" stroke="#211c3e"></path><path d="M384 600L452 559.3L386 552.3Z" fill="#051525" stroke="#051525"></path><path d="M452 559.3L490 600L481 551.1Z" fill="#2f1d43" stroke="#2f1d43"></path><path d="M757 372L680 298.9L675 396.6Z" fill="#2f1d43" stroke="#2f1d43"></path><path d="M645 82.7L602 50.6L581 113.4Z" fill="#3e1c46" stroke="#3e1c46"></path><path d="M517 17.9L483 14.7L525 86.6Z" fill="#3e1c46" stroke="#3e1c46"></path><path d="M490 600L523 600L481 551.1Z" fill="#2f1d43" stroke="#2f1d43"></path><path d="M619 547.4L643 600L640 538.3Z" fill="#2f1d43" stroke="#2f1d43"></path><path d="M767 393.7L757 372L726 435.7Z" fill="#211c3e" stroke="#211c3e"></path><path d="M726 435.7L757 372L700 424.6Z" fill="#00101c" stroke="#00101c"></path><path d="M165 308.7L176 324L225 288.9Z" fill="#0b182e" stroke="#0b182e"></path><path d="M194 337.7L169 369.6L224 344Z" fill="#3e1c46" stroke="#3e1c46"></path><path d="M767 252L739 192.1L700 243Z" fill="#151b36" stroke="#151b36"></path><path d="M719 171.4L719 134.7L712 173.3Z" fill="#3e1c46" stroke="#3e1c46"></path><path d="M517 17.9L525 86.6L551 48.9Z" fill="#151b36" stroke="#151b36"></path><path d="M569 -8.1L517 17.9L551 48.9Z" fill="#00101c" stroke="#00101c"></path><path d="M372 0L322 49.9L357 83.7Z" fill="#5c1746" stroke="#5c1746"></path><path d="M326 87.7L235 84.9L261 150.4Z" fill="#4d1a47" stroke="#4d1a47"></path><path d="M317 48.7L322 49.9L345 0Z" fill="#6a1343" stroke="#6a1343"></path><path d="M383 600L386 552.3L353 556.1Z" fill="#3e1c46" stroke="#3e1c46"></path><path d="M383 600L384 600L386 552.3Z" fill="#2f1d43" stroke="#2f1d43"></path><path d="M312 600L383 600L353 556.1Z" fill="#00101c" stroke="#00101c"></path><path d="M322 49.9L312 54.6L326 87.7Z" fill="#4d1a47" stroke="#4d1a47"></path><path d="M645 82.7L620 49.6L602 50.6Z" fill="#77103d" stroke="#77103d"></path><path d="M602 50.6L569 -8.1L551 48.9Z" fill="#051525" stroke="#051525"></path><path d="M623 45.9L620 49.6L645 82.7Z" fill="#0b182e" stroke="#0b182e"></path><path d="M680 79.6L645 82.7L658 97.4Z" fill="#2f1d43" stroke="#2f1d43"></path><path d="M770 267.3L767 252L757 272.1Z" fill="#211c3e" stroke="#211c3e"></path><path d="M757 272.1L767 252L700 243Z" fill="#2f1d43" stroke="#2f1d43"></path><path d="M792 340L770 267.3L757 272.1Z" fill="#4d1a47" stroke="#4d1a47"></path><path d="M372 0L357 83.7L417 37.9Z" fill="#77103d" stroke="#77103d"></path><path d="M322 49.9L317 48.7L312 54.6Z" fill="#151b36" stroke="#151b36"></path><path d="M157 297.1L225 288.9L195 230.4Z" fill="#151b36" stroke="#151b36"></path><path d="M157 297.1L165 308.7L225 288.9Z" fill="#3e1c46" stroke="#3e1c46"></path><path d="M176 324L169 369.6L194 337.7Z" fill="#2f1d43" stroke="#2f1d43"></path><path d="M770 165.4L719 171.4L739 192.1Z" fill="#4d1a47" stroke="#4d1a47"></path><path d="M770 165.4L719 134.7L719 171.4Z" fill="#5c1746" stroke="#5c1746"></path><path d="M121 355.9L169 369.6L176 324Z" fill="#2f1d43" stroke="#2f1d43"></path><path d="M680 79.6L623 45.9L645 82.7Z" fill="#3e1c46" stroke="#3e1c46"></path><path d="M620 49.6L623 45.9L602 50.6Z" fill="#151b36" stroke="#151b36"></path><path d="M719 134.7L704 113.6L679 135.7Z" fill="#211c3e" stroke="#211c3e"></path><path d="M169 369.6L204 465.6L257 368Z" fill="#3e1c46" stroke="#3e1c46"></path><path d="M235 556.1L312 600L339 516.4Z" fill="#3e1c46" stroke="#3e1c46"></path><path d="M523 600L577 600L591 488.3Z" fill="#151b36" stroke="#151b36"></path><path d="M784 426.6L767 393.7L726 435.7Z" fill="#051525" stroke="#051525"></path><path d="M757 372L792 340L757 272.1Z" fill="#77103d" stroke="#77103d"></path><path d="M577 600L584 600L619 547.4Z" fill="#3e1c46" stroke="#3e1c46"></path><path d="M739 533.4L718 455.6L657 518.4Z" fill="#2f1d43" stroke="#2f1d43"></path><path d="M523 600L523 625.1L577 600Z" fill="#0b182e" stroke="#0b182e"></path><path d="M577 600L523 625.1L584 600Z" fill="#2f1d43" stroke="#2f1d43"></path><path d="M490 600L512 620.1L523 600Z" fill="#0b182e" stroke="#0b182e"></path><path d="M384 600L512 620.1L490 600Z" fill="#4d1a47" stroke="#4d1a47"></path><path d="M523 625.1L512 620.1L384 600Z" fill="#77103d" stroke="#77103d"></path><path d="M492 0L459 0L483 14.7Z" fill="#0b182e" stroke="#0b182e"></path><path d="M483 14.7L459 0L417 37.9Z" fill="#00101c" stroke="#00101c"></path><path d="M492 0L483 14.7L498 0Z" fill="#77103d" stroke="#77103d"></path><path d="M498 0L483 14.7L517 17.9Z" fill="#211c3e" stroke="#211c3e"></path><path d="M569 -8.1L498 0L517 17.9Z" fill="#4d1a47" stroke="#4d1a47"></path><path d="M153 235L157 297.1L195 230.4Z" fill="#4d1a47" stroke="#4d1a47"></path><path d="M165 308.7L121 355.9L176 324Z" fill="#051525" stroke="#051525"></path><path d="M704 113.6L680 79.6L658 97.4Z" fill="#4d1a47" stroke="#4d1a47"></path><path d="M753 60.6L680 79.6L704 113.6Z" fill="#5c1746" stroke="#5c1746"></path><path d="M459 0L422 0L417 37.9Z" fill="#2f1d43" stroke="#2f1d43"></path><path d="M383 600L523 625.1L384 600Z" fill="#0b182e" stroke="#0b182e"></path><path d="M512 620.1L523 625.1L523 600Z" fill="#5c1746" stroke="#5c1746"></path><path d="M767 393.7L792 340L757 372Z" fill="#0b182e" stroke="#0b182e"></path><path d="M770 267.3L785 227.1L767 252Z" fill="#3e1c46" stroke="#3e1c46"></path><path d="M210 110.4L196 136.3L261 150.4Z" fill="#211c3e" stroke="#211c3e"></path><path d="M164 176.4L153 235L195 230.4Z" fill="#5c1746" stroke="#5c1746"></path><path d="M235 84.9L326 87.7L312 54.6Z" fill="#00101c" stroke="#00101c"></path><path d="M164 176.4L195 230.4L208 191.3Z" fill="#77103d" stroke="#77103d"></path><path d="M287 0L312 54.6L317 48.7Z" fill="#4d1a47" stroke="#4d1a47"></path><path d="M287 0L235 84.9L312 54.6Z" fill="#6a1343" stroke="#6a1343"></path><path d="M422 0L372 0L417 37.9Z" fill="#2f1d43" stroke="#2f1d43"></path><path d="M831 272L785 227.1L770 267.3Z" fill="#6a1343" stroke="#6a1343"></path><path d="M767 252L785 227.1L739 192.1Z" fill="#151b36" stroke="#151b36"></path><path d="M719 134.7L753 98.9L704 113.6Z" fill="#051525" stroke="#051525"></path><path d="M235 84.9L210 110.4L261 150.4Z" fill="#051525" stroke="#051525"></path><path d="M235 556.1L301 470.6L240 486.3Z" fill="#2f1d43" stroke="#2f1d43"></path><path d="M383 600L312 600L523 625.1Z" fill="#4d1a47" stroke="#4d1a47"></path><path d="M206 518.3L210 514.1L175 494.6Z" fill="#6a1343" stroke="#6a1343"></path><path d="M204 465.6L210 514.1L240 486.3Z" fill="#00101c" stroke="#00101c"></path><path d="M781 198.3L775 187.4L739 192.1Z" fill="#151b36" stroke="#151b36"></path><path d="M169 369.6L155 411.7L204 465.6Z" fill="#77103d" stroke="#77103d"></path><path d="M121 355.9L155 411.7L169 369.6Z" fill="#5c1746" stroke="#5c1746"></path><path d="M121 355.9L165 308.7L157 297.1Z" fill="#77103d" stroke="#77103d"></path><path d="M785 227.1L781 198.3L739 192.1Z" fill="#051525" stroke="#051525"></path><path d="M799 164.4L770 165.4L775 187.4Z" fill="#77103d" stroke="#77103d"></path><path d="M775 187.4L770 165.4L739 192.1Z" fill="#00101c" stroke="#00101c"></path><path d="M165 102.9L164 176.4L196 136.3Z" fill="#211c3e" stroke="#211c3e"></path><path d="M196 136.3L164 176.4L208 191.3Z" fill="#4d1a47" stroke="#4d1a47"></path><path d="M647 0L569 -8.1L623 45.9Z" fill="#151b36" stroke="#151b36"></path><path d="M623 45.9L569 -8.1L602 50.6Z" fill="#4d1a47" stroke="#4d1a47"></path><path d="M498 0L486 -25.1L492 0Z" fill="#5c1746" stroke="#5c1746"></path><path d="M492 0L486 -25.1L459 0Z" fill="#5c1746" stroke="#5c1746"></path><path d="M459 0L486 -25.1L422 0Z" fill="#151b36" stroke="#151b36"></path><path d="M422 0L486 -25.1L372 0Z" fill="#4d1a47" stroke="#4d1a47"></path><path d="M739 533.4L657 518.4L732 567.1Z" fill="#2f1d43" stroke="#2f1d43"></path><path d="M718 455.6L784 426.6L726 435.7Z" fill="#3e1c46" stroke="#3e1c46"></path><path d="M767 393.7L824 363.7L792 340Z" fill="#211c3e" stroke="#211c3e"></path><path d="M175 494.6L210 514.1L204 465.6Z" fill="#151b36" stroke="#151b36"></path><path d="M210 514.1L235 556.1L240 486.3Z" fill="#2f1d43" stroke="#2f1d43"></path><path d="M486 -25.1L345 0L372 0Z" fill="#4d1a47" stroke="#4d1a47"></path><path d="M372 0L345 0L322 49.9Z" fill="#3e1c46" stroke="#3e1c46"></path><path d="M523 625.1L643 600L584 600Z" fill="#6a1343" stroke="#6a1343"></path><path d="M584 600L643 600L619 547.4Z" fill="#00101c" stroke="#00101c"></path><path d="M569 -8.1L486 -25.1L498 0Z" fill="#00101c" stroke="#00101c"></path><path d="M728 636.1L644 600L643 600Z" fill="#00101c" stroke="#00101c"></path><path d="M643 600L644 600L640 538.3Z" fill="#00101c" stroke="#00101c"></path><path d="M206 518.3L235 556.1L210 514.1Z" fill="#151b36" stroke="#151b36"></path><path d="M155 411.7L171 472.6L204 465.6Z" fill="#5c1746" stroke="#5c1746"></path><path d="M157 510.3L175 494.6L171 472.6Z" fill="#00101c" stroke="#00101c"></path><path d="M171 472.6L175 494.6L204 465.6Z" fill="#00101c" stroke="#00101c"></path><path d="M206 518.3L185 533.4L235 556.1Z" fill="#0b182e" stroke="#0b182e"></path><path d="M698 587.1L657 518.4L640 538.3Z" fill="#3e1c46" stroke="#3e1c46"></path><path d="M118 262.3L157 297.1L153 235Z" fill="#0b182e" stroke="#0b182e"></path><path d="M94 307.1L121 355.9L157 297.1Z" fill="#2f1d43" stroke="#2f1d43"></path><path d="M155 411.7L133 451.4L171 472.6Z" fill="#6a1343" stroke="#6a1343"></path><path d="M124 216.4L153 235L164 176.4Z" fill="#6a1343" stroke="#6a1343"></path><path d="M124 216.4L127 226.1L153 235Z" fill="#77103d" stroke="#77103d"></path><path d="M189 77.9L196 87.6L210 45.9Z" fill="#0b182e" stroke="#0b182e"></path><path d="M235 84.9L196 87.6L210 110.4Z" fill="#4d1a47" stroke="#4d1a47"></path><path d="M210 110.4L165 102.9L196 136.3Z" fill="#151b36" stroke="#151b36"></path><path d="M799 164.4L753 98.9L770 165.4Z" fill="#2f1d43" stroke="#2f1d43"></path><path d="M770 165.4L753 98.9L719 134.7Z" fill="#5c1746" stroke="#5c1746"></path><path d="M663 0L647 0L623 45.9Z" fill="#4d1a47" stroke="#4d1a47"></path><path d="M127 226.1L118 262.3L153 235Z" fill="#0b182e" stroke="#0b182e"></path><path d="M644 600L698 587.1L640 538.3Z" fill="#211c3e" stroke="#211c3e"></path><path d="M826 374.7L824 363.7L767 393.7Z" fill="#211c3e" stroke="#211c3e"></path><path d="M792 340L831 272L770 267.3Z" fill="#4d1a47" stroke="#4d1a47"></path><path d="M877 174.6L799 164.4L781 198.3Z" fill="#151b36" stroke="#151b36"></path><path d="M826 374.7L767 393.7L784 426.6Z" fill="#051525" stroke="#051525"></path><path d="M695 27.7L623 45.9L680 79.6Z" fill="#151b36" stroke="#151b36"></path><path d="M569 -8.1L832 -26.1L486 -25.1Z" fill="#211c3e" stroke="#211c3e"></path><path d="M94 207.1L124 216.4L94 145.3Z" fill="#00101c" stroke="#00101c"></path><path d="M127 226.1L94 207.1L118 262.3Z" fill="#4d1a47" stroke="#4d1a47"></path><path d="M781 198.3L799 164.4L775 187.4Z" fill="#5c1746" stroke="#5c1746"></path><path d="M877 174.6L781 198.3L785 227.1Z" fill="#0b182e" stroke="#0b182e"></path><path d="M732 567.1L752 536.1L739 533.4Z" fill="#4d1a47" stroke="#4d1a47"></path><path d="M739 533.4L775 507.6L718 455.6Z" fill="#2f1d43" stroke="#2f1d43"></path><path d="M157 510.3L185 533.4L175 494.6Z" fill="#4d1a47" stroke="#4d1a47"></path><path d="M175 494.6L185 533.4L206 518.3Z" fill="#151b36" stroke="#151b36"></path><path d="M235 556.1L244 600L312 600Z" fill="#211c3e" stroke="#211c3e"></path><path d="M345 0L287 0L317 48.7Z" fill="#151b36" stroke="#151b36"></path><path d="M240 -17.1L287 0L345 0Z" fill="#3e1c46" stroke="#3e1c46"></path><path d="M836 378.9L826 374.7L784 426.6Z" fill="#2f1d43" stroke="#2f1d43"></path><path d="M836 359.9L831 272L792 340Z" fill="#3e1c46" stroke="#3e1c46"></path><path d="M753 60.6L695 27.7L680 79.6Z" fill="#151b36" stroke="#151b36"></path><path d="M752 536.1L775 507.6L739 533.4Z" fill="#5c1746" stroke="#5c1746"></path><path d="M836 359.9L792 340L824 363.7Z" fill="#4d1a47" stroke="#4d1a47"></path><path d="M105 435.7L133 451.4L155 411.7Z" fill="#00101c" stroke="#00101c"></path><path d="M210 45.9L196 87.6L235 84.9Z" fill="#3e1c46" stroke="#3e1c46"></path><path d="M196 87.6L165 102.9L210 110.4Z" fill="#0b182e" stroke="#0b182e"></path><path d="M218 581.3L244 600L235 556.1Z" fill="#00101c" stroke="#00101c"></path><path d="M312 600L112 634.1L523 625.1Z" fill="#211c3e" stroke="#211c3e"></path><path d="M698 587.1L732 567.1L657 518.4Z" fill="#00101c" stroke="#00101c"></path><path d="M808 552.3L783 504.1L775 507.6Z" fill="#77103d" stroke="#77103d"></path><path d="M695 27.7L663 0L623 45.9Z" fill="#2f1d43" stroke="#2f1d43"></path><path d="M647 0L663 0L569 -8.1Z" fill="#151b36" stroke="#151b36"></path><path d="M808 552.3L775 507.6L752 536.1Z" fill="#051525" stroke="#051525"></path><path d="M775 507.6L783 504.1L718 455.6Z" fill="#6a1343" stroke="#6a1343"></path><path d="M210 575.1L218 581.3L235 556.1Z" fill="#77103d" stroke="#77103d"></path><path d="M189 77.9L165 102.9L196 87.6Z" fill="#151b36" stroke="#151b36"></path><path d="M836 378.9L836 359.9L826 374.7Z" fill="#3e1c46" stroke="#3e1c46"></path><path d="M826 374.7L836 359.9L824 363.7Z" fill="#77103d" stroke="#77103d"></path><path d="M185 533.4L210 575.1L235 556.1Z" fill="#77103d" stroke="#77103d"></path><path d="M194 573.1L210 575.1L185 533.4Z" fill="#4d1a47" stroke="#4d1a47"></path><path d="M133 451.4L157 510.3L171 472.6Z" fill="#6a1343" stroke="#6a1343"></path><path d="M236 0L210 45.9L235 84.9Z" fill="#6a1343" stroke="#6a1343"></path><path d="M163 65.7L153 97.6L165 102.9Z" fill="#5c1746" stroke="#5c1746"></path><path d="M826 450.6L836 378.9L784 426.6Z" fill="#051525" stroke="#051525"></path><path d="M94 307.1L101 372.9L121 355.9Z" fill="#6a1343" stroke="#6a1343"></path><path d="M121 355.9L101 372.9L155 411.7Z" fill="#0b182e" stroke="#0b182e"></path><path d="M94 307.1L157 297.1L118 262.3Z" fill="#4d1a47" stroke="#4d1a47"></path><path d="M736 0L678 0L695 27.7Z" fill="#77103d" stroke="#77103d"></path><path d="M695 27.7L678 0L663 0Z" fill="#151b36" stroke="#151b36"></path><path d="M663 0L832 -26.1L569 -8.1Z" fill="#6a1343" stroke="#6a1343"></path><path d="M53 271.1L94 307.1L118 262.3Z" fill="#211c3e" stroke="#211c3e"></path><path d="M753 98.9L753 60.6L704 113.6Z" fill="#0b182e" stroke="#0b182e"></path><path d="M784 45.9L753 60.6L753 98.9Z" fill="#2f1d43" stroke="#2f1d43"></path><path d="M167 565.3L194 573.1L185 533.4Z" fill="#4d1a47" stroke="#4d1a47"></path><path d="M211 600L222 600L218 581.3Z" fill="#211c3e" stroke="#211c3e"></path><path d="M218 581.3L222 600L244 600Z" fill="#0b182e" stroke="#0b182e"></path><path d="M211 600L218 581.3L210 575.1Z" fill="#151b36" stroke="#151b36"></path><path d="M244 600L112 634.1L312 600Z" fill="#211c3e" stroke="#211c3e"></path><path d="M163 65.7L165 102.9L189 77.9Z" fill="#3e1c46" stroke="#3e1c46"></path><path d="M165 102.9L153 97.6L164 176.4Z" fill="#77103d" stroke="#77103d"></path><path d="M124 216.4L94 207.1L127 226.1Z" fill="#151b36" stroke="#151b36"></path><path d="M783 504.1L826 450.6L784 426.6Z" fill="#0b182e" stroke="#0b182e"></path><path d="M698 587.1L721 600L732 567.1Z" fill="#0b182e" stroke="#0b182e"></path><path d="M732 567.1L761 571.3L752 536.1Z" fill="#77103d" stroke="#77103d"></path><path d="M838 508.1L839 453.3L826 450.6Z" fill="#77103d" stroke="#77103d"></path><path d="M728 636.1L721 600L698 587.1Z" fill="#00101c" stroke="#00101c"></path><path d="M728 636.1L698 587.1L644 600Z" fill="#4d1a47" stroke="#4d1a47"></path><path d="M133 451.4L21 492.1L157 510.3Z" fill="#5c1746" stroke="#5c1746"></path><path d="M157 510.3L167 565.3L185 533.4Z" fill="#00101c" stroke="#00101c"></path><path d="M101 372.9L105 435.7L155 411.7Z" fill="#2f1d43" stroke="#2f1d43"></path><path d="M59 377L105 435.7L101 372.9Z" fill="#5c1746" stroke="#5c1746"></path><path d="M167 565.3L211 600L194 573.1Z" fill="#00101c" stroke="#00101c"></path><path d="M194 573.1L211 600L210 575.1Z" fill="#4d1a47" stroke="#4d1a47"></path><path d="M222 600L112 634.1L244 600Z" fill="#051525" stroke="#051525"></path><path d="M287 0L236 0L235 84.9Z" fill="#051525" stroke="#051525"></path><path d="M210 45.9L163 65.7L189 77.9Z" fill="#211c3e" stroke="#211c3e"></path><path d="M240 -17.1L236 0L287 0Z" fill="#3e1c46" stroke="#3e1c46"></path><path d="M94 145.3L124 216.4L164 176.4Z" fill="#00101c" stroke="#00101c"></path><path d="M742 600L761 571.3L732 567.1Z" fill="#2f1d43" stroke="#2f1d43"></path><path d="M159 34.7L163 65.7L210 45.9Z" fill="#0b182e" stroke="#0b182e"></path><path d="M153 97.6L94 145.3L164 176.4Z" fill="#00101c" stroke="#00101c"></path><path d="M900 314.7L860 253.3L831 272Z" fill="#051525" stroke="#051525"></path><path d="M831 272L860 253.3L785 227.1Z" fill="#3e1c46" stroke="#3e1c46"></path><path d="M818 66.7L784 45.9L753 98.9Z" fill="#77103d" stroke="#77103d"></path><path d="M900 314.7L831 272L836 359.9Z" fill="#77103d" stroke="#77103d"></path><path d="M900 314.7L836 359.9L900 397.9Z" fill="#2f1d43" stroke="#2f1d43"></path><path d="M114 586.3L167 565.3L157 510.3Z" fill="#00101c" stroke="#00101c"></path><path d="M240 -17.1L226 0L236 0Z" fill="#051525" stroke="#051525"></path><path d="M236 0L226 0L210 45.9Z" fill="#3e1c46" stroke="#3e1c46"></path><path d="M838 508.1L826 450.6L783 504.1Z" fill="#3e1c46" stroke="#3e1c46"></path><path d="M826 450.6L839 453.3L836 378.9Z" fill="#151b36" stroke="#151b36"></path><path d="M721 600L742 600L732 567.1Z" fill="#4d1a47" stroke="#4d1a47"></path><path d="M728 636.1L742 600L721 600Z" fill="#2f1d43" stroke="#2f1d43"></path><path d="M486 -25.1L240 -17.1L345 0Z" fill="#0b182e" stroke="#0b182e"></path><path d="M226 0L159 34.7L210 45.9Z" fill="#0b182e" stroke="#0b182e"></path><path d="M766 0L736 0L753 60.6Z" fill="#77103d" stroke="#77103d"></path><path d="M753 60.6L736 0L695 27.7Z" fill="#4d1a47" stroke="#4d1a47"></path><path d="M678 0L832 -26.1L663 0Z" fill="#0b182e" stroke="#0b182e"></path><path d="M110 75.6L94 145.3L153 97.6Z" fill="#4d1a47" stroke="#4d1a47"></path><path d="M838 116.7L753 98.9L799 164.4Z" fill="#051525" stroke="#051525"></path><path d="M523 625.1L728 636.1L643 600Z" fill="#151b36" stroke="#151b36"></path><path d="M804 600L808 552.3L761 571.3Z" fill="#4d1a47" stroke="#4d1a47"></path><path d="M761 571.3L808 552.3L752 536.1Z" fill="#2f1d43" stroke="#2f1d43"></path><path d="M54 360.6L94 307.1L53 271.1Z" fill="#3e1c46" stroke="#3e1c46"></path><path d="M54 360.6L101 372.9L94 307.1Z" fill="#2f1d43" stroke="#2f1d43"></path><path d="M54 360.6L59 371.6L101 372.9Z" fill="#051525" stroke="#051525"></path><path d="M21 492.1L114 586.3L157 510.3Z" fill="#211c3e" stroke="#211c3e"></path><path d="M827 550.4L808 552.3L804 600Z" fill="#2f1d43" stroke="#2f1d43"></path><path d="M59 371.6L59 377L101 372.9Z" fill="#77103d" stroke="#77103d"></path><path d="M145 10.7L159 34.7L149 0Z" fill="#051525" stroke="#051525"></path><path d="M163 65.7L110 75.6L153 97.6Z" fill="#2f1d43" stroke="#2f1d43"></path><path d="M877 174.6L838 116.7L799 164.4Z" fill="#6a1343" stroke="#6a1343"></path><path d="M808 552.3L838 508.1L783 504.1Z" fill="#4d1a47" stroke="#4d1a47"></path><path d="M899 224.1L877 174.6L860 253.3Z" fill="#77103d" stroke="#77103d"></path><path d="M53 271.1L118 262.3L94 207.1Z" fill="#00101c" stroke="#00101c"></path><path d="M59 371.6L54 360.6L59 377Z" fill="#211c3e" stroke="#211c3e"></path><path d="M0 229L53 271.1L94 207.1Z" fill="#5c1746" stroke="#5c1746"></path><path d="M838 116.7L818 66.7L753 98.9Z" fill="#151b36" stroke="#151b36"></path><path d="M784 45.9L766 0L753 60.6Z" fill="#051525" stroke="#051525"></path><path d="M860 253.3L877 174.6L785 227.1Z" fill="#151b36" stroke="#151b36"></path><path d="M838 116.7L882 56.7L818 66.7Z" fill="#2f1d43" stroke="#2f1d43"></path><path d="M836 359.9L836 378.9L900 397.9Z" fill="#6a1343" stroke="#6a1343"></path><path d="M808 552.3L827 550.4L838 508.1Z" fill="#2f1d43" stroke="#2f1d43"></path><path d="M804 600L761 571.3L742 600Z" fill="#6a1343" stroke="#6a1343"></path><path d="M774 0L766 0L784 45.9Z" fill="#6a1343" stroke="#6a1343"></path><path d="M736 0L773 -7.1L678 0Z" fill="#4d1a47" stroke="#4d1a47"></path><path d="M159 34.7L110 75.6L163 65.7Z" fill="#211c3e" stroke="#211c3e"></path><path d="M94 145.3L25 175.4L94 207.1Z" fill="#3e1c46" stroke="#3e1c46"></path><path d="M836 378.9L839 453.3L900 427.6Z" fill="#151b36" stroke="#151b36"></path><path d="M900 397.9L836 378.9L900 427.6Z" fill="#77103d" stroke="#77103d"></path><path d="M900 314.7L900 265.1L860 253.3Z" fill="#5c1746" stroke="#5c1746"></path><path d="M900 265.1L900 265L860 253.3Z" fill="#5c1746" stroke="#5c1746"></path><path d="M900 265L900 248.3L860 253.3Z" fill="#6a1343" stroke="#6a1343"></path><path d="M832 -26.1L774 0L784 45.9Z" fill="#00101c" stroke="#00101c"></path><path d="M766 0L773 -7.1L736 0Z" fill="#00101c" stroke="#00101c"></path><path d="M900 248.3L899 224.1L860 253.3Z" fill="#5c1746" stroke="#5c1746"></path><path d="M60 0L99 76.7L110 75.6Z" fill="#051525" stroke="#051525"></path><path d="M110 75.6L90 80.6L94 145.3Z" fill="#211c3e" stroke="#211c3e"></path><path d="M900 427.6L839 453.3L900 460.3Z" fill="#5c1746" stroke="#5c1746"></path><path d="M832 -26.1L773 -7.1L774 0Z" fill="#051525" stroke="#051525"></path><path d="M774 0L773 -7.1L766 0Z" fill="#051525" stroke="#051525"></path><path d="M728 636.1L804 600L742 600Z" fill="#0b182e" stroke="#0b182e"></path><path d="M827 550.4L854 532.4L838 508.1Z" fill="#6a1343" stroke="#6a1343"></path><path d="M149 0L159 34.7L226 0Z" fill="#5c1746" stroke="#5c1746"></path><path d="M159 34.7L145 10.7L110 75.6Z" fill="#151b36" stroke="#151b36"></path><path d="M884 600L854 532.4L827 550.4Z" fill="#5c1746" stroke="#5c1746"></path><path d="M60 0L90 80.6L99 76.7Z" fill="#2f1d43" stroke="#2f1d43"></path><path d="M99 76.7L90 80.6L110 75.6Z" fill="#211c3e" stroke="#211c3e"></path><path d="M90 80.6L67 121.9L94 145.3Z" fill="#3e1c46" stroke="#3e1c46"></path><path d="M889 476.3L839 453.3L838 508.1Z" fill="#051525" stroke="#051525"></path><path d="M920 312.9L900 191.6L899 224.1Z" fill="#3e1c46" stroke="#3e1c46"></path><path d="M899 224.1L900 191.6L877 174.6Z" fill="#211c3e" stroke="#211c3e"></path><path d="M877 174.6L900 135.6L838 116.7Z" fill="#0b182e" stroke="#0b182e"></path><path d="M818 66.7L832 -26.1L784 45.9Z" fill="#3e1c46" stroke="#3e1c46"></path><path d="M240 -17.1L149 0L226 0Z" fill="#211c3e" stroke="#211c3e"></path><path d="M145 10.7L60 0L110 75.6Z" fill="#0b182e" stroke="#0b182e"></path><path d="M0 394.7L59 377L54 360.6Z" fill="#051525" stroke="#051525"></path><path d="M0 398.4L39 431.4L59 377Z" fill="#5c1746" stroke="#5c1746"></path><path d="M59 377L39 431.4L105 435.7Z" fill="#151b36" stroke="#151b36"></path><path d="M21 492.1L133 451.4L105 435.7Z" fill="#00101c" stroke="#00101c"></path><path d="M167 565.3L112 634.1L211 600Z" fill="#051525" stroke="#051525"></path><path d="M900 427.6L920 312.9L900 397.9Z" fill="#00101c" stroke="#00101c"></path><path d="M900 397.9L920 312.9L900 314.7Z" fill="#77103d" stroke="#77103d"></path><path d="M900 314.7L920 312.9L900 265.1Z" fill="#00101c" stroke="#00101c"></path><path d="M900 265.1L920 312.9L900 265Z" fill="#211c3e" stroke="#211c3e"></path><path d="M900 265L920 312.9L900 248.3Z" fill="#151b36" stroke="#151b36"></path><path d="M900 248.3L920 312.9L899 224.1Z" fill="#6a1343" stroke="#6a1343"></path><path d="M854 532.4L889 476.3L838 508.1Z" fill="#0b182e" stroke="#0b182e"></path><path d="M240 -17.1L144 0L149 0Z" fill="#0b182e" stroke="#0b182e"></path><path d="M149 0L144 0L145 10.7Z" fill="#5c1746" stroke="#5c1746"></path><path d="M900 466.4L900 460.3L889 476.3Z" fill="#3e1c46" stroke="#3e1c46"></path><path d="M889 476.3L900 460.3L839 453.3Z" fill="#5c1746" stroke="#5c1746"></path><path d="M900 427.6L900 460.3L920 312.9Z" fill="#3e1c46" stroke="#3e1c46"></path><path d="M918 92.4L900 158.4L900 191.6Z" fill="#00101c" stroke="#00101c"></path><path d="M900 191.6L900 158.4L877 174.6Z" fill="#00101c" stroke="#00101c"></path><path d="M900 480.1L900 466.4L889 476.3Z" fill="#151b36" stroke="#151b36"></path><path d="M900 460.3L900 466.4L920 312.9Z" fill="#77103d" stroke="#77103d"></path><path d="M900 600L900 480.1L854 532.4Z" fill="#4d1a47" stroke="#4d1a47"></path><path d="M854 532.4L900 480.1L889 476.3Z" fill="#0b182e" stroke="#0b182e"></path><path d="M900 466.4L900 480.1L920 312.9Z" fill="#00101c" stroke="#00101c"></path><path d="M918 92.4L900 135.6L900 158.4Z" fill="#2f1d43" stroke="#2f1d43"></path><path d="M900 158.4L900 135.6L877 174.6Z" fill="#051525" stroke="#051525"></path><path d="M0 211.3L25 175.4L0 195.4Z" fill="#0b182e" stroke="#0b182e"></path><path d="M0 195.4L25 175.4L-33 147.7Z" fill="#4d1a47" stroke="#4d1a47"></path><path d="M67 121.9L25 175.4L94 145.3Z" fill="#211c3e" stroke="#211c3e"></path><path d="M53 271.1L0 327.9L54 360.6Z" fill="#0b182e" stroke="#0b182e"></path><path d="M0 229L0 327.9L53 271.1Z" fill="#00101c" stroke="#00101c"></path><path d="M0 327.9L0 329.1L54 360.6Z" fill="#6a1343" stroke="#6a1343"></path><path d="M39 431.4L21 492.1L105 435.7Z" fill="#051525" stroke="#051525"></path><path d="M0 398.4L18 447.7L39 431.4Z" fill="#151b36" stroke="#151b36"></path><path d="M918 92.4L900 113.7L900 135.6Z" fill="#151b36" stroke="#151b36"></path><path d="M900 135.6L900 113.7L838 116.7Z" fill="#051525" stroke="#051525"></path><path d="M0 327.9L-6 343.9L0 329.1Z" fill="#211c3e" stroke="#211c3e"></path><path d="M0 329.1L-6 343.9L54 360.6Z" fill="#211c3e" stroke="#211c3e"></path><path d="M0 229L-6 343.9L0 327.9Z" fill="#211c3e" stroke="#211c3e"></path><path d="M0 211.3L0 229L94 207.1Z" fill="#151b36" stroke="#151b36"></path><path d="M-6 343.9L0 394.7L54 360.6Z" fill="#151b36" stroke="#151b36"></path><path d="M-24 422.4L0 398.4L0 394.7Z" fill="#4d1a47" stroke="#4d1a47"></path><path d="M0 394.7L0 398.4L59 377Z" fill="#00101c" stroke="#00101c"></path><path d="M918 92.4L900 98.9L900 113.7Z" fill="#051525" stroke="#051525"></path><path d="M900 113.7L900 98.9L838 116.7Z" fill="#3e1c46" stroke="#3e1c46"></path><path d="M25 175.4L0 211.3L94 207.1Z" fill="#4d1a47" stroke="#4d1a47"></path><path d="M-33 147.7L-24 422.4L-6 343.9Z" fill="#4d1a47" stroke="#4d1a47"></path><path d="M25 175.4L67 121.9L0 108.7Z" fill="#2f1d43" stroke="#2f1d43"></path><path d="M21 492.1L84 600L114 586.3Z" fill="#051525" stroke="#051525"></path><path d="M114 586.3L112 634.1L167 565.3Z" fill="#3e1c46" stroke="#3e1c46"></path><path d="M211 600L112 634.1L222 600Z" fill="#211c3e" stroke="#211c3e"></path><path d="M84 600L112 634.1L114 586.3Z" fill="#051525" stroke="#051525"></path><path d="M523 625.1L112 634.1L728 636.1Z" fill="#6a1343" stroke="#6a1343"></path><path d="M18 447.7L21 492.1L39 431.4Z" fill="#6a1343" stroke="#6a1343"></path><path d="M0 479.3L21 492.1L18 447.7Z" fill="#5c1746" stroke="#5c1746"></path><path d="M0 108.7L67 121.9L0 100.6Z" fill="#6a1343" stroke="#6a1343"></path><path d="M-33 147.7L-6 343.9L0 229Z" fill="#6a1343" stroke="#6a1343"></path><path d="M900 98.9L882 56.7L838 116.7Z" fill="#3e1c46" stroke="#3e1c46"></path><path d="M0 398.4L0 451.6L18 447.7Z" fill="#2f1d43" stroke="#2f1d43"></path><path d="M-24 422.4L0 451.6L0 398.4Z" fill="#4d1a47" stroke="#4d1a47"></path><path d="M885 0L832 -26.1L818 66.7Z" fill="#5c1746" stroke="#5c1746"></path><path d="M773 -7.1L832 -26.1L678 0Z" fill="#051525" stroke="#051525"></path><path d="M-24 422.4L0 479.3L0 451.6Z" fill="#77103d" stroke="#77103d"></path><path d="M0 451.6L0 479.3L18 447.7Z" fill="#3e1c46" stroke="#3e1c46"></path><path d="M21 492.1L58 600L84 600Z" fill="#77103d" stroke="#77103d"></path><path d="M900 98.9L918 92.4L882 56.7Z" fill="#151b36" stroke="#151b36"></path><path d="M882 56.7L885 0L818 66.7Z" fill="#0b182e" stroke="#0b182e"></path><path d="M920 312.9L918 92.4L900 191.6Z" fill="#5c1746" stroke="#5c1746"></path><path d="M22 600L58 600L21 492.1Z" fill="#6a1343" stroke="#6a1343"></path><path d="M84 600L58 600L112 634.1Z" fill="#6a1343" stroke="#6a1343"></path><path d="M804 600L884 600L827 550.4Z" fill="#6a1343" stroke="#6a1343"></path><path d="M728 636.1L884 600L804 600Z" fill="#6a1343" stroke="#6a1343"></path><path d="M-33 147.7L0 229L0 211.3Z" fill="#77103d" stroke="#77103d"></path><path d="M-6 343.9L-24 422.4L0 394.7Z" fill="#77103d" stroke="#77103d"></path><path d="M0 100.6L67 121.9L90 80.6Z" fill="#051525" stroke="#051525"></path><path d="M0 195.4L-33 147.7L0 211.3Z" fill="#77103d" stroke="#77103d"></path><path d="M144 0L60 0L145 10.7Z" fill="#4d1a47" stroke="#4d1a47"></path><path d="M240 -17.1L60 0L144 0Z" fill="#0b182e" stroke="#0b182e"></path><path d="M32 12.9L0 100.6L90 80.6Z" fill="#211c3e" stroke="#211c3e"></path><path d="M0 108.7L-33 147.7L25 175.4Z" fill="#5c1746" stroke="#5c1746"></path><path d="M728 636.1L900 600L884 600Z" fill="#211c3e" stroke="#211c3e"></path><path d="M884 600L900 600L854 532.4Z" fill="#6a1343" stroke="#6a1343"></path><path d="M900 480.1L900 600L920 312.9Z" fill="#77103d" stroke="#77103d"></path><path d="M900 0L885 0L882 56.7Z" fill="#0b182e" stroke="#0b182e"></path><path d="M-15 99.6L0 108.7L0 100.6Z" fill="#77103d" stroke="#77103d"></path><path d="M-15 99.6L-33 147.7L0 108.7Z" fill="#4d1a47" stroke="#4d1a47"></path><path d="M0 18.9L-15 99.6L0 100.6Z" fill="#151b36" stroke="#151b36"></path><path d="M60 0L32 12.9L90 80.6Z" fill="#2f1d43" stroke="#2f1d43"></path><path d="M918 92.4L900 0L882 56.7Z" fill="#4d1a47" stroke="#4d1a47"></path><path d="M885 0L900 0L832 -26.1Z" fill="#151b36" stroke="#151b36"></path><path d="M0 600L21 492.1L0 479.3Z" fill="#4d1a47" stroke="#4d1a47"></path><path d="M0 600L22 600L21 492.1Z" fill="#0b182e" stroke="#0b182e"></path><path d="M58 600L0 623.1L112 634.1Z" fill="#6a1343" stroke="#6a1343"></path><path d="M-24 422.4L0 600L0 479.3Z" fill="#6a1343" stroke="#6a1343"></path><path d="M22 600L0 623.1L58 600Z" fill="#2f1d43" stroke="#2f1d43"></path><path d="M0 0L0 18.9L32 12.9Z" fill="#2f1d43" stroke="#2f1d43"></path><path d="M32 12.9L0 18.9L0 100.6Z" fill="#2f1d43" stroke="#2f1d43"></path><path d="M-15 99.6L0 0L-33 147.7Z" fill="#6a1343" stroke="#6a1343"></path><path d="M240 -17.1L0 0L60 0Z" fill="#2f1d43" stroke="#2f1d43"></path><path d="M60 0L0 0L32 12.9Z" fill="#211c3e" stroke="#211c3e"></path><path d="M0 18.9L0 0L-15 99.6Z" fill="#00101c" stroke="#00101c"></path><path d="M-24 422.4L0 623.1L0 600Z" fill="#77103d" stroke="#77103d"></path><path d="M0 600L0 623.1L22 600Z" fill="#151b36" stroke="#151b36"></path></g></svg>